<?xml version="1.0" encoding="utf-8"?>
<!-- Generator: Adobe Illustrator 23.0.0, SVG Export Plug-In . SVG Version: 6.00 Build 0)  -->
<svg version="1.1" id="Capa_1" xmlns="http://www.w3.org/2000/svg" xmlns:xlink="http://www.w3.org/1999/xlink" x="0px" y="0px"
	 viewBox="0 0 158 30.7" style="enable-background:new 0 0 158 30.7;" xml:space="preserve">
<style type="text/css">
	.st0{fill:#FFFFFF;}
</style>
<title>a16z-logo</title>
<path class="st0" d="M85.6,30.7c-0.5-0.1-1.1-0.1-1.6-0.3c-4.7-0.8-8.3-4.5-8.9-9.3c-0.3-2.9,0.5-5.8,2.3-8.1
	c2.9-3.9,5.8-7.8,8.7-11.8c0.1-0.1,0.3-0.2,0.3-0.2c1.7,0,3.5,0,5.3,0c0,0,0,0,0.1,0c-2.1,2.7-4,5.3-6.1,7.9c0.1,0,0.2,0,0.3,0.1
	c2.7-0.2,5.3,0.8,7.3,2.7c2.5,2.1,3.9,5.3,3.6,8.6c-0.3,4.7-3.5,8.7-8.1,9.9c-0.7,0.2-1.5,0.3-2.3,0.3l-0.3,0.1L85.6,30.7z
	 M85.9,26.4c0.4,0,0.9-0.1,1.3-0.2c2.7-0.5,4.7-2.7,5-5.5c0.5-3.9-2.3-7.6-6.6-7.4c-1.5,0.1-3,0.7-4.1,1.9c-1.5,1.6-2.1,3.9-1.6,6.1
	C80.4,24.2,82.9,26.3,85.9,26.4z"/>
<path class="st0" d="M60.2,10.2V8.8h4.6V30h-4.6v-1.6c-3,2.1-6.9,2.7-10.5,1.4c-2.2-0.8-4.2-2.3-5.5-4.3c-2.7-4-2.6-9.3,0.3-13.1
	c1.8-2.3,4.4-3.9,7.3-4.3C54.8,7.7,57.8,8.5,60.2,10.2z M53.6,25.9c3.7,0,6.6-2.9,6.6-6.6s-2.9-6.6-6.6-6.6c-3.6,0-6.6,2.9-6.6,6.6
	C47,22.9,49.9,25.9,53.6,25.9z"/>
<path class="st0" d="M104.4,25.8h10.5V30H98.7c0-0.1,0-0.3,0-0.3c0-1.2,0-2.4,0-3.6c0-0.2,0.1-0.3,0.2-0.5c3.3-4,6.7-8.1,10-12.1
	l0.3-0.4H98.8V8.8H115c0,0.1,0,0.2,0,0.3c0,1.2,0,2.4,0,3.6c0,0.2-0.1,0.3-0.2,0.5c-3.3,4-6.7,8.1-10,12.1
	C104.7,25.6,104.6,25.7,104.4,25.8z"/>
<path class="st0" d="M72.7,30.1H68V5.9c0-0.5,0-0.5-0.5-0.5H65V1.1h7.8L72.7,30.1z"/>
</svg>
