<svg width="203" height="339" viewBox="0 0 203 339" fill="none" xmlns="http://www.w3.org/2000/svg">
<path fill-rule="evenodd" clip-rule="evenodd" d="M177.086 203.984C174.804 195.107 172.705 191.342 168.652 188.257C164.86 185.37 159.324 182.945 151.246 181.174C142.834 179.7 142.595 175.314 140.487 168.266C139.871 166.146 136.822 165.582 135.505 167.11C135.32 166.908 135.126 166.725 134.927 166.559C135.106 165.547 133.638 162.651 133.687 161.685C134.199 151.594 130.908 146.528 122.696 144.645C120.911 144.235 108.779 143.993 107.037 144.477C99.424 146.588 91.9295 153.292 93.0765 161.366C90.6866 164.498 88.3477 166.41 84.6609 167.419C78.9194 168.15 81.8036 249.736 91.7753 298.615C96.0538 319.587 198.356 283.892 193.733 273.389C194.388 271.463 193.194 269.348 193.733 267.359C194.123 265.921 195.122 265.325 195.625 263.902C196.332 261.896 195.564 259.206 194.767 257.16C194.44 256.142 195.367 255.043 195.625 254.003C196.848 249.095 194.049 249.527 192.029 246.248C192.059 246.237 192.584 243.895 192.583 243.906C192.891 242.234 192.117 240.092 191.442 238.697C190.986 237.754 190.008 237.163 189.037 237.271C190.015 233.94 191.252 231.168 192.583 227.959C194.935 222.303 197.173 216.385 200.552 211.265C201.934 209.167 200.817 207.239 198.578 207.096C191.332 206.635 184.164 205.589 177.086 203.984Z" fill="#D08B5B"/>
<path fill-rule="evenodd" clip-rule="evenodd" d="M165.775 204.671L149.232 232.752C149.232 232.752 153.156 233.144 154.744 233.91C156.333 234.675 163.625 243.975 163.625 243.975L164.783 249.095L162.038 253.223L163.109 255.815C163.109 255.815 163.873 254.059 165.775 252.695C167.676 251.333 171.87 249.095 171.87 249.095C171.87 249.095 170.476 248.347 170.476 247.468C170.476 246.59 169.249 242.844 171.87 241.429C174.492 240.013 188.039 236.702 188.039 236.702L201.769 207.654L165.775 204.671Z" fill="#AFAFAF"/>
<path fill-rule="evenodd" clip-rule="evenodd" d="M91.9772 167.61L144.505 176.857L168.651 188.256L172.593 191.302L149.23 232.753L113.157 239.355L103.967 263.299L105.843 290.291L164.527 283.273L189.84 280.255L195.791 304.352L194.717 314.265L193.153 319.291L130.399 336.286C130.399 336.286 98.4434 333.18 92.7787 333.18C87.1141 333.18 45.5823 337.316 45.5823 337.316L35.9729 336.286C35.9729 336.286 14.7124 313.81 11.4148 305.809C8.11739 297.81 0.986816 249.183 0.986816 249.183L1.77193 241.712L20.1406 194.294C20.1406 194.294 22.5935 192.061 25.6859 188.256C28.7784 184.452 91.9772 167.61 91.9772 167.61Z" fill="#FF734F"/>
<path fill-rule="evenodd" clip-rule="evenodd" d="M187.046 236.103C182.299 236.345 177.547 237.478 173.253 239.529C171.496 240.37 169.904 241.583 169.438 243.579C169.202 244.599 169.26 245.651 169.386 246.682C169.48 247.462 169.504 248.457 170.179 248.985C170.294 249.074 170.417 249.143 170.546 249.192C168.962 249.91 167.453 250.771 166.112 251.659C164.887 252.47 163.628 253.721 163.062 255.132C163.015 254.972 162.968 254.823 162.921 254.68C161.957 251.823 160.472 249.481 158.134 247.908C157.869 246.937 155.019 242.76 152.373 242.917C149.474 243.088 147.143 243.301 144.522 244.638C143.567 244.617 142.613 244.63 141.67 244.672C141.508 244.677 141.516 244.899 141.67 244.916C142.435 245.013 143.199 245.12 143.964 245.248C145.781 245.538 147.593 245.909 149.365 246.368C151.491 246.921 153.692 247.474 155.678 248.439C159.533 250.312 161.918 255.208 161.428 259.468C161.348 260.167 161.077 262.279 160.111 262.061C159.294 261.877 158.97 260.167 158.684 259.534C157.92 257.852 156.542 256.756 154.891 256.012C152.95 255.137 150.874 254.546 148.862 253.858C147.725 253.466 146.585 253.075 145.443 252.685C144.275 252.285 143.166 251.73 141.921 252.011C141.17 252.181 141.084 253.08 141.505 253.595C142.147 254.381 143.1 254.612 144.024 254.934C145.245 255.36 146.463 255.786 147.679 256.212C149.562 256.867 151.534 257.422 153.369 258.226L153.311 258.357C153.162 258.314 152.986 258.465 153.016 258.649C153.291 260.348 153.673 262.312 153.248 264.016C152.914 265.366 151.732 266.86 150.198 266.463C150.439 266.243 150.528 265.862 150.366 265.51C149.758 264.207 141.799 259.064 141.09 260.973C141.066 261.041 141.139 261.091 141.197 261.082C141.802 260.954 142.815 261.99 143.299 262.319C143.997 262.792 144.707 263.254 145.399 263.739C146.156 264.27 146.893 264.827 147.615 265.402C148.18 265.854 148.606 266.324 149.255 266.552C148.916 266.716 148.646 267.017 148.531 267.404C148.237 268.41 147.671 269.263 146.689 269.708C145.661 270.17 144.502 269.877 143.417 269.99C141.94 270.141 140.651 270.845 139.575 271.851C137.317 273.968 136.182 277.699 133.022 278.698C131.135 279.295 129.04 278.92 127.129 278.649C124.995 278.346 122.916 278.107 120.766 278.423C118.707 278.725 116.762 279.44 114.882 280.312C113.119 281.128 111.172 282.053 109.608 283.271C109.287 282.276 108.962 281.291 108.716 280.274C108.135 277.871 107.82 275.423 107.744 272.954C107.674 270.603 107.805 268.241 108.006 265.901C108.106 264.732 108.263 263.568 108.362 262.4C108.388 262.105 108.441 261.791 108.48 261.475C111.271 259.823 114.203 258.556 117.159 257.254C117.167 257.252 117.175 257.246 117.183 257.244C117.276 257.202 117.364 257.163 117.456 257.123C117.453 257.117 117.45 257.112 117.445 257.108C117.783 256.9 118.019 256.623 118.16 256.314C122.421 253.479 125.982 249.61 128.636 245.097C129.749 243.206 130.82 241.243 132.275 239.587C133.826 237.819 135.667 236.768 137.944 236.221C140.607 235.581 143.351 235.198 146.079 234.98C147.569 234.862 149.235 234.678 150.858 234.686C151.99 234.694 153.096 234.789 154.113 235.071C155.618 235.486 156.498 236.634 157.443 237.796C158.346 238.91 159.245 240.026 160.087 241.187C160.886 242.287 161.64 243.425 162.295 244.617C162.688 245.331 163.051 246.066 163.358 246.825C163.466 247.094 163.608 247.399 163.672 247.677C163.738 247.958 163.617 248.255 163.931 248.255C162.635 248.273 161.774 251.515 163.062 251.439C164.874 251.334 165.784 249.156 165.429 247.223C164.796 243.774 161.376 239.609 160.7 238.728C159.206 236.779 157.663 234.236 155.271 233.33C155.236 233.317 155.2 233.304 155.166 233.293C155.862 232.63 156.412 231.838 156.938 231.032C157.48 230.201 158.126 229.25 158.305 228.265C158.417 227.638 157.639 227.281 157.27 227.829C156.734 228.631 156.475 229.644 156.074 230.524C155.665 231.417 155.169 232.261 154.776 233.161C153.83 232.871 152.808 232.737 151.77 232.691C153.082 230.911 155.323 227.474 155.591 227.034C156.833 224.99 158.015 222.884 159.143 220.773C160.362 218.488 161.407 216.109 162.575 213.798C163.238 212.487 163.906 211.165 164.642 209.894C164.895 209.457 165.168 209.022 165.476 208.626C165.537 208.547 165.613 208.481 165.683 208.407C165.765 208.362 165.848 208.313 165.896 208.286C166.32 208.043 166.469 207.476 166.768 207.116C167.244 206.534 167.803 206.467 168.522 206.459C170.051 206.443 171.584 206.503 173.112 206.545C175.356 206.608 177.597 206.698 179.838 206.816C180.517 206.852 181.192 206.889 181.87 206.932C185.13 207.125 188.387 207.38 191.636 207.692C194.511 207.969 197.386 208.418 200.264 208.634C196.368 217.92 192.048 227.036 187.156 235.836C187.106 235.926 187.07 236.014 187.046 236.103ZM165.429 260.026C164.8 260.315 164.191 260.673 163.623 261.083C163.718 260.445 163.741 259.773 163.714 259.099C164.183 259.601 164.783 259.891 165.429 260.026ZM192.254 244.052C192.21 244.058 192.168 244.082 192.147 244.126C191.278 245.925 191.641 247.935 193.062 249.344C193.805 250.08 195.425 250.911 195.373 252.118C195.328 253.096 194.269 253.916 193.814 254.722C193.393 255.473 193.236 256.298 193.574 257.112C194.006 258.156 195.213 258.571 195.626 259.595C196.151 260.895 195.3 262.463 194.702 263.595C194.148 264.643 193.429 265.691 192.953 266.799C189.762 268.457 182.52 271.468 181.648 271.636C180.584 271.843 179.519 272.04 178.45 272.224C176.401 272.58 174.345 272.912 172.284 273.204C171.111 273.369 169.936 273.533 168.76 273.66C167.734 273.771 166.576 273.921 165.749 273.146C164.081 271.581 165.016 268.956 166.072 267.376C166.092 267.344 166.092 267.314 166.084 267.288C167.079 267.055 168.072 266.782 169.061 266.59C170.965 266.222 172.881 265.913 174.801 265.636C178.744 265.072 182.714 264.698 186.677 264.322C187.659 264.228 187.67 262.678 186.677 262.771C180.982 263.293 175.258 263.789 169.64 264.889C168.231 265.163 166.832 265.473 165.443 265.823C164.786 265.985 164.081 266.241 163.392 266.249C163.35 266.249 163.309 266.249 163.267 266.246C161.918 266.203 161.722 265.045 162.464 264.082C162.555 263.962 162.649 263.844 162.746 263.731C164.055 262.166 165.687 261.121 167.367 260.038C169.249 259.781 171.127 259.209 172.97 258.787C177.521 257.747 182.072 256.708 186.625 255.67C187.518 255.465 187.139 254.089 186.245 254.291C182.789 255.077 179.333 255.861 175.876 256.647L170.817 257.797C169.807 258.027 168.545 258.486 167.357 258.652C166.769 258.732 166.202 258.743 165.688 258.622C164.032 258.23 163.947 256.15 164.662 254.917C165.463 253.529 166.977 252.662 168.32 251.878C170.648 250.514 173.124 249.535 175.544 248.405C175.974 248.31 176.403 248.216 176.833 248.12C179.33 247.569 182.184 247.298 184.535 246.288C185.241 245.988 184.855 244.874 184.159 244.889C182.333 244.93 180.426 245.581 178.642 245.967C176.712 246.387 174.779 246.805 172.849 247.223C172.656 247.264 171.509 247.632 171.336 247.551C171.226 247.498 171.187 247.115 171.151 246.863C171.033 246.033 170.946 245.161 171.075 244.328C171.358 242.46 172.911 241.583 174.481 240.866C177.979 239.271 181.815 238.273 185.633 237.874C186.512 237.782 187.392 237.725 188.277 237.695C189.317 237.664 190.173 237.48 190.7 238.508C191.526 240.125 191.982 242.205 192.254 244.052ZM187.397 302.718C186.634 300.075 186.842 297.251 186.32 294.553C186.05 293.162 185.682 291.781 185.28 290.423C184.956 289.324 184.415 288.158 184.354 287.013C184.351 286.936 184.441 286.892 184.502 286.926C185.578 287.545 186.403 288.88 187.016 289.928C187.75 291.183 188.311 292.496 188.764 293.877C189.664 296.629 190.404 299.946 189.243 302.718C188.897 303.545 187.681 303.71 187.397 302.718ZM157.65 322.739C156.514 321.944 155.686 320.832 154.722 319.85C153.776 318.885 155.257 317.4 156.204 318.365C157.026 319.201 157.74 320.246 158.708 320.924C159.173 321.249 159.388 321.838 159.083 322.362C158.813 322.824 158.114 323.064 157.65 322.739ZM151.315 292.177C153.39 291.278 155.428 290.299 157.598 289.651C158.896 289.263 159.445 291.292 158.156 291.677C156.157 292.274 154.282 293.163 152.373 293.992C151.147 294.523 150.082 292.712 151.315 292.177ZM129.419 291.548C128.911 290.292 130.938 289.752 131.438 290.989C132.013 292.414 132.673 293.801 133.248 295.225C133.754 296.481 131.727 297.021 131.227 295.785C130.652 294.359 129.994 292.972 129.419 291.548ZM107.805 316.612C107.468 317.064 106.905 317.308 106.372 316.989C105.927 316.721 105.655 316.008 105.997 315.551C106.995 314.217 108.007 312.898 109.177 311.707C110.125 310.742 111.606 312.23 110.658 313.194C109.613 314.256 108.697 315.419 107.805 316.612ZM104.715 175.98C105.676 176.638 106.519 177.438 107.34 178.262C108.295 179.219 106.813 180.705 105.859 179.748C105.167 179.054 104.468 178.35 103.658 177.794C103.189 177.473 102.979 176.876 103.282 176.356C103.553 175.89 104.248 175.659 104.715 175.98ZM136.159 209.795C135.615 210.887 135.126 211.957 135.095 213.199C135.062 214.55 132.967 214.55 133.001 213.199C133.041 211.574 133.638 210.166 134.35 208.734C134.953 207.523 136.759 208.588 136.159 209.795ZM147.695 182.637C148.822 181.884 149.868 183.704 148.752 184.45C147.847 185.055 146.942 185.662 146.038 186.267C144.912 187.02 143.865 185.198 144.981 184.452C145.886 183.847 146.79 183.242 147.695 182.637ZM97.6553 230.121C97.4631 231.456 95.4449 230.884 95.6352 229.563C95.9298 227.518 96.2892 225.5 96.8421 223.509C97.2038 222.207 99.224 222.764 98.8617 224.069C98.3091 226.06 97.9497 228.076 97.6553 230.121ZM90.3106 254.192C88.9624 254.164 88.9621 252.062 90.3106 252.091C91.5307 252.117 92.7302 252.439 93.907 252.734C95.2162 253.061 94.658 255.088 93.3501 254.76C92.3552 254.51 91.3422 254.214 90.3106 254.192ZM87.6002 302.682C87.1371 302.908 86.6619 303.111 86.1936 303.326C85.2561 303.757 84.319 304.187 83.3821 304.618C81.4305 305.517 79.4798 306.419 77.5308 307.324C73.6295 309.136 69.6981 310.883 65.7873 312.675C61.7992 314.503 57.8218 316.355 53.8491 318.216C51.9777 319.093 50.0919 319.937 48.2097 320.79C46.6006 321.521 44.6114 322.797 42.8449 322.916C42.7539 322.923 42.7236 322.808 42.7754 322.748C43.4428 321.986 44.5075 321.544 45.3845 321.049C46.2806 320.543 47.1933 320.067 48.1019 319.585C49.996 318.577 51.8925 317.58 53.805 316.608C57.6304 314.666 61.4631 312.738 65.2966 310.813C69.2064 308.848 73.1111 306.871 77.0552 304.976C78.912 304.085 80.7708 303.196 82.6306 302.309C83.6382 301.829 84.6462 301.349 85.6543 300.872C86.0897 300.664 86.5208 300.441 86.9658 300.257C87.5573 300.01 88.0069 300.061 88.617 299.91C89.6119 299.663 90.0426 300.933 89.2789 301.486C88.65 301.94 88.319 302.33 87.6002 302.682ZM73.6164 324.228C73.4015 323.705 73.8515 323.067 74.348 322.937C74.9426 322.78 75.4194 323.141 75.6364 323.671C76.2106 325.071 77.0286 326.358 78.0815 327.444C79.0225 328.413 77.5421 329.9 76.6002 328.929C75.2808 327.568 74.333 325.978 73.6164 324.228ZM63.3288 290.498C62.3738 289.541 63.8552 288.055 64.8099 289.013L67.5246 291.737C68.4796 292.694 66.9979 294.18 66.0433 293.222L63.3288 290.498ZM35.4764 286.059C33.5246 286.632 31.2483 287.16 29.9176 288.831C29.8527 288.913 29.7435 288.807 29.7826 288.727C31.4861 285.184 36.3713 283.94 39.7538 282.701C42.146 281.822 44.6008 281.093 47.0762 280.444C46.8287 277.611 47.5111 274.574 47.7484 271.755C48.0015 268.746 48.2075 265.727 48.3133 262.708C48.4216 259.628 48.4477 256.528 48.3466 253.448C48.2461 250.378 47.8489 247.347 47.675 244.287C47.6583 243.992 48.0688 243.978 48.1573 244.221C49.1853 247.061 49.6244 250.206 49.959 253.198C50.3036 256.282 50.418 259.356 50.374 262.458C50.3284 265.647 50.1436 268.828 49.8898 272.007C49.7698 273.514 49.6302 275.018 49.4985 276.523C49.3979 277.672 49.3513 278.813 49.1177 279.924C50.6107 279.558 52.1072 279.209 53.5988 278.871C58.3552 277.794 63.1317 276.795 67.8683 275.631C70.1933 275.06 72.4851 274.375 74.7998 273.767C76.9792 273.195 79.2797 272.5 81.5175 272.246C82.316 272.154 82.4177 273.25 81.889 273.622C80.0703 274.903 77.6548 275.796 75.5542 276.512C73.4459 277.232 71.2543 277.749 69.0934 278.282C64.5869 279.394 60.0378 280.303 55.4956 281.25C50.9595 282.196 46.4148 283.134 41.9298 284.302C39.77 284.865 37.6174 285.429 35.4764 286.059ZM24.7822 229.841C23.616 230.528 22.5631 228.711 23.725 228.026C25.2456 227.13 26.8661 226.457 28.4997 225.802C29.7534 225.299 30.2927 227.331 29.0566 227.828C27.5885 228.417 26.1484 229.036 24.7822 229.841ZM20.5585 307.91C19.3892 308.591 18.3355 306.774 19.5014 306.097C21.139 305.144 22.9322 304.51 24.6293 303.675C25.8365 303.083 26.8969 304.896 25.6862 305.49C23.9895 306.323 22.196 306.958 20.5585 307.91ZM18.6595 263.595C19.7902 264.673 21.2991 265.179 22.722 265.744C23.9625 266.238 23.4184 268.27 22.165 267.772C20.3924 267.066 18.5868 266.422 17.1784 265.08C16.1986 264.146 17.6824 262.663 18.6595 263.595ZM31.168 203.41C32.4109 203.899 31.8665 205.931 30.6111 205.436C29.2186 204.887 27.7805 204.471 26.3882 203.922C25.1455 203.434 25.6895 201.403 26.9451 201.897C28.3375 202.444 29.7755 202.862 31.168 203.41ZM53.2334 179.505C54.5541 179.282 55.1165 181.306 53.7904 181.53C52.145 181.81 50.5248 182.136 48.9642 182.742C47.704 183.231 47.1633 181.197 48.4073 180.715C49.9681 180.11 51.5883 179.783 53.2334 179.505ZM60.524 237.708C59.313 237.11 60.3756 235.3 61.5811 235.894C62.8515 236.52 64.1678 237.005 65.554 237.301C66.8739 237.583 66.3117 239.608 64.997 239.328C63.437 238.993 61.9526 238.413 60.524 237.708ZM67.4097 204.923C68.7136 204.565 69.265 206.592 67.9667 206.949C65.6822 207.578 63.33 207.903 61.0288 208.462C59.7172 208.781 59.1625 206.754 60.4718 206.437C62.7731 205.877 65.1254 205.551 67.4097 204.923ZM96.6218 194.635C97.9476 194.88 97.3827 196.906 96.065 196.661C94.6624 196.4 93.2409 196.397 91.8189 196.395C90.4688 196.395 90.4712 194.294 91.8189 194.294C93.4343 194.296 95.0292 194.338 96.6218 194.635ZM191.893 205.613C188.471 205.285 185.044 205.022 181.61 204.824C181.45 204.817 181.295 204.806 181.134 204.798C181.115 204.762 181.092 204.727 181.068 204.691C179.948 203.041 179.123 201.391 178.409 199.527C177.726 197.751 177.063 195.921 176.01 194.318C174.809 192.492 173.189 191.063 171.413 189.826C170.335 190.552 169.336 191.404 168.421 192.306C167.458 193.255 165.976 191.769 166.939 190.819C167.752 190.018 168.621 189.278 169.537 188.608C168.478 187.963 167.398 187.356 166.344 186.752C162.391 184.491 158.346 182.399 154.218 180.489C152.298 179.598 150.355 178.807 148.4 178.006C147.347 177.575 146.307 177.02 145.254 176.522C145.331 175.776 145.108 174.94 144.538 174.449C144.117 174.09 143.788 173.954 143.287 173.7C143.174 173.661 143.106 173.637 143.075 173.624C143.098 173.629 143.166 173.651 143.277 173.687C143.545 173.811 143.567 173.774 143.342 173.579C143.328 173.155 142.493 172.256 142.301 171.817C141.637 170.312 141.429 168.72 140.447 167.349C139.094 165.461 136.822 164.746 134.703 165.387C134.483 163.114 134.425 160.743 133.572 158.714C133.548 158.659 133.473 158.636 133.438 158.697C132.549 160.218 132.472 161.912 132.404 163.666C132.338 165.313 132.401 166.997 132.616 168.633C132.48 168.739 132.341 168.839 132.197 168.935C131.521 169.381 130.794 169.726 130.03 169.982C128.573 170.464 127.047 170.675 125.521 170.749C121.58 170.937 117.519 170.538 113.644 169.861C109.725 169.174 103.715 168.145 100.227 166.177C97.9255 164.881 95.8022 163.297 93.6498 161.761C94.4302 159.241 94.6293 156.53 93.8437 154.399C93.7494 154.144 93.3515 154.097 93.2756 154.399C92.7833 156.432 92.6393 158.475 91.9846 160.485C91.9743 160.514 91.9637 160.547 91.9532 160.575C91.7491 160.435 91.5448 160.298 91.3407 160.162C90.8692 159.849 90.2277 160.083 89.945 160.529C85.423 167.678 78.2619 168.086 70.7421 169.364C62.5122 170.761 54.2412 172.268 46.3285 175.003C38.7616 177.619 31.5296 181.428 25.8006 187.119C24.5039 188.406 23.291 189.779 22.1463 191.211C23.2539 191.351 24.3522 191.569 25.4365 191.912C26.7203 192.316 26.1685 194.344 24.8796 193.937C23.486 193.499 22.0772 193.28 20.6537 193.174C16.761 198.515 13.7259 204.573 11.1014 210.535C6.06697 221.966 2.79013 234.14 1.28214 246.536C2.11015 246.038 2.95294 245.563 3.81678 245.123C5.01707 244.511 6.07562 246.324 4.87407 246.937C3.53973 247.619 2.24373 248.369 0.98796 249.183C0.439357 254.607 0.226738 260.068 0.355599 265.52C0.66188 278.517 2.41093 291.895 6.36728 304.296C8.30743 310.382 10.8787 316.418 14.7093 321.562C16.4426 323.892 18.4117 325.993 20.7315 327.745C21.8548 328.596 23.0436 329.355 24.2978 329.996C25.9133 330.826 28.0185 331.099 29.4114 332.273C29.8697 332.659 30.2231 333.169 30.4901 333.744C30.3356 334.837 30.3174 335.933 30.6158 337.025C30.7101 337.368 30.9667 337.646 31.2835 337.779C31.2887 337.874 31.2887 337.965 31.2887 338.054C31.2887 338.097 31.3516 338.108 31.3594 338.065C31.3725 337.984 31.3857 337.902 31.3987 337.819C31.5009 337.853 31.6082 337.869 31.7182 337.869C35.6954 337.883 39.6777 337.786 43.6602 337.65C43.3523 336.704 43.0187 335.766 42.6984 334.82C42.2636 333.535 44.2873 332.988 44.7182 334.261C45.093 335.367 45.4846 336.464 45.8332 337.575C50.1002 337.415 54.3662 337.225 58.6244 337.083C67.6811 336.781 76.7355 336.681 85.7946 336.489C99.8633 336.191 114.034 335.578 128.125 336.176C128.612 335.139 129.158 334.126 129.675 333.103C130.284 331.894 132.092 332.96 131.483 334.163C131.124 334.874 130.751 335.576 130.398 336.286C133.251 336.434 136.102 336.631 138.948 336.899C143.802 337.357 148.609 338.167 153.459 338.672C158.389 339.187 163.212 339.095 168.102 338.279C168.982 338.131 169.501 337.597 169.716 336.935C169.724 336.934 169.728 336.928 169.733 336.92C169.985 336.626 170.22 336.382 170.464 336.169C170.755 335.98 171.069 335.82 171.438 335.678C172.127 335.414 172.845 335.254 173.572 335.147C174.374 335.026 175.185 335.015 175.986 334.916C176.662 334.83 177.322 334.701 177.982 334.544C179.168 334.259 180.293 333.888 181.414 333.398C182.391 332.969 183.273 332.355 184.106 331.685C185.828 330.422 187.321 328.809 188.625 327.133C189.384 326.154 190.1 325.137 190.749 324.078C191.88 322.245 192.843 320.341 193.818 318.42C194.171 317.851 194.493 317.268 194.789 316.673C192.884 316.11 190.964 315.653 188.944 315.62C187.596 315.598 187.596 313.497 188.944 313.519C191.259 313.555 193.448 314.097 195.623 314.745C195.73 314.462 195.831 314.177 195.925 313.888C196.184 313.288 196.4 312.67 196.577 312.045C196.682 311.762 196.786 311.477 196.891 311.193C197.127 310.211 197.363 309.227 197.602 308.242C198.075 306.666 198.449 305.066 198.724 303.446C198.955 302.379 199.132 301.304 199.253 300.216C199.62 297.582 199.918 294.953 199.939 292.29C199.907 290.648 199.803 289.008 199.626 287.377C199.549 286.269 199.422 285.166 199.249 284.071C199.022 282.441 198.801 280.829 198.425 279.221C198.145 278.134 197.866 277.046 197.586 275.959C196.887 273.693 196.062 271.469 195.111 269.297C195.059 269.161 194.794 268.862 194.635 268.859C194.514 268.856 194.346 268.966 194.401 269.114C194.407 269.126 194.412 269.142 194.418 269.156C194.363 269.032 194.31 268.906 194.255 268.782C194.207 268.667 194.025 268.436 193.884 268.439C193.876 268.439 193.866 268.439 193.857 268.441C193.893 268.416 193.928 268.381 193.962 268.342C194.902 267.225 195.512 265.757 196.184 264.464C196.742 263.398 197.269 262.273 197.421 261.068C197.553 260.01 197.374 258.967 196.711 258.11C195.956 257.136 194.537 256.678 195.326 255.27C196.222 253.669 197.539 252.278 196.227 250.459C195.559 249.531 194.501 249.022 193.715 248.216C192.812 247.283 192.383 246.035 192.406 244.762C192.461 244.793 192.535 244.778 192.56 244.698C193.319 242.397 192.769 239.87 191.993 237.629C191.569 236.414 190.67 236.08 189.625 236.02C194.149 227.155 198.384 218.147 202.157 208.932C202.283 208.631 202.406 208.329 202.528 208.027C202.712 207.575 202.324 206.973 201.876 206.874C198.614 206.156 195.216 205.928 191.893 205.613Z" fill="black"/>
<path fill-rule="evenodd" clip-rule="evenodd" d="M156.806 104.005C155.013 82.0257 149.552 62.5591 123.893 61.729C112.315 61.833 100.494 64.3061 89.8454 68.8819C63.9638 81.9277 55.7521 129.598 78.5544 148.787C78.4188 148.864 78.3862 149.089 78.5464 149.197C83.2573 152.383 88.4937 155.005 93.7381 157.207C107.708 163.144 124.153 165.724 138.4 159.283C160.142 149.983 160.468 124.103 156.806 104.005Z" fill="#D08B5B"/>
<path fill-rule="evenodd" clip-rule="evenodd" d="M199.604 93.7612C200.496 92.9522 201.163 91.891 201.501 90.7011C201.809 89.6163 201.829 88.4317 201.502 87.3494C201.153 86.1884 200.397 85.2638 200.567 84.0555C200.586 83.9373 200.61 83.8139 200.646 83.6904C201.299 81.4157 202.905 79.774 202.332 77.2522C202.168 76.5405 201.864 75.8995 201.438 75.3952C201.485 74.8488 201.526 74.2972 201.56 73.7456C202.503 71.5261 202.47 68.8888 201.464 66.7034C201.34 65.5843 201.155 64.476 200.894 63.3858C201.015 62.4217 200.847 61.3607 200.539 60.5174C199.997 59.0338 199.327 57.5718 198.601 56.1339C198.686 55.7407 198.648 55.3251 198.433 54.9556C198.04 54.284 197.522 53.6934 196.992 53.1164C196.616 52.4432 196.239 51.7754 195.864 51.1164C195.691 50.8135 195.499 50.4776 195.289 50.1216C195.864 49.0483 196.17 48.0023 195.562 46.7403C195.334 46.2662 194.706 45.9165 194.187 45.9475C193.621 45.9814 193.051 46.0069 192.477 46.0287C191.404 44.7263 190.189 43.5571 188.886 42.8842C187.566 41.7599 186.229 40.6568 184.928 39.5299C184.558 39.2094 184.188 38.8889 183.82 38.5684C183.817 38.5606 183.814 38.55 183.812 38.5422C183.54 37.5467 183.234 36.5643 182.929 35.5766C182.737 34.9646 182.681 34.3237 182.087 33.9901C180.848 33.2939 178.944 33.1836 177.523 33.0654C177.382 32.9394 177.24 32.8159 177.099 32.6898C177.745 30.9614 177.63 29.1254 176.817 27.3943C176.539 26.8059 175.579 26.5407 175.051 26.9294C173.833 27.8277 172.387 28.1456 170.959 28.0142C168.858 26.3909 160.384 19.0502 159.075 18.2755C159.06 18.2475 159.046 18.2197 159.03 18.1922C158.293 17.0106 157.399 16.0619 156.394 15.3011C156.251 15.1506 156.107 14.9999 155.964 14.849C156.09 13.9484 156.423 13.0788 156.957 12.351C157.014 12.2671 157.08 12.1855 157.146 12.1068C158.081 10.9877 156.938 9.54843 155.632 10.1341C155.538 10.1761 155.444 10.2182 155.349 10.2628C154.345 10.7131 153.234 11.2024 152.078 11.6154C151.653 11.4559 151.221 11.3115 150.828 11.1523L146.612 9.44833C145.917 9.16782 145.185 8.93005 144.513 8.60036C144.278 7.03517 142.719 6.00852 141.098 6.06211C141.192 5.76164 141.332 5.46982 141.528 5.19324C141.585 5.11184 141.648 5.03295 141.714 4.95689C142.547 3.98226 141.434 2.17506 140.243 3.04189C140.16 3.10239 140.073 3.16273 139.99 3.22323C139.658 3.45676 139.319 3.67582 138.976 3.88797C138.428 3.64738 137.81 3.59253 137.164 3.84711C135.733 4.41049 134.413 4.98329 133.154 5.86646C133.102 5.90245 133.049 5.93262 132.997 5.96656C132.371 5.20691 131.378 4.69885 130.484 4.70435C130.467 4.70435 130.453 4.7042 130.435 4.70388C129.767 3.67975 128.542 3.08447 127.358 3.22921C127.438 1.75956 125.974 0.448006 124.641 0.288658C123.085 0.102642 121.682 1.01122 121.215 2.53791C121.085 2.96284 120.955 3.38808 120.824 3.81348C119.616 3.20013 118.341 2.73011 117.009 2.49564C113.974 1.96134 111.007 2.53021 108.083 3.37708C107.791 3.46163 107.499 3.54869 107.207 3.63528C106.79 3.14969 106.399 2.65247 106.025 2.18826C105.38 1.38712 103.83 2.02797 103.935 3.05776C104.007 3.76822 103.72 4.27942 103.258 4.64275C102.75 4.71724 102.26 4.73987 101.52 4.72494C100.542 4.70498 100.097 4.67418 99.0741 4.2733C98.5976 4.08692 98.0042 3.59646 97.7264 3.15613C96.6617 1.46805 93.9572 1.01327 92.669 2.62293C91.3135 2.0264 89.6021 2.84907 88.8495 4.00913C88.4559 4.61556 87.6343 4.95469 86.6003 5.24635C85.824 5.46479 85.0302 5.63027 84.2327 5.775C83.8774 5.29036 83.1291 4.96553 82.5801 5.37191C82.2083 5.64787 81.8472 5.93136 81.4911 6.22193C78.7451 6.60222 76.0133 6.6159 73.395 5.53943C71.1783 4.62798 69.1429 7.11735 69.5088 9.20711C68.8666 9.54309 68.1702 9.76671 67.5361 10.1186C66.1525 10.8872 65.0165 12.1021 64.3241 13.5295C64.2 13.785 64.0879 14.0446 63.9811 14.3053C63.4639 14.7285 62.9525 15.163 62.4536 15.6214C61.6226 15.1932 60.7944 14.7651 59.9636 14.3369C59.3416 14.0165 58.2939 14.2398 58.1712 15.0698C57.9699 16.4356 57.4813 17.5678 56.7837 18.5161C54.5158 19.7138 52.3341 21.0587 50.2464 22.5533C47.8453 23.3099 45.2924 23.7511 43.1944 24.2476C42.4759 24.4182 42.084 25.3613 42.4889 25.9891C42.9175 26.6536 43.346 27.3182 43.7719 27.9828C42.5777 29.1543 41.4569 30.3784 40.3987 31.6443C37.4541 35.1641 34.9902 39.0229 32.7849 43.11C31.9123 43.4647 31.0396 43.8167 30.1668 44.1712C29.3256 44.5127 28.9467 45.4952 29.6286 46.2174C29.9526 46.5616 30.2426 46.9241 30.4909 47.3049C29.255 49.3616 27.7997 51.2372 25.7642 52.4664C25.145 52.8395 24.6798 53.4252 24.4317 54.0898C24.22 54.2317 24.011 54.3839 23.8047 54.539C23.2298 54.975 22.8822 55.9259 23.5564 56.4907C24.0293 56.89 24.4735 57.3627 24.8497 57.8855C24.9308 58.1822 25.0144 58.4817 25.098 58.7786C23.2063 60.5279 21.6334 62.561 20.4524 64.841C20.1729 64.7964 19.8854 64.8253 19.6529 64.9986C17.5417 66.5668 17.479 69.0648 18.3281 71.2974C17.8161 74.6623 18.1452 78.1112 19.1329 81.3711C17.8343 82.6738 17.0532 84.5546 16.7343 86.3671C16.1725 89.5506 16.1334 94.4468 15.9871 97.6962C14.5709 99.07 13.5623 100.848 13.0006 102.76C12.5276 102.997 12.0548 103.233 11.5819 103.47C11.1612 103.68 10.8529 104.234 10.879 104.702C10.9992 106.963 11.9267 108.749 13.1573 110.367C13.5937 111.615 14.2391 112.766 15.0857 113.869C15.6709 114.625 16.2431 115.35 16.7473 116.167C16.7997 116.249 16.8309 116.325 16.8545 116.377C16.6559 116.593 16.4914 116.95 16.3476 117.205C15.1405 119.343 15.1223 121.849 16.8363 123.711C16.1909 124.242 16.17 125.313 16.7395 125.97C20.4471 130.228 23.5382 135.406 28.6827 137.667C28.7063 137.706 28.7272 137.746 28.7454 137.785C27.7029 140.307 27.5619 141.618 28.4137 144.224C28.4189 144.248 28.4267 144.268 28.4346 144.292C28.8892 145.657 29.7252 147.846 31.2329 148.271C31.7084 148.406 32.1761 148.465 32.6386 148.462C33.8353 149.622 35.0293 150.782 36.2235 151.943C36.328 152.518 36.3932 153.1 36.4141 153.684C36.448 154.665 37.3651 155.458 38.3528 155.169C38.7004 155.067 40.6234 153.188 40.9761 153.199C41.1538 153.378 41.3262 153.555 41.4987 153.738C42.1336 154.407 43.0141 155.463 43.0873 156.164C43.2283 157.486 44.0906 158.999 45.4832 159.266C46.0057 159.8 46.8419 159.961 47.482 159.265C47.5238 159.219 47.5656 159.175 47.6101 159.136C47.6779 159.128 47.7433 159.12 47.8112 159.112C48.1195 160.036 48.4279 160.96 48.7389 161.883C49.3476 163.701 51.673 164.87 53.3243 163.808C53.5908 163.968 53.8521 164.139 54.1135 164.311C54.5106 164.565 54.9129 164.825 55.3257 165.07C55.3493 165.137 55.3728 165.206 55.3937 165.271C55.6603 166.088 56.768 166.526 57.45 166.057C57.6617 166.126 57.8786 166.181 58.0979 166.225C59.2501 166.454 60.4104 166.39 61.5234 166.005C62.3203 165.731 63.0806 165.208 63.9377 165.137C63.9911 165.133 64.0463 165.137 64.1007 165.136C64.7998 166.575 66.3975 167.817 67.6568 168.238C69.3059 168.789 70.9938 168.593 72.4957 167.916C72.9009 168.731 73.4099 169.501 74.0179 170.215C74.355 170.609 74.9638 170.524 75.3113 170.215C75.9713 169.627 76.6271 169.036 77.2819 168.444C77.7559 168.26 78.2342 168.04 78.7333 167.835C80.2941 167.194 82.0053 166.929 83.4489 166.003C84.1342 165.563 84.7788 165.002 85.3098 164.351C86.3099 163.772 87.2289 163.047 88.0566 162.219C88.4694 162.222 88.9006 162.125 89.3186 161.911C91.0666 161.018 91.9864 159.202 92.0673 157.341C93.4835 153.992 94.3195 150.42 94.5495 146.764C94.6227 145.563 94.6357 144.351 94.5443 143.152C94.4816 142.305 94.2699 141.741 93.9512 140.977C93.844 140.727 93.7474 140.499 93.6716 140.246C93.6899 139.437 93.7004 138.628 93.7108 137.822C93.9276 137.142 94.3144 136.509 94.8526 135.975C95.6861 135.151 96.0675 133.438 95.3099 132.419C94.816 131.76 94.3247 131.1 93.831 130.441C93.9694 127.612 94.6436 123.11 93.1489 122.637C93.2091 122.217 93.3372 121.802 93.4103 121.384C93.7604 119.377 93.5514 117.583 92.4905 115.828C92.2685 115.463 92.0803 115.14 91.9262 114.825C91.8295 114.247 91.7329 113.669 91.6362 113.091C91.4873 112.201 91.341 111.303 91.2156 110.399C91.1502 109.248 91.0902 108.098 91.0248 106.945C90.9648 105.884 90.8967 104.822 90.8262 103.759C90.8549 103.283 90.8967 102.808 90.9569 102.332C91.3149 99.498 92.4671 98.45 94.4633 96.4799C94.7768 96.4301 95.0877 96.3749 95.3935 96.3119C96.8174 96.015 98.3067 95.5554 99.7726 95.7208C101.364 95.8994 102.788 96.5903 104.335 95.7076C104.789 95.4451 105.79 94.72 105.876 94.1448C105.881 94.108 105.889 94.0765 105.9 94.0529C106.007 94.0372 106.145 94.024 106.232 94.0213C107.459 93.9793 108.633 94.4652 109.871 94.3313C111.337 94.1737 112.649 93.5197 113.51 92.5504C114.617 92.8235 115.745 92.947 116.892 92.7946C117.854 92.6686 118.715 92.3533 119.567 91.8858C120.186 91.5495 119.991 91.4524 120.665 91.7255C122.199 92.3507 123.585 93.1755 125.312 92.7473C126.21 92.5267 126.983 92.0408 127.633 91.3867C127.787 91.2344 128.048 91.0058 128.224 90.7905C129.044 91.208 131.108 92.1511 131.447 92.2352C132.409 92.4715 133.429 92.4347 134.364 92.1196C135.051 91.8885 135.893 91.258 136.496 91.1293C137.277 90.9612 139.012 92.054 139.944 92.4296C141.58 93.0888 143.312 93.2517 144.97 92.5715C145.539 92.3376 146.647 91.4051 147.072 91.413C147.765 92.2719 149.698 96.9711 150.278 98.6864C152.628 105.621 153.236 127.273 152.151 132.797C152.111 132.96 152.065 133.12 152.021 133.283C150.688 138.087 149.301 142.973 147.072 147.449C144.97 151.668 142.061 155.466 137.889 157.77C133.561 160.16 128.482 160.787 123.617 160.464C120.485 160.259 117.405 159.626 114.373 158.832C112.789 158.421 111.219 157.962 109.657 157.483C108.975 157.275 108.282 157.082 107.614 156.84C106.433 156.411 105.813 156.378 104.682 156.926C103.653 157.426 103.389 158.898 103.924 159.826C104.797 161.339 106.396 161.444 107.94 161.886C109.513 162.335 111.092 162.766 112.679 163.151C115.723 163.886 118.817 164.452 121.937 164.711C127.523 165.183 133.28 164.457 138.363 162.007C138.938 161.727 139.493 161.432 140.029 161.111C139.83 161.389 139.628 161.667 139.424 161.944C138.86 162.708 139.278 164.007 140.07 164.425C140.321 164.557 140.571 164.683 140.826 164.806C140.859 164.887 140.897 164.969 140.937 165.051C141.662 166.511 143.177 167.373 144.722 167.746C146.555 168.187 148.609 167.875 150.475 167.82C152.203 167.766 153.934 167.714 155.661 167.661C156.069 167.652 156.476 167.637 156.883 167.625C158.937 167.562 160.988 167.501 163.04 167.438C164.868 167.383 164.783 167.526 166.499 166.789C167.264 166.459 167.891 165.991 168.419 165.368C168.748 165.222 169.067 165.054 169.373 164.862C170.355 164.246 171.228 163.423 172.032 162.513C173.399 162.947 175.315 162.544 175.581 160.819C176.01 158.058 179.578 156.879 181.246 154.883C182.591 153.273 183.553 151.164 183.502 149.138C186.895 147.488 188.739 143.141 189.171 139.453C189.372 137.743 189.34 135.912 189.63 134.173C189.758 134.034 189.873 133.887 189.971 133.73C190.822 132.345 191.564 130.919 192.216 129.459C193.106 128.815 194.174 128.418 195.292 128.353C198.04 128.192 198.559 124.465 195.938 123.567C195.925 123.561 195.914 123.559 195.901 123.554C196.612 121.767 196.552 119.653 195.689 117.961C195.725 117.777 195.76 117.596 195.795 117.412C197.265 115.823 198.109 113.614 198.015 111.463C198.686 110.987 199.439 110.62 200.262 110.391C201.534 110.039 201.541 108.479 200.602 107.78C200.223 107.499 199.909 107.171 199.648 106.808C200.298 104.843 200.042 102.571 198.713 100.959C199.557 99.8711 200.401 98.7837 201.244 97.6962C201.804 96.9765 202.099 95.7549 201.244 95.072C200.698 94.6334 200.152 94.1973 199.604 93.7612Z" fill="black"/>
<path fill-rule="evenodd" clip-rule="evenodd" d="M138.186 134.579C139.085 132.989 141.764 133.247 142.174 135.102C143.006 138.862 138.536 142.334 135.142 142.42C131.77 142.506 127.984 139.626 128.473 135.988C128.594 135.088 129.791 135.197 130.2 135.762L130.358 135.978C131.468 137.473 132.931 139.021 134.991 138.656C135.844 138.506 136.619 137.971 137.135 137.282C137.757 136.452 137.689 135.459 138.186 134.579ZM116.737 107.072C117.194 106.945 117.655 106.994 118.06 107.167C118.964 107.333 119.719 108.09 119.985 108.954C120.005 109.028 120.029 109.102 120.056 109.175L120.095 109.284L119.987 109.007C120.037 109.28 120.258 109.567 120.339 109.84C120.436 110.177 120.46 110.559 120.427 110.929C120.714 110.932 121.002 110.942 121.289 110.967L121.566 110.992C123.117 111.136 124.819 111.402 125.738 112.746C126.255 113.502 125.771 114.862 124.822 115.007C123.362 115.231 122.103 114.421 120.648 114.258C119.273 114.105 117.834 114.193 116.476 114.442C113.672 114.956 111.095 116.096 108.364 116.811L107.992 116.906L107.993 116.904C107.524 117.018 106.993 116.365 107.456 115.983C109.645 114.179 112.447 112.717 115.208 111.827C114.805 111.185 114.681 110.34 114.956 109.651C114.999 109.508 115.051 109.369 115.107 109.231L115.223 108.946C115.234 108.812 115.26 108.679 115.297 108.549L115.304 108.51L115.307 108.512C115.513 107.842 116.048 107.262 116.737 107.072ZM144.66 107.175C145.259 106.574 146.1 106.663 146.724 107.136L146.807 107.201C147.396 107.464 147.883 108.037 148.202 108.568C148.536 109.12 148.756 109.682 148.765 110.29C150.214 110.295 151.602 110.731 152.665 111.904C153.01 112.283 153.244 112.867 153.055 113.381L152.942 113.686C152.585 114.656 150.979 115.215 150.432 114.074L150.407 114.018C149.827 112.664 147.602 112.806 146.419 112.945C145.594 113.042 144.778 113.247 143.983 113.478C143.702 113.559 143.424 113.647 143.145 113.737L142.867 113.827C142.72 113.875 141.948 114.296 142.429 114.196C142.558 114.169 142.654 114.358 142.523 114.421C141.95 114.696 141.34 114.149 141.378 113.532C141.444 112.462 143.139 111.875 143.955 111.506L144.003 111.483C144.316 111.338 144.643 111.199 144.981 111.07C144.791 110.787 144.634 110.472 144.503 110.133C144.379 109.814 144.297 109.503 144.252 109.164C144.208 108.998 144.208 108.832 144.252 108.665L144.26 108.618C144.236 108.508 144.225 108.395 144.227 108.28L144.222 108.236H144.227C144.242 107.836 144.401 107.435 144.66 107.175ZM135.095 118.576C137.395 119.289 141.189 121.231 139.99 124.229C138.318 126.981 133.88 124.958 131.729 124.069C129.797 123.427 128.792 126.143 130.658 126.962C146.097 133.089 146.04 116.919 135.656 117.156C134.512 117.182 134.476 118.339 135.095 118.576ZM114.67 97.4924L115.063 97.3775C117.101 96.7852 119.182 95.7624 120.992 97.3583C121.703 97.9851 121.849 99.2875 121.341 100.069C120.181 101.85 118.464 101.578 116.594 101.73C115.168 101.846 113.765 102.265 112.436 102.79C111.35 103.219 110.342 103.823 109.39 104.496C108.456 105.159 107.817 106.194 106.858 106.79C106.507 107.008 106.101 106.783 105.975 106.429C105.527 105.172 106.283 103.606 106.923 102.535C107.703 101.229 108.889 100.16 110.163 99.3518C111.56 98.4664 113.104 97.955 114.67 97.4924ZM144.373 96.1401C147.817 96.139 151.133 98.0616 153.06 100.88C153.715 101.837 153.236 103.256 152.296 103.807C151.242 104.426 150.113 103.98 149.419 103.093L149.378 103.04C148.272 101.563 146.848 100.4 145.159 99.6433C144.335 99.2738 143.424 98.974 142.533 98.822L142.245 98.7725C141.841 98.7046 141.373 98.6397 141.007 98.7032C140.812 98.729 140.631 98.7939 140.466 98.8926C140.546 99.067 140.34 99.2771 140.15 99.1726C139.294 98.7009 139.399 97.8593 140.106 97.2053C141.107 96.2798 143.081 96.1403 144.373 96.1401Z" fill="black"/>
<path fill-rule="evenodd" clip-rule="evenodd" d="M136.716 128.797C133.805 127.481 128.575 128.63 126.676 129.086C122.264 130.148 117.824 132.442 116.452 136.037C114.906 140.088 117.991 141.363 118.445 141.155C121.5 141.371 125.138 139.444 128.339 138.947C130.938 138.54 133.68 138.185 136.115 136.799C137.893 137.78 141.909 138.311 145.149 139.169C147.909 139.899 149.104 141.482 151.663 141.146C154.73 140.742 153.475 134.272 150.057 131.651C146.317 128.782 139.99 127.618 136.716 128.797ZM142.481 156.464C139.933 157.086 139.762 151.486 139.478 149.506C139.254 147.961 137.997 143.972 134.809 144.145C131.62 144.317 130.423 147.657 130.583 149.735C130.688 151.082 131.927 157.907 127.976 158.771C125.457 158.762 122.543 158.592 119.895 158.102C116.779 157.393 112.725 154.913 111.655 159.797C111.27 161.554 125 166.775 131.092 167.248C137.271 168.503 144.5 166.572 148.9 161.831C149.9 160.751 152.719 156.274 152.92 155.177C153.343 152.872 152.365 151.388 149.522 152.201C147.514 153.277 144.12 156.063 142.481 156.464Z" fill="black"/>
<path fill-rule="evenodd" clip-rule="evenodd" d="M159.861 120.163C156.682 123.458 151.375 124.404 147.145 122.637C136.286 118.085 141.601 103.887 149.977 100.075C151.023 99.8129 152.42 99.1923 153.695 99.0515C153.809 98.9948 154.061 99.1588 154.364 99.0037C163.6 100.038 165.702 114.42 159.861 120.163ZM124.831 121.006C121.266 125.75 114.637 127.214 109.222 125.009C98.5228 120.782 102.318 108.192 109.638 103.256C125.1 97.4274 131.487 112.259 124.831 121.006ZM101.638 110.495C101.629 110.49 101.618 110.487 101.608 110.483C101.665 110.458 101.721 110.433 101.778 110.407C101.759 110.455 101.739 110.503 101.722 110.551C101.694 110.532 101.67 110.509 101.638 110.495ZM167.22 105.366C166.348 105.368 165.086 105.512 164.365 106.12C162.583 100.091 156.005 94.5107 150.285 98.5794C145.779 100.033 142.437 103.256 140.537 107.541C137.111 105.497 131.724 106.37 128.754 109.073C126.808 102.624 122.02 100.366 116.322 100.033C110.102 99.0108 103.902 105.071 101.967 109.932C100.359 109.749 97.9555 109.235 96.4423 110.231C86.6217 107.647 69.4519 106.223 67.4553 107.658C66.0325 108.206 65.2518 111.575 67.2391 111.757C68.9709 111.51 67.0368 109.288 68.7826 109.046C78.0837 108.467 87.1131 110.347 96.3158 111.135C97.1374 112.244 99.7922 112.615 101.208 112.169C98.9779 120.416 103.793 126.027 111.009 127.708C122.18 130.282 131.9 120.256 128.979 109.828C132.362 108.139 136.254 108.212 139.941 109.101C133.781 131.846 170.296 130.826 164.593 106.899C168.388 108.793 169.211 105.749 167.22 105.366Z" fill="black"/>
</svg>
