<svg width="237" height="356" viewBox="0 0 237 356" fill="none" xmlns="http://www.w3.org/2000/svg">
<path fill-rule="evenodd" clip-rule="evenodd" d="M16.0179 349.647C55.0095 355.567 94.7086 355.865 134.024 353.716C149.584 352.551 165.191 352.342 180.738 353.83C189.925 354.512 230.205 357.591 233.496 349.367C231.426 305.569 227.229 261.4 214.361 219.278C209.067 204.321 204.523 191.908 194.192 179.53C190.937 176.151 183.915 169.064 179.894 166.752C176.408 164.75 174.952 165.465 172.949 162.083C170.961 158.348 169.494 152.108 166.67 149.472C163.795 146.787 159.535 147.748 154.253 148.611C155.224 135.505 149.172 132.168 140.833 129.676C126.178 124.085 111.705 126.894 108.016 144.728C101.176 144.728 97.3346 147.669 93.1813 150.496C91.4834 151.651 92.6646 154.596 90.6365 155.504C86.8845 156.839 80.254 156.513 76.6414 158.157C60.2133 165.63 45.5815 176.467 35.9722 192.293C14.4298 226.085 -0.368396 297.266 2.19229 337.315C1.07035 339.075 2.6219 341.595 3.01616 343.487C3.51395 345.133 5.12601 346.227 6.80838 346.04C9.15596 348.563 12.787 349.126 16.0179 349.647Z" fill="#AE5D29"/>
<path fill-rule="evenodd" clip-rule="evenodd" d="M97.138 147.404C99.5405 144.899 103.308 143.403 106.875 143.487L107.042 143.492L108.253 143.547L107.444 147.515L107.403 147.704L107.238 148.393L107.018 149.295L106.94 149.627L106.858 149.994C106.845 150.053 106.832 150.112 106.82 150.171L106.784 150.344L106.439 152.031L106.503 152.181L106.484 152.563C106.431 153.948 106.729 154.71 107.387 154.954L107.44 154.972L107.815 155.092L108.121 155.756C108.825 157.275 109.483 158.601 110.157 159.85C112.125 163.495 114.473 167.136 117.18 170.796C119.752 174.275 122.431 177.595 125.217 180.747C126.469 182.164 127.793 183.588 129.2 185.036L130.413 186.278L130.799 186.667L131.058 186.926L131.381 187.242L131.847 187.686L132.186 188.02L132.295 188.123C132.432 188.25 132.539 188.338 132.635 188.398L132.671 188.421L132.776 188.484L138.397 194.392L140.382 195.484L141.324 196.005L141.515 195.625L141.554 195.504L143.642 190.918L144.919 188.111C147.535 182.333 149.573 177.738 151.435 173.361L151.667 172.815L152.354 171.185L152.716 170.318C154.382 166.329 155.611 163.252 156.713 160.262L156.868 159.836L157.1 159.197L157.444 158.233L157.507 158.069C157.807 157.303 157.071 154.524 156.349 153L156.308 152.916L156.12 152.538L155.917 152.14C155.438 151.208 155.092 150.171 154.801 148.918C154.753 148.714 154.708 148.511 154.667 148.304L154.607 147.993L154.567 147.79L154.514 147.506L154.437 147.097L156.056 146.826L156.945 146.682L157.332 146.621C157.834 146.544 158.28 146.48 158.701 146.426L158.856 146.407L159.138 146.373L159.149 146.43L159.725 146.485L160.154 146.53C162.267 146.753 163.895 146.999 165.053 147.272L165.167 147.299L165.373 147.353L165.467 147.378C166.52 147.66 167.331 148.272 167.971 149.173C168.412 149.793 168.698 150.385 169.149 151.51L169.312 151.915L169.851 153.244C169.913 153.405 170.01 153.664 170.142 154.021L170.599 155.263L172.887 161.579L175.228 162.811C176.317 163.38 177.113 163.791 177.506 163.984L177.647 164.051L177.745 164.098L178.554 164.417L178.466 164.669L178.564 164.724C188.204 170.268 195.64 178.796 201.428 190.117L201.603 190.462L201.781 190.818C206.395 200.041 209.701 210.332 212.928 224.07L213.126 224.925L213.284 225.605L214.125 229.271C217.286 243.114 219.458 253.437 221.255 263.566L221.373 264.226L221.673 265.947C223.931 279.058 225.821 292.05 227.333 304.915L227.584 307.08C228.215 312.608 228.786 318.321 229.403 325.184L229.487 326.105L229.758 329.187C230.049 332.508 230.313 335.823 230.554 339.128L230.672 340.783L230.913 344.376L231.056 346.425L231.074 346.701L231.131 347.769L231.147 348.02C231.168 348.34 231.193 348.611 231.224 348.861L231.249 349.047L231.275 349.225C231.356 349.714 231.515 350.153 231.775 350.642L231.843 350.765L232.291 351.565L231.479 351.993C227.244 354.223 218.907 355.204 207.468 355.256H207.121H206.406C200.848 355.254 194.958 355.04 188.811 354.672L187.421 354.589L186.26 354.514C185.761 354.481 185.275 354.449 184.77 354.414L183.997 354.36L180.765 354.123C166.228 352.732 150.983 352.756 134.185 354.012C90.3912 356.405 52.5909 355.395 17.0624 350.094L15.9863 349.934L15.1935 349.805L14.7207 349.725C10.9521 349.082 8.58574 348.258 6.73935 346.528L6.64261 346.435L6.56211 346.357L6.52713 346.359C4.66788 346.35 2.96605 345.134 2.3344 343.342L2.30174 343.244L2.25997 343.11L2.23124 342.978C2.20179 342.85 2.16502 342.711 2.1204 342.559L2.08542 342.441L1.79199 341.481L2.78078 341.299C2.86592 341.284 2.95445 341.224 3.04047 341.101L3.12276 340.983L3.26536 340.785L3.60983 340.314C3.97662 339.798 4.15724 339.476 4.24666 339.152C4.32573 338.864 4.35536 338.497 4.34679 337.984L4.34018 337.734L4.30127 336.828C4.2986 336.755 4.29699 336.692 4.29574 336.63L4.29449 336.539L4.29396 335.262L4.29717 333.86C4.29931 333.247 4.30288 332.649 4.30752 332.064L4.31555 331.191L4.32341 330.49C4.37106 326.602 4.48511 322.719 4.66574 318.842C5.01895 311.273 5.62454 303.716 6.48126 296.186C8.25038 280.64 10.9601 265.563 14.6463 250.996L15.0165 249.539C19.0022 233.97 22.8451 221.965 27.7292 210.866C33.9415 196.748 41.5159 185.127 51.0529 175.838C56.2964 170.73 62.1033 166.42 68.2744 163.113C71.1124 161.592 74.1288 160.243 77.3634 159.029L77.8269 158.858L78.5751 158.583L79.1491 158.372L80.9989 157.681C81.3876 157.535 81.8108 157.373 82.3111 157.176L82.6209 157.053L85.9332 155.732L86.4831 155.516L87.0948 155.279L87.5444 155.106C88.2794 154.826 88.9449 154.581 89.5628 154.365L89.928 154.24L90.2594 154.128L91.6732 153.639L91.6455 154.926C91.6272 155.779 91.8474 156.425 92.3366 156.889L92.3531 156.903L92.37 156.918L92.385 156.928L92.4707 156.925L92.8048 156.923C92.8392 156.905 92.8717 156.882 92.9019 156.857C93.3772 156.453 93.5983 155.913 93.8128 154.67L93.8698 154.326L93.9688 153.678L94.0083 153.434C94.1513 152.573 94.2758 152.097 94.518 151.552C94.868 150.767 95.3307 150 95.8752 149.296L96.0025 149.136L96.511 148.524L96.589 148.427C96.7673 148.199 96.8587 148.038 96.8969 147.89L96.9059 147.851L96.9568 147.594L97.138 147.404Z" fill="#E0EAF3"/>
<path fill-rule="evenodd" clip-rule="evenodd" d="M177.409 165.761C177.17 165.629 177.381 165.286 177.622 165.399C189.184 170.823 198.056 180.336 204.298 191.327C210.761 202.709 214.444 215.633 217.621 228.262L217.736 228.719C221.121 242.23 224 255.882 226.594 269.567C229.219 283.424 231.327 297.369 233.021 311.369C233.86 318.292 234.608 325.228 235.191 332.176C235.482 335.65 235.748 339.125 235.985 342.602C236.08 343.992 236.169 345.382 236.246 346.774L236.301 347.819C236.35 348.765 236.462 349.714 236.228 350.648C236.025 351.454 235.598 352.182 235.223 352.921C234.483 354.383 232.448 354.142 231.648 352.921L231.416 352.566C230.886 351.747 230.445 350.987 230.279 349.966C230.119 348.979 230.112 347.945 230.04 346.948C229.906 345.113 229.794 343.278 229.665 341.441C229.394 337.579 229.091 333.718 228.753 329.861C228.088 322.246 227.374 314.637 226.496 307.044C224.937 293.547 222.981 280.086 220.677 266.697C218.425 253.617 215.576 240.67 212.604 227.739L212.297 226.402C207.096 203.826 199.079 177.827 177.409 165.761ZM54.2408 254.165C54.326 253.939 54.6919 253.887 54.7536 254.165C55.5325 257.671 55.6096 261.281 55.7287 264.871C55.8459 268.412 55.8411 271.967 55.7895 275.51C55.5991 288.53 55.2416 301.54 54.9325 314.558C54.7777 321.069 54.6328 327.582 54.5214 334.095C54.4793 336.537 54.444 338.98 54.4145 341.424L54.3786 344.645C54.3606 346.069 54.3233 347.476 54.1495 348.898C54.0349 349.835 53.7907 350.728 53.2738 351.529C52.907 352.099 52.3841 352.388 51.8745 352.775L51.7792 352.848C51.1292 353.362 50.4445 353.366 49.8007 352.848L49.6139 352.7C48.9988 352.22 48.4673 351.845 48.0748 351.085C47.5287 350.028 47.4412 348.879 47.3484 347.715C47.2074 345.948 47.3009 344.156 47.3191 342.386C47.3555 338.832 47.4048 335.278 47.4671 331.727C47.6961 318.697 48.1485 305.666 48.9731 292.662C49.3617 286.535 49.8884 280.39 50.595 274.289L50.7296 273.145C50.9437 271.35 51.1394 269.524 51.3596 267.691C48.0714 265.379 45.1813 262.574 42.7166 259.391C42.5351 259.157 42.8339 258.829 43.0529 259.056C45.5712 261.662 48.4589 263.741 51.6557 265.374C52.1794 261.537 52.8996 257.721 54.2408 254.165ZM109.171 138.027C109.217 137.993 109.287 137.977 109.33 138.027C110.037 138.851 109.893 140.11 109.916 141.154L109.919 141.252C109.97 142.778 109.979 144.299 109.974 145.825L109.958 150.685C109.956 151.354 109.902 152.048 109.936 152.721L109.954 152.982C110.325 153.362 110.498 153.912 110.372 154.463C110.349 155.17 109.979 155.761 109.439 156.132L110.596 157.772L111.755 159.413C114.142 162.797 116.556 166.152 119.071 169.443C121.636 172.799 124.372 176.029 127.236 179.133C128.634 180.652 130.058 182.148 131.513 183.609C132.105 184.204 132.71 184.784 133.31 185.371L133.908 185.96C134.259 186.312 134.704 186.66 134.938 187.108C135.075 187.37 135.105 188.02 135.155 188.127C135.596 189.098 134.843 190.645 133.592 190.162L133.647 190.122C133.876 189.965 133.729 189.962 133.21 190.117C132.882 190.115 132.573 190.04 132.285 189.89L132.2 189.844C131.795 189.637 131.434 189.239 131.104 188.921L131.024 188.843C130.27 188.139 129.553 187.391 128.832 186.654C127.327 185.118 125.856 183.549 124.432 181.937C121.591 178.721 118.897 175.376 116.346 171.926C113.748 168.412 111.333 164.719 109.256 160.873C108.468 159.413 107.745 157.926 107.052 156.421C105.704 155.989 105.391 154.554 105.485 152.941C104.987 151.782 104.539 150.601 104.274 149.393C104.238 149.227 104.451 149.071 104.578 149.216C105.009 149.705 105.409 150.226 105.792 150.762C106.024 149.63 106.317 148.588 106.455 147.924L107.053 144.991C103.684 144.816 99.9928 146.2 97.6706 148.622C97.5458 149.252 97.0602 149.703 96.5869 150.292C96.0461 150.967 95.5741 151.724 95.2224 152.514C94.4418 154.267 94.8823 156.85 93.3677 158.136C93.2098 158.27 93.0334 158.363 92.8514 158.42C93.5701 161.943 93.2439 165.825 93.2283 169.399L93.2276 169.713C93.2314 173.713 93.0975 177.716 92.943 181.712L92.7857 185.667C92.5819 190.943 92.4495 196.221 92.9624 201.467C95.3037 199.394 97.7248 197.415 100.229 195.53C101.876 194.292 103.556 193.096 105.266 191.946L106.655 191.018C108.32 189.901 110.026 188.753 111.849 187.954C114.234 186.908 116.502 187.268 118.804 188.339C121.097 189.407 123.321 190.647 125.57 191.805C127.857 192.982 130.149 194.149 132.441 195.318C133.958 196.093 136.182 196.792 137.294 198.22C137.365 197.904 137.447 197.588 137.544 197.276C137.433 196.798 137.476 196.28 137.745 195.787C141.484 188.919 144.945 181.887 148.381 174.862C150.119 171.308 151.772 167.712 153.516 164.158L155.21 160.699C155.492 160.123 155.776 159.546 156.061 158.972C156.489 158.11 156.934 157.258 157.366 156.398C157.548 156.036 157.778 155.675 157.955 155.309L158.039 155.125C158.044 155.117 158.455 153.826 158.137 153.949L158.11 153.962C157.948 154.053 157.819 153.849 157.923 153.721C158.371 153.166 158.995 153.657 159.252 154.171C159.956 155.581 158.665 157.797 158.169 159.148L158.14 159.223C156.6 163.586 154.855 167.866 153.066 172.129C149.638 180.306 145.954 188.357 142.277 196.421L142.234 196.56C143.018 195.96 143.855 195.414 144.572 194.884C146.378 193.546 148.24 192.273 150.098 191.004C153.503 188.678 157.003 186.504 160.559 184.418L161.271 184.002C163.049 182.967 164.809 182.128 166.918 182.439C168.876 182.728 170.698 183.779 172.467 184.634L172.651 184.721L178.12 187.32C177.536 184.989 176.902 182.671 176.242 180.359C174.953 175.853 173.536 171.383 172 166.955C170.565 162.816 169.012 158.724 167.37 154.663L166.877 153.444C166.208 151.772 165.542 149.949 163.629 149.435C161.717 148.92 159.524 149.684 157.776 148.595C157.617 148.495 157.639 148.234 157.83 148.184L158.908 147.913C160.934 147.41 163.306 146.905 165.221 147.394C167.304 147.927 169.026 149.675 170.036 151.49C171.161 153.512 171.953 155.773 172.805 157.928L172.94 158.267C173.918 160.705 174.861 163.159 175.762 165.627C177.563 170.562 179.201 175.556 180.685 180.595C181.4 183.022 182.078 185.464 182.732 187.909C182.919 188.612 183.228 189.465 183.481 190.354C183.772 190.638 184.047 190.954 184.306 191.316C184.734 191.914 184.426 192.616 183.894 192.974C183.874 193.587 183.737 194.161 183.412 194.656C182.143 196.582 178.784 196.085 178.921 193.496C178.941 193.099 179.096 192.721 179.33 192.4L179.323 192.348L179.298 192.253C178.714 191.975 178.129 191.663 177.511 191.359L171.771 188.523C170.109 187.702 168.268 186.433 166.418 186.121C164.694 185.83 162.877 187.113 161.396 187.888L161.3 187.936C157.719 189.771 154.166 191.666 150.626 193.576C148.899 194.509 147.194 195.48 145.472 196.425C144.033 197.213 142.48 198.347 140.863 198.793C140.171 199.33 139.352 199.257 138.691 198.852C138.993 200.717 138.975 202.632 139.066 204.54C139.191 207.091 139.211 209.648 139.252 212.202L139.268 213.161C139.377 218.806 139.435 224.455 139.457 230.102C139.532 250.212 139.311 270.329 139.259 290.438C139.232 300.542 139.032 310.655 138.77 320.755C138.657 325.035 138.425 329.31 138.174 333.583L138.034 335.914C137.742 340.831 137.57 345.803 136.658 350.656C136.54 351.288 135.468 351.304 135.364 350.656C134.525 345.457 134.479 340.144 134.317 334.884L134.283 333.833C134.09 328.186 133.997 322.542 134.017 316.891C134.088 296.773 134.613 276.667 135.039 256.555C135.255 246.45 135.4 236.34 135.734 226.238C135.902 221.184 136.091 216.133 136.316 211.08C136.416 208.824 136.512 206.569 136.662 204.317L136.73 203.351C136.776 202.723 136.814 202.1 136.86 201.484C134.823 202.227 132.96 200.851 131.129 199.908C129.017 198.823 126.908 197.736 124.795 196.653L122.681 195.571L118.451 193.413C116.546 192.441 115.078 191.475 113.047 192.614C105.728 196.719 99.0019 202.181 92.9069 207.91C91.7382 209.009 89.2684 208.715 88.9723 206.873C87.7077 199.004 88.4768 191.022 89.1225 183.129L89.3605 180.199C89.6489 176.699 89.963 173.199 90.3816 169.713C90.5688 168.155 90.7553 166.597 90.9616 165.04L91.1203 163.873C91.3782 162.027 91.5465 160.194 92.0962 158.426C91.9229 158.368 91.7561 158.277 91.6068 158.136C89.9539 156.569 90.7508 153.849 91.5051 151.984C92.2497 150.144 93.3852 148.538 94.8074 147.154C95.1176 146.853 95.5549 146.658 95.9941 146.649C99.4422 144.365 103.225 143.226 107.162 144.472C107.272 143.944 107.385 143.415 107.504 142.889L107.625 142.364C107.931 141.057 108.045 138.901 109.171 138.027ZM144.512 344.242C145.581 343.947 146.753 344.258 147.537 345.041C148.32 345.825 148.631 346.996 148.336 348.065C148.188 348.591 147.922 349.048 147.537 349.437C147.176 349.794 146.757 350.05 146.277 350.203L146.164 350.235L145.989 350.308C145.454 350.453 144.917 350.453 144.381 350.308C143.867 350.166 143.423 349.905 143.044 349.53C142.67 349.154 142.411 348.707 142.266 348.195C142.122 347.66 142.122 347.122 142.266 346.587L142.339 346.412C142.488 345.886 142.753 345.429 143.139 345.041C143.526 344.656 143.985 344.388 144.512 344.242ZM208.042 237.665C208.217 237.463 208.503 237.722 208.394 237.936C206.727 241.202 204.869 244.445 203.045 247.628C203.191 248.509 203.336 249.384 203.502 250.237C204.214 253.873 205.085 257.442 205.652 261.114C207.694 274.305 208.754 287.64 209.663 300.951C210.575 314.309 210.693 327.673 210.828 341.058C210.841 342.218 209.948 343.565 208.753 343.785C208.205 343.885 207.794 343.865 207.248 343.785C206.004 343.601 205.224 342.175 205.171 341.058C204.814 333.577 204.333 326.106 203.778 318.637C202.791 305.397 202.19 292.12 201.392 278.865L201.112 274.232C200.81 269.213 200.535 264.189 200.446 259.163C200.385 255.832 200.564 252.502 200.455 249.175C200.353 246.103 200.043 242.764 200.719 239.748C200.744 239.633 200.923 239.605 200.974 239.714C201.679 241.195 202.126 242.807 202.47 244.451C204.285 242.157 206.133 239.856 208.042 237.665ZM89.139 156.534C89.394 156.516 89.3838 156.898 89.139 156.926C85.5766 157.34 82.1353 158.788 78.7716 160.021L78.4836 160.125C75.0854 161.358 71.7723 162.791 68.5839 164.499C62.35 167.839 56.6255 172.146 51.5643 177.077C31.3574 196.758 22.1486 225.141 15.4008 251.811C11.6516 266.631 8.98557 281.7 7.25751 296.883C6.40293 304.394 5.79895 311.931 5.44663 319.481C5.26636 323.35 5.15267 327.223 5.10519 331.097C5.08074 333.081 5.0736 335.066 5.0761 337.049C5.07717 337.959 5.23959 339.103 4.99632 339.987C4.77071 340.804 4.13443 341.523 3.66377 342.205C3.10583 343.014 2.10347 342.971 1.53786 342.205L1.32922 341.927C0.726125 341.127 0.135885 340.363 0.0496776 339.317C-0.0424193 338.197 0.0225484 337.042 0.0184433 335.916C0.00880528 333.649 0.0368287 331.38 0.0823417 329.114C0.169798 324.768 0.340962 320.423 0.595656 316.084C1.11254 307.28 1.96337 298.493 3.18169 289.756C5.34739 274.229 8.59327 258.849 12.8451 243.756C16.8563 229.52 21.6084 215.328 28.3779 202.14C34.6635 189.896 42.9092 178.507 53.7896 169.948C58.8494 165.97 64.3574 162.654 70.2957 160.157C73.2908 158.897 76.4358 157.869 79.6344 157.282C82.7975 156.703 85.9468 156.784 89.139 156.534ZM145.124 319.078C145.689 319.074 146.32 319.197 146.803 319.511L147.451 320.011C147.626 320.236 147.801 320.463 147.976 320.689C148.381 321.216 148.435 322.069 148.349 322.699C148.331 323.118 148.206 323.507 147.976 323.87L147.481 324.509C147.008 324.894 146.612 325.171 146.039 325.357C145.739 325.453 145.45 325.474 145.163 325.458L145.067 325.453L145.124 325.46L145.024 325.449C144.929 325.44 144.835 325.432 144.742 325.417C144.677 325.41 144.611 325.405 144.547 325.396C144.487 325.39 144.426 325.389 144.363 325.394C143.635 325.464 142.902 325.05 142.384 324.575C141.916 324.146 141.499 323.238 141.563 322.595L141.592 322.326C141.64 321.873 141.681 321.694 141.874 321.239C142.059 320.795 142.322 320.404 142.677 320.074C143.357 319.44 144.19 319.085 145.124 319.078ZM142.866 285.878C143.835 284.823 145.497 284.746 146.698 285.384C146.991 285.541 147.258 285.789 147.517 285.998C148.167 286.522 148.422 287.47 148.458 288.268C148.493 289.057 148.078 289.994 147.517 290.538L147.382 290.67C147.046 290.995 146.568 291.279 146.1 291.365C145.345 291.504 144.711 291.498 144.008 291.202C143.403 290.949 142.884 290.538 142.529 289.983L142.471 289.889C142.448 289.849 142.425 289.81 142.404 289.769L142.372 289.708C141.699 288.416 141.881 286.953 142.866 285.878ZM143.367 252.504C143.803 252.366 144.24 252.348 144.676 252.445C144.974 252.447 145.249 252.522 145.506 252.67C145.784 252.746 146.025 252.887 146.23 253.091C146.477 253.237 146.673 253.434 146.819 253.68C147.11 253.998 147.305 254.369 147.406 254.797L147.524 255.67L147.406 256.543L147.076 257.326C146.985 257.446 146.892 257.564 146.801 257.681C146.655 257.93 146.457 258.126 146.211 258.272C146.048 258.433 145.864 258.552 145.659 258.635C144.927 259.159 143.953 259.331 143.087 259.091C142.571 258.947 142.125 258.686 141.747 258.311C141.37 257.931 141.11 257.485 140.965 256.971L140.906 256.561C140.829 256.011 140.819 255.706 140.974 255.004C141.042 254.697 141.24 254.263 141.345 254.08C141.788 253.3 142.514 252.764 143.367 252.504ZM181.281 228.494C182.535 228.485 183.788 228.487 185.043 228.501L185.982 228.514C187.556 228.539 188.905 228.376 190.142 229.469C191.042 230.261 190.646 231.589 189.792 232.187C188.5 233.09 186.88 232.637 185.395 232.537C183.829 232.432 182.261 232.344 180.693 232.274C177.657 232.139 174.62 232.051 171.58 232.039C168.548 232.025 165.51 232.053 162.479 232.103C159.393 232.153 156.181 232.44 153.113 232.121C152.691 232.076 152.597 231.523 153.013 231.378C155.904 230.379 159.156 230.056 162.185 229.674C165.31 229.278 168.435 228.999 171.58 228.819C174.811 228.633 178.045 228.516 181.281 228.494ZM143.362 218.674L143.466 218.676C144.017 218.678 144.533 218.808 145.015 219.065L145.118 219.122L145.781 219.634C146.186 220.043 146.468 220.523 146.621 221.078L146.739 221.947C146.757 222.399 146.662 222.818 146.457 223.209C146.325 223.614 146.1 223.966 145.781 224.262C145.484 224.58 145.133 224.807 144.727 224.939C144.367 225.128 143.981 225.223 143.569 225.223L143.466 225.221C142.875 225.219 142.323 225.069 141.813 224.773L141.151 224.262C140.746 223.854 140.464 223.372 140.308 222.818L140.192 221.947C140.174 221.498 140.269 221.076 140.474 220.687C140.606 220.282 140.831 219.931 141.151 219.634C141.447 219.315 141.799 219.09 142.204 218.958C142.564 218.769 142.95 218.674 143.362 218.674ZM153.068 141.802C153.773 140.781 155.051 141.689 154.869 142.51C154.917 144.816 155.035 147.055 155.56 149.312C155.799 150.348 156.115 151.383 156.6 152.329L156.804 152.728C157.432 153.969 157.921 155.14 157.073 156.502C156.675 157.144 155.954 157.626 155.172 157.592C151.706 157.442 151.23 152.62 151.019 149.926C150.801 147.154 151.478 144.106 153.068 141.802Z" fill="black"/>
<path fill-rule="evenodd" clip-rule="evenodd" d="M80.2363 30.2516C81.7809 28.5915 83.7564 27.3545 85.916 26.9593C83.942 27.947 82.0124 28.9765 80.2363 30.2516ZM77.211 44.5668C76.938 43.3015 76.7545 42.0241 76.6967 40.7469C77.0418 41.2725 77.5932 41.6238 78.2123 41.8051C77.8124 42.7021 77.4722 43.6265 77.211 44.5668ZM180.561 64.404C178.78 56.9704 170.461 42.6722 168.496 39.9201C166.361 33.1059 178.004 27.6411 171.673 22.3127C168.805 19.9083 165.015 19.0575 161.462 18.2049C136.853 12.2847 110.412 15.2705 87.588 26.157C84.1162 25.4251 80.4991 26.8554 77.9744 29.3674C66.1136 41.3091 82.2778 62.8553 85.8123 76.3179C91.8766 91.3291 79.3846 93.8543 80.7243 106.555C81.7652 113.117 88.3997 114.851 93.9987 115.843C94.896 116.053 96.0957 116.085 96.3852 117.035C97.2923 122.581 100.402 127.867 104.577 131.454C104.212 132.537 104.491 133.853 105.779 134.804C117.444 143.487 132.153 147.833 146.701 147.052C164.041 146.122 173.008 136.166 175.171 133.603C187.135 117.42 185.705 96.0668 183.265 76.7798C181.564 63.344 183.72 77.5726 180.561 64.404Z" fill="#AE5D29"/>
<path fill-rule="evenodd" clip-rule="evenodd" d="M127.097 2.54843C127.641 0.841962 129.183 -0.18431 130.95 0.0275485C132.514 0.212635 134.188 1.76686 133.997 3.48225C133.961 3.81351 133.913 4.12372 133.858 4.41607L133.865 4.41875L133.872 4.41911L133.833 4.53244C133.717 5.07842 133.556 5.56764 133.319 6.03009C133.014 6.91608 132.723 7.8051 132.434 8.69715C132.851 8.6793 133.276 8.70322 133.708 8.78372C134.154 7.63804 134.604 6.49539 135.052 5.34686C135.53 4.12068 135.868 2.54558 136.815 1.59677C138.027 0.385584 140.13 0.134993 141.606 1.0001C143.168 1.91303 143.724 3.53597 143.385 5.27528C143.212 6.16252 142.62 6.7799 141.888 7.16774L141.809 7.20843L141.247 8.54508C141.418 8.47048 141.597 8.40176 141.791 8.34518C142.095 8.25558 142.393 8.19901 142.686 8.17509C143.489 6.71618 144.374 5.2992 145.288 3.90883C146.339 2.3098 148.394 1.62961 150.118 2.64107C151.662 3.5449 152.49 5.91961 151.385 7.4799C150.544 8.66431 149.75 9.87263 148.966 11.0927C149.1 11.1167 149.234 11.1465 149.363 11.1852C149.422 11.1047 149.484 11.0242 149.55 10.9437C150.405 9.88156 151.399 9.08499 152.42 8.20186C153.377 7.37263 153.818 6.06882 155.074 5.43931C156.655 4.64881 158.562 5.02773 159.502 6.60284C161.523 9.97705 158.133 12.4412 155.965 14.4848C157.85 13.3065 159.813 12.2295 161.826 11.2987C162.958 10.7765 164.107 10.2724 165.274 9.83676C167.006 9.19244 168.405 9.39859 169.826 10.5976C170.459 11.1345 170.775 12.3073 170.484 13.0887C169.918 14.5864 169.024 15.4963 167.457 15.9287C166.356 16.233 165.228 16.439 164.125 16.7581C162.279 17.2891 160.486 17.9366 158.747 18.745C158.872 18.8226 158.99 18.9062 159.101 19.0017C160.4 18.581 161.723 18.217 163.05 17.9067C165.253 17.3892 167.495 17.0398 169.747 16.821L170.495 16.7513C173.195 16.4917 176.442 16.0128 178.1 18.6019C178.644 19.4552 178.703 20.8632 178.1 21.7074C176.944 23.3304 175.794 23.6527 173.883 23.6825C175.764 23.8824 177.643 24.13 179.514 24.4193C180.802 24.6164 182.093 24.8395 183.376 25.087L184.017 25.213C185.58 25.5263 187.326 25.7081 188.67 26.6152C191.601 28.596 190.224 32.4535 186.978 32.8653C185.407 33.0621 183.665 32.3968 182.127 32.0865C180.631 31.7853 179.13 31.5197 177.624 31.2869C176.842 31.1647 176.062 31.0572 175.278 30.9589C176.872 31.1886 178.454 31.5138 179.994 31.9732L180.42 32.1024C183.397 33.0113 187.415 34.4586 188.345 37.6445C188.907 39.5807 187.367 41.2693 185.504 41.3826C183.77 41.487 182.325 40.4518 180.854 39.6881C179.781 39.1332 178.693 38.7184 177.536 38.3634C176.342 37.9965 175.125 37.6921 173.897 37.4446C174.934 38.0168 175.944 38.6458 176.913 39.3495L177.359 39.6792C179.935 41.6023 183.865 44.5798 182.957 48.1846C182.671 49.3213 181.406 50.4072 180.19 50.2909C177.027 49.9955 175.282 46.6214 172.896 44.8134C172.274 44.342 171.593 43.8767 170.877 43.4232C174.493 47.743 177.37 52.7371 179.558 57.8955C184.37 69.2434 185.846 79.7526 185.88 91.9542L185.882 92.332C185.887 99.0624 185.736 105.915 185.081 112.616C184.472 118.806 183.358 124.916 180.556 130.522C175.86 139.922 166.708 147.244 156.614 150.03C145.383 153.132 132.83 150.706 123.63 143.547C121.283 141.721 124.395 137.757 126.794 139.442C136.367 146.169 148.752 148.3 159.741 143.747C168.459 140.137 175.478 132.371 178.454 123.43C180.347 117.742 180.899 111.677 181.575 105.749L181.62 105.354C182.334 99.1551 182.748 92.9139 182.742 86.6727C182.734 75.0824 181.072 65.5416 175.982 55.0285C173.588 50.0761 170.481 45.497 166.77 41.4781C165.644 41.7078 164.446 41.3857 163.309 41.2632C162.729 41.2006 162.147 41.141 161.567 41.0872C162.16 41.4715 162.742 41.8711 163.315 42.2799L164.064 42.8217C166.411 44.5057 169.39 46.4237 168.787 49.6792C168.623 50.5593 167.746 51.3678 166.899 51.5677C163.822 52.3016 161.707 49.3063 159.629 47.5283C157.821 45.983 155.929 44.5987 154.001 43.2114C153.564 42.8981 153.123 42.5849 152.681 42.2747C153.097 42.7616 153.502 43.256 153.898 43.7552L154.483 44.4977C156.252 46.7159 158.804 49.5992 157.228 52.4746C156.78 53.2861 155.827 53.8261 154.905 53.8082C151.729 53.7425 150.467 50.1327 148.977 47.8535C147.697 45.8995 146.307 44.0586 144.868 42.2179C144.472 41.7137 144.072 41.2097 143.667 40.7055C136.999 41.0515 130.354 41.9345 123.826 43.3456C119.341 44.3153 114.93 45.5716 110.552 46.9466L110.188 47.0625C107.819 47.8267 105.378 48.8046 103.67 50.4818C103.426 51.6373 103.613 52.856 103.846 54.0099L104.028 54.8932C104.777 58.5867 105.288 62.2121 104.906 66.0041C104.51 69.9154 103.333 73.4327 101.897 77.0662C101.218 78.7788 100.516 78.4686 100.274 80.3062C100.09 81.7061 100.204 83.1511 100.33 84.5625L100.436 85.7592C100.7 88.8937 100.833 92.3113 98.7822 94.8977C98.4636 95.2945 97.7816 95.1363 97.5551 94.7396C97.4659 94.5814 97.3706 94.4294 97.2664 94.2832C96.2776 92.8482 94.7615 92.0307 93.0283 91.7145C92.8079 91.6757 92.8943 91.3803 93.079 91.3564C94.5442 91.1835 95.932 91.5504 97.1114 92.3083C96.5523 90.371 92.2223 91.3131 90.7989 91.6895L90.75 91.7025C88.9748 92.18 87.2951 92.9556 85.8149 94.0535C82.8366 96.2611 81.1153 99.7039 81.2015 103.412C81.2879 107.058 83.1673 110.426 86.3957 112.171C87.9533 113.013 89.7253 113.418 91.4885 113.4C93.329 113.383 94.9672 112.574 96.8107 112.687C97.8769 112.753 98.693 113.899 98.0765 114.898C97.6654 115.566 97.1293 116.091 96.5098 116.494C98.0199 119.982 99.9468 123.308 102.169 126.377C103.399 128.082 104.792 129.654 106.326 131.089C107.523 132.21 110.117 133.508 109.972 135.378C109.921 136.053 109.573 136.465 108.959 136.715C107.051 137.497 104.732 134.807 103.456 133.51L103.354 133.406C101.764 131.819 100.313 130.065 99.0503 128.203C96.8107 124.898 95.4198 121.172 94.8451 117.258C91.7864 118.18 87.7359 117.315 85.2401 116.184C77.3954 112.634 74.8311 102.052 79.5993 95.0052C80.5226 93.6417 81.6781 92.4753 82.9946 91.5326C82.7056 91.3745 82.4347 91.1715 82.1934 90.915C80.8588 89.495 79.9154 87.642 78.9791 85.9341L78.8666 85.73C78.0354 84.2264 77.2512 82.6992 76.5162 81.1485L76.2428 80.5658C74.6018 77.0305 73.1632 75.4851 71.9929 71.768C70.867 68.1819 69.9795 64.5273 69.4047 60.8101L69.252 59.8263C68.9196 57.6693 68.6051 55.3628 68.8477 53.1728C67.1769 53.7188 65.4972 54.0558 63.8443 53.2355C62.7543 52.6954 62.1526 51.1203 62.5249 49.9896C62.7959 49.1571 63.2487 48.5039 63.8234 47.9908C63.4809 47.8176 63.1593 47.5968 62.8764 47.3523L62.6292 47.1378C61.6284 46.2664 61.557 44.6107 62.1646 43.5187C62.2242 43.4143 62.2836 43.3068 62.3402 43.2024C62.918 42.1672 64.1124 41.4901 65.2918 41.5079C65.4824 41.5109 65.673 41.5109 65.8665 41.5079C65.3155 41.3857 64.7765 41.1977 64.2643 40.8814C61.9531 39.4584 62.2449 35.6009 65.0416 34.9207C66.2151 34.6372 67.5105 34.7536 68.8031 35.0579C68.7554 35.0311 68.7078 35.0042 68.6601 34.9744C67.6833 34.3747 66.8642 33.2022 66.9565 32C67.0579 30.6694 67.4868 29.7208 68.6601 29.0227C69.6787 28.42 71.1201 28.3634 72.1328 29.0227C73.0113 29.5985 73.8721 30.2339 74.7001 30.9171C73.8691 29.8937 73.1484 28.7811 72.8566 27.5997C72.4962 26.1288 73.0977 24.5268 74.4201 23.7511C75.4744 23.1335 76.5883 23.2022 77.583 23.6795C77.5294 22.9068 77.717 22.1192 78.2293 21.4212C79.2777 19.9894 81.1837 19.1657 82.8427 20.2098C83.0601 20.347 83.3519 20.5828 83.6348 20.8721C83.0838 19.115 83.5812 17.2713 85.4605 16.4777C86.6072 15.9914 88.1588 16.2361 89.1536 17.0744C88.5222 13.6525 93.5643 11.1375 95.524 14.6727C95.9688 15.4736 96.4089 16.3169 96.8023 17.1797L96.9476 17.504L96.9626 17.4979L96.8625 17.2609L96.76 17.0237C96.2149 15.7558 95.521 14.4371 95.3305 13.0618C95.0505 11.0272 95.9559 9.09695 98.1657 8.79852C99.3064 8.64342 100.575 9.16263 101.341 10.0699C100.927 6.91322 104.447 4.61901 106.981 6.97587C108.182 8.09156 108.822 9.72343 109.584 11.1554C110.016 11.9639 110.457 12.7694 110.889 13.581C110.999 13.4496 111.118 13.3184 111.243 13.1901C110.603 11.2687 110.106 9.29988 109.686 7.31891C109.287 5.45127 110.219 3.51206 112.143 2.98447C113.891 2.50078 116.08 3.58113 116.47 5.44556C116.744 6.75794 117.069 8.05604 117.426 9.34754C117.67 9.28793 117.912 9.24616 118.15 9.21635C118.17 8.97362 118.192 8.72963 118.217 8.48707L118.311 7.62394C118.519 5.65224 118.729 3.40122 119.758 1.72509C121.512 -1.13883 126.01 0.0484297 126.057 3.4346C126.084 5.18587 125.372 6.92215 125.125 8.65539C125.018 9.41019 124.955 10.1739 124.92 10.9376C125.399 8.40176 126.057 5.89872 126.82 3.4346C126.91 3.13921 127.004 2.84382 127.097 2.54843ZM88.2966 100.336C92.2428 99.7246 95.8494 101.929 98.1873 105.017C98.6134 105.581 98.3333 106.378 97.9491 106.852C97.6722 107.201 97.2999 107.243 96.88 107.296C96.3975 107.359 95.7869 106.968 95.5754 106.548C94.0715 103.54 91.388 101.64 88.2966 100.47C88.24 100.45 88.2221 100.348 88.2966 100.336ZM93.7663 46.456L93.8859 46.3273C94.6843 45.4977 93.4224 44.2303 92.6221 45.0619C91.7796 45.9371 91.2197 47.0004 90.6813 48.078C90.1681 49.1056 91.709 50.013 92.2242 48.9817L92.4589 48.5128C92.8271 47.7841 93.2198 47.0639 93.7663 46.456ZM82.6844 44.7527C83.8161 44.5617 83.3362 42.8365 82.2092 43.0268C80.7492 43.2733 79.295 43.5533 77.8348 43.8002C76.7034 43.991 77.1832 45.7164 78.3101 45.5263C79.7701 45.2796 81.2244 44.9994 82.6844 44.7527ZM150.102 32.9741C149.009 32.6088 148.54 34.337 149.627 34.7004C151.13 35.2025 152.62 35.7171 154.046 36.4144C155.076 36.9179 155.983 35.3745 154.947 34.8687C153.382 34.1034 151.753 33.5255 150.102 32.9741ZM82.4266 30.6544C81.3589 30.2268 80.8952 31.9573 81.9517 32.3807L85.8115 33.9269C86.8792 34.3547 87.3429 32.6243 86.2865 32.2011L82.4266 30.6544ZM163.581 26.4517L163.44 26.3626C162.472 25.7344 161.574 27.2832 162.538 27.9083C163.102 28.2749 163.789 28.5237 164.307 28.9606L164.416 29.0572C165.251 29.8477 166.517 28.5845 165.68 27.7914C165.066 27.2115 164.289 26.8886 163.581 26.4517Z" fill="black"/>
<path fill-rule="evenodd" clip-rule="evenodd" d="M159.984 126.683C158.076 126.699 155.931 125.984 154.498 125.423L154.123 125.275C152.883 124.779 151.608 124.208 150.657 123.251C150.354 122.94 150.029 122.588 149.864 122.217C149.768 122.001 149.729 121.776 149.822 121.553C150.166 121.519 150.491 121.475 150.8 121.419C150.946 121.392 151.087 121.364 151.196 121.364C151.594 121.361 151.987 121.412 152.379 121.461C152.436 121.469 152.494 121.476 152.551 121.483C152.856 121.52 153.161 121.562 153.464 121.602C154.35 121.721 155.23 121.839 156.127 121.882C156.775 121.913 157.454 121.876 158.139 121.839C159.917 121.742 161.755 121.61 163.124 122.855C163.483 123.181 163.633 123.591 163.633 124.01C163.633 124.518 163.418 125.034 163.092 125.441C162.353 126.36 161.216 126.675 159.984 126.683ZM170.385 110.658C169.555 111.902 168.173 112.703 166.278 112.616C162.514 112.444 158.019 111.024 154.866 108.97C154.045 108.435 153.511 107.581 153.416 106.665L153.245 105.036L152.328 106.392C152.231 106.534 152.135 106.675 152.038 106.816C151.772 107.204 151.507 107.593 151.257 107.991C150.295 109.519 149.413 111.062 148.612 112.681C148.044 113.827 147.63 115.109 147.214 116.402C146.513 118.586 145.834 120.733 144.335 122.268C144.108 122.5 143.76 122.583 143.441 122.542C143.159 122.506 142.884 122.368 142.748 122.094C140.956 118.452 143.368 114.063 145.322 111.012L145.529 110.693C147.341 107.936 150.302 104.287 153.693 103.791L154.08 104.41L154.644 104.033C155.567 103.418 156.786 103.447 157.853 103.928L158.919 104.409C160.905 105.3 162.863 106.122 165.012 106.572C165.169 106.605 165.325 106.636 165.482 106.664C165.628 106.691 165.778 106.716 165.926 106.739C165.894 106.593 165.86 106.447 165.826 106.302C165.789 106.148 165.753 105.994 165.714 105.84C165.673 105.682 165.63 105.524 165.585 105.367C165.414 104.74 165.219 104.12 164.989 103.512C164.122 101.227 162.737 99.0899 161.389 97.0514L161.23 96.8117C161.037 96.5195 160.825 96.2149 160.607 95.8997C159.556 94.387 158.391 92.7455 158.308 91.0976C159.702 91.1854 160.87 92.0516 161.898 92.8059C163.308 93.8402 164.614 95.023 165.799 96.3081C168.098 98.8011 170.163 101.988 171.068 105.283C171.586 107.169 171.357 109.199 170.385 110.658ZM133.596 91.8626V91.7953C133.601 89.8929 134.71 85.5493 137.449 85.5493C139.161 85.5493 140.2 88.5055 140.38 91.5527L140.385 91.677C140.466 93.5716 139.944 97.7129 137.449 97.7129C134.926 97.7129 133.623 93.7906 133.596 91.8626ZM173.935 91.2659V91.1986C173.931 89.2962 172.823 84.9526 170.083 84.9526C168.414 84.9526 167.384 87.7628 167.167 90.7278L167.152 90.9561C167.043 92.7868 167.531 97.1162 170.083 97.1162C172.605 97.1162 173.91 93.1939 173.935 91.2659ZM142.823 78.9878C142.461 79.0304 142.1 79.0861 141.738 79.1434C140.685 79.3112 139.637 79.5127 138.597 79.7474C136.619 80.1934 134.66 80.7565 132.736 81.393C130.936 81.9888 129.164 82.662 127.394 83.3352C127.299 83.3711 127.204 83.4072 127.11 83.443C126.484 83.6808 125.861 83.9471 125.236 84.2143C124.284 84.6208 123.328 85.0303 122.353 85.3389C124.923 81.7869 128.884 79.155 132.693 77.2717C134.868 76.1972 137.174 75.3307 139.495 74.6207L140.787 74.2326C142.689 73.6715 144.769 73.1532 146.555 74.2721C147.262 74.7145 147.714 75.4022 147.857 76.146C147.996 76.8751 147.837 77.657 147.334 78.3095C146.895 78.878 146.347 79.2016 145.765 79.3126C145.122 79.435 144.442 79.3006 143.821 78.9697C143.325 78.9328 143.179 78.946 143.032 78.9624L142.823 78.9878ZM171.447 79.349C170.172 79.0724 168.912 78.9613 167.606 79.0012C167.015 79.0188 166.442 79.11 165.873 79.2019C164.987 79.3444 164.106 79.4918 163.152 79.3187C162.655 79.2284 162.23 78.9374 161.903 78.5576C161.519 78.1137 161.268 77.5462 161.186 77.0066C161.102 76.4494 161.186 75.962 161.391 75.5315C161.635 75.023 162.046 74.5944 162.542 74.2191C164.043 73.0829 166.62 73.3561 168.393 73.5858C170.144 73.8134 171.884 74.3561 173.433 75.2182C174.959 76.0692 176.287 77.2154 177.324 78.6165C178.197 79.7975 178.609 81.1567 179.034 82.5406C177.035 80.865 173.977 79.8984 171.447 79.349Z" fill="black"/>
<path fill-rule="evenodd" clip-rule="evenodd" d="M167.612 120.194C168.43 121.032 169.215 121.93 169.956 122.858C170.161 124.331 170.209 125.823 170.022 127.362C169.747 129.595 169.138 131.774 168.314 133.869C167.828 133.8 167.346 133.664 166.879 133.448C165.392 132.765 164.562 131.39 163.557 130.177C161.555 127.762 157.901 126.336 155.347 128.84C154.235 129.929 153.525 131.435 152.534 132.631C151.445 133.946 150.221 135.197 148.945 136.331C148.786 136.473 148.622 136.629 148.452 136.78C147.742 135.97 147.042 135.153 146.36 134.323C144.328 131.853 142.573 129.116 141.65 126.032C141.358 125.054 141.176 124.033 141.104 123.004C142.009 121.882 143.041 120.862 144.213 120.017C147.751 117.467 151.824 117.052 156.063 116.831C160.446 116.604 164.396 116.903 167.612 120.194ZM178.309 132.029C178.139 130.323 177.877 128.547 177.488 126.775C176.071 120.2 172.999 113.645 166.843 110.641C163.93 109.218 160.619 108.717 157.48 109.403C151.97 107.341 145.852 109.445 141.515 113.216C136.399 117.664 134.04 124.645 133.246 131.185C132.692 135.735 132.485 141.812 133.776 145.114C135.068 148.414 143.275 157.242 154.99 157.304C171.678 157.392 175.733 146.144 176.226 145.158C178.282 141.066 178.76 136.545 178.309 132.029Z" fill="black"/>
<path fill-rule="evenodd" clip-rule="evenodd" d="M184.527 99.6672C181.787 103.089 171.061 106.887 165.353 102.764C159.645 98.6409 157.389 95.7677 156.625 90.616C156.545 90.0666 155.551 89.7013 155.131 90.0913C152.779 92.2752 151.256 95.0566 149.748 97.8452C148.045 100.99 146.371 104.155 143.278 106.284C137.802 109.218 127.895 109.636 124.969 108.342C119.362 105.862 114.927 100.56 113.918 93.2625C113.918 93.2625 112.892 90.0256 111.993 89.3445C111.142 88.6989 106.44 88.1237 105.925 88.0282C96.6434 86.3067 84.9044 85.2092 76.6375 91.2659C75.5188 91.9418 71.6887 94.4814 71.6321 93.8569C71.592 91.4108 74.3652 85.8744 80.6721 83.2402C88.4712 79.9826 100.065 79.7919 106.781 80.5109C107.119 80.5471 108.27 80.2642 108.352 80.229C118.527 75.8254 130.235 76.9949 141.122 78.8458C142.684 79.1483 156.65 82.6054 162.206 80.5109C171.391 76.7626 181.184 74.0471 191.103 75.1155C191.186 75.1244 192.438 82.7219 191.463 83.2402C190.687 83.6527 189.366 84.7095 188.896 85.2879C188.477 85.805 188.213 86.4479 188.236 87.3385C188.425 92.4906 186.955 96.6359 184.527 99.6672ZM146.76 95.0707C147.924 93.3866 148.292 89.6035 147.804 86.8434C147.558 85.4461 147.078 84.3338 146.477 83.78C146.077 83.4119 145.62 83.2386 145.124 83.2643C144.851 83.2784 144.554 83.3561 144.242 83.5247C140.005 81.2343 134.873 80.4095 130.01 80.6467C126.137 80.646 123.374 81.5596 121.501 82.982C119.246 84.6932 118.23 87.1533 118.172 89.8212C118.102 92.9871 119.403 96.4504 121.537 99.191C123.58 101.814 126.374 103.759 129.407 104.207C132.848 104.89 136.355 104.229 139.403 102.613C142.53 100.956 145.172 98.294 146.76 95.0707ZM180.718 96.8565C182.682 94.538 183.986 91.5218 184.185 88.5333C184.365 85.8134 183.637 83.1194 181.623 80.893C179.796 79.3261 176.569 79.3002 173.174 80.1726C168.785 81.301 164.243 83.8224 162.729 85.4509C162.372 85.6378 162.042 85.9633 161.753 86.6614L161.751 86.9102C161.292 89.0245 161.565 91.1698 162.358 93.149C163.22 95.2988 164.698 97.2506 166.5 98.7396C168.894 100.711 171.393 101.314 173.733 100.996C176.381 100.635 178.846 99.0679 180.718 96.8565Z" fill="#AE5D29"/>
<path fill-rule="evenodd" clip-rule="evenodd" d="M161.89 79.6739C171.191 75.878 181.134 73.142 191.199 74.2261C192.033 73.9097 193.066 74.1763 193.434 75.3529C197.019 86.2705 189.023 83.2343 189.132 87.3155C189.969 110.199 159.201 114.107 155.74 90.7475L155.677 90.7852C150.7 95.428 149.65 102.983 143.787 107.021C131.959 115.669 115.191 108.817 113.037 93.4233L112.99 93.215C112.267 90.0734 111.403 89.2945 107.837 89.3099L107.274 89.1981C98.0102 87.3737 85.6742 85.7341 77.1417 92.0083C75.286 93.0871 75.1989 95.8603 73.6308 97.0654C71.9129 97.3988 70.8545 95.3336 70.7381 93.9042C70.4659 79.6548 95.975 78.6298 107.399 79.8528C107.617 79.6268 108.083 79.6548 108.24 79.9363C118.572 75.4648 130.212 76.0836 141.274 77.9639C148.128 79.29 154.896 82.3107 161.89 79.6739ZM190.273 76.857C184.692 76.578 179.53 76.8832 174.05 78.2243C171.163 78.9206 168.948 79.801 166.185 80.8598C148.945 88.4938 146.957 74.9242 108.317 80.2435C108.817 82.3837 108.909 84.5028 108.936 86.5136C116.825 86.1957 114.968 93.726 117.924 99.0155L118.015 99.1751C122.323 106.892 132.487 110.492 140.689 105.373C147.53 101.388 148.197 91.2785 155.008 87.2664C160.912 87.0344 158.555 94.9999 161.767 98.2738C166.29 104.306 175.903 105.15 181.575 99.4755C184.235 96.7451 185.65 93.2786 185.729 89.554C185.877 87.1747 185.468 84.7566 187.267 83.083C188.529 81.8018 190.771 82.2295 191.028 80.2929C191.192 79.148 190.715 77.9059 190.273 76.857ZM129.615 79.9758C135.159 79.7029 141.026 80.6652 145.786 83.3833C149.309 80.5801 150.173 91.7206 147.835 94.9429C144.465 101.835 136.619 106.366 129.066 104.862C117.28 103.155 109.069 79.9552 129.615 79.9758ZM145.449 84.1301L145.147 84.0862C140.039 83.3071 126.133 79.6984 120.769 85.3943C115.564 94.8421 128.769 110.712 142.513 98.0714C146.338 94.179 147.819 89.4591 145.449 84.1301ZM161.633 85.3381C164.279 82.2077 177.758 75.8669 182.457 79.9358C191.031 89.5424 177.433 108.974 166.042 99.5069C162.247 96.3424 159.75 91.3006 160.843 86.4183L160.845 86.2137C160.848 86.1395 160.861 86.1564 160.941 86.064C161.082 85.6949 161.334 85.4591 161.633 85.3381ZM182.337 91.1605C185.229 75.481 173.142 81.4416 163.215 85.6267C163.748 86.1132 163.745 86.7777 163.593 87.3237C162.545 98.9575 176.692 105.55 182.337 91.1605ZM107.199 80.6149C103.058 82.0163 75.6719 79.5097 73.1419 92.3423C75.8123 88.0175 81.3433 86.301 86.3157 85.3697C93.0789 84.1026 99.8052 84.8362 106.474 86.1695L106.611 84.79C106.759 83.3268 106.915 81.9578 107.199 80.6149Z" fill="black"/>
</svg>
