<svg width="305" height="336" viewBox="0 0 305 336" fill="none" xmlns="http://www.w3.org/2000/svg">
<path fill-rule="evenodd" clip-rule="evenodd" d="M297.054 183.858C292.722 184.283 288.391 184.706 284.061 185.129C263.317 186.707 242.581 190.003 221.996 191.982C221.484 191.151 220.481 191.288 219.872 191.865C217.817 191.686 215.516 190.123 213.655 191.749C213.595 191.74 213.534 191.731 213.474 191.726C210.161 185.393 207.871 178.636 205.648 171.873C204.229 167.714 202.321 163.689 198.794 160.897C192.776 156.736 178.983 148.297 171.916 148.652C171.799 147.392 171.208 146.092 170.241 145.252C172.375 141.628 163.839 139.262 163.237 139.683C163.622 127.572 157.903 117.054 145.291 114.642C133.991 112.297 117.922 111.903 111.845 123.664C111.177 123.59 104.349 123.554 103.688 123.628C102.661 122.332 91.3807 134.61 96.004 138.884C54.6698 157.096 31.1672 154.923 19.7266 206.122C18.1799 210.931 18.0673 216.194 16.4341 220.897C10.6236 234.409 5.91062 248.8 4.7378 263.503C1.90504 264.226 1.57917 269.202 4.86052 269.921C6.11378 270.196 7.16189 270.572 8.0759 271.286C7.36143 283.336 10.2874 310.861 12.131 310.776C15.8902 322.692 32.6583 326.056 44.5294 321.868C42.483 325.703 44.5294 328.115 44.5294 330.162C87.2451 331.773 133.95 330.846 176.653 333.052C182.115 332.977 187.861 334.39 193.249 333.575C196.535 332.79 196.54 327.645 193.208 327.008L207.772 323.858C207.446 323.737 213.774 319.544 218.558 311.709C223.01 302.945 219.979 292.366 221.996 282.832C237.753 281.549 253.768 281.001 269.352 278.342C271.477 284.675 280.675 277.102 283.598 274.055C283.594 274.051 283.591 274.046 283.587 274.042C285.002 273.656 286.137 272.334 286.175 270.771C287.168 269.359 287.375 267.369 286.423 266.005C290.784 240.94 297.434 215.347 299.837 190.047C300.687 189.859 301.486 189.488 302.165 188.915L302.109 188.861C303.259 187.585 303.483 185.382 301.567 184.299C300.022 183.422 298.731 183.694 297.054 183.858Z" fill="#EDB98A"/>
<path fill-rule="evenodd" clip-rule="evenodd" d="M132.327 277.67L135.663 279.785L162.962 288.547L179.645 290.662L193.294 288.547V311.808L196.023 333.561C194.811 335.777 183.285 335.777 161.446 333.561C147.523 332.149 96.6435 331.464 85.0591 331.162L84.4028 331.144C70.7899 330.752 57.3426 330.752 44.0613 331.144V322.987L81.9762 304.255L115.948 285.223L132.327 277.67ZM112.985 121.761L115.492 123.626L110.018 132.584L136.684 154.067V171.226L145.125 179.179L149.951 171.226L156.75 162.22L161.583 147.622L159.937 138.003L163.246 137.694C163.262 138.35 163.259 139.013 163.239 139.682C163.841 139.261 172.375 141.626 170.241 145.252C171.21 146.091 171.801 147.39 171.916 148.65C178.985 148.296 192.776 156.735 198.796 160.895C202.322 163.688 204.231 167.713 205.65 171.872L205.984 172.887L206.328 173.928L206.676 174.968C208.596 180.69 210.667 186.358 213.474 191.724C213.535 191.73 213.597 191.74 213.657 191.748C215.516 190.121 217.819 191.684 219.874 191.865C220.469 191.301 221.439 191.157 221.962 191.925L221.998 191.981L196.407 197.002L179.524 255.987L164.82 244.101L156.929 245.269L136.088 252.757L111.849 259.027L56.5147 274.222H49.4679L8.4638 264.359L4.76855 263.144C5.98874 248.565 10.6723 234.3 16.4356 220.896C18.0687 216.193 18.1813 210.93 19.7279 206.12C31.1686 154.922 54.6713 157.096 96.0055 138.883C91.3821 134.608 102.662 122.331 103.689 123.626L103.754 123.621L103.894 123.614L104.075 123.607C105.687 123.56 111.247 123.596 111.846 123.663C112.194 122.99 112.574 122.358 112.985 121.761Z" fill="#FF734F"/>
<path fill-rule="evenodd" clip-rule="evenodd" d="M301.146 185.648L300.383 189.879C300.203 189.939 300.018 189.988 299.832 190.029C299.592 192.552 299.31 195.077 298.993 197.604L294.267 223.838C293.452 228.48 292.678 233.132 291.91 237.784L290.893 242.782L290.262 245.889C288.901 252.614 287.578 259.32 286.419 265.987C286.593 266.238 286.73 266.511 286.828 266.797L286.739 267.173L286.678 267.424L286.613 267.672C285.698 271.176 284.106 274.574 280.352 275.606C277.521 276.383 274.414 276.454 271.49 276.761L271.167 276.796L220.01 282.525C213.828 283.217 207.649 283.931 201.471 284.652L196.116 285.278C188.651 286.138 181.143 286.816 173.789 288.374C173.518 288.432 173.294 288.54 173.111 288.681C174.593 283.096 176.01 277.52 177.295 271.879C178.741 265.532 180.115 259.172 181.66 252.846C184.778 240.103 188.27 227.444 192.094 214.894C192.897 212.258 193.719 209.63 194.558 207.008L195.147 205.173L195.599 203.713C196.3 201.484 197.168 199.196 199.224 197.967C201.63 196.529 204.912 196.29 207.642 195.793L209.491 195.448C212.256 194.934 215.023 194.439 217.796 193.964C231.067 191.69 244.415 189.866 257.812 188.496C271.752 187.07 285.74 186.145 299.745 185.691L301.146 185.648ZM174.17 273.121L174.302 273.132L172.39 288.347C172.084 288.133 171.698 288.003 171.224 288.005C164.956 288.023 158.948 286.028 153.136 283.834L152.25 283.497L149.783 282.554C147.276 281.596 144.755 280.66 142.184 279.884L141.147 279.572L140.619 279.416C138.674 278.851 136.628 278.337 134.606 278.209L134.329 278.195L134.919 277.887C135.005 277.842 135.081 277.791 135.148 277.737C136.262 277.819 137.377 277.797 138.552 277.585C140.76 277.19 142.907 276.425 144.879 275.359L145.761 274.883L146.121 274.692L146.36 274.569L146.596 274.45C148.29 273.609 149.909 273.083 152.049 273.531C154.477 274.039 156.604 275.342 158.793 276.445L159.181 276.637L159.442 276.763L159.709 276.888L159.978 277.009C162.937 278.335 167.647 279.767 168.782 275.76C169.238 274.15 168.882 272.642 168.09 271.319C169.565 271.193 172.198 272.924 174.17 273.121ZM247.84 222.993L247.876 223.175C248.296 225.42 247.246 227.565 245.657 229.131C244.354 230.414 242.049 231.128 241.397 232.973C241.024 234.025 241.42 235.021 242.183 235.715L242.008 235.802L241.836 235.888L241.668 235.977L241.503 236.067L241.344 236.156C238.751 237.642 236.636 240.055 238.977 242.972C241.632 246.279 247.179 246.388 251.086 246.127L251.35 246.109C255.138 245.827 259.628 244.559 261.683 241.074C262.625 239.476 262.522 237.542 261.208 236.174C260.416 235.348 259.001 234.5 257.705 234.401C257.761 233.673 257.674 232.97 257.418 232.377C256.863 231.095 255.384 230.231 253.956 230.201C254.072 227.479 251.883 224.793 250.273 222.617L250.108 222.393L249.948 222.174C249.208 221.149 247.627 221.722 247.84 222.993Z" fill="white"/>
<path fill-rule="evenodd" clip-rule="evenodd" d="M112.633 120.932C113.92 117.709 118.27 118.961 117.785 122.347C117.495 124.373 116.38 126.515 115.379 128.291C114.564 129.737 113.634 131.149 112.373 132.233C114.617 134.319 116.947 136.329 119.336 138.236C121.943 140.318 124.684 142.237 127.517 144.001C130.002 145.548 132.598 146.918 134.94 148.682C137.118 150.324 139.101 152.297 140.111 154.873C141.187 157.617 140.719 160.449 139.927 163.191L139.837 163.501C139.027 166.216 137.626 169.491 139.569 172.049C140.558 173.352 141.995 174.275 143.235 175.316C144.339 176.242 145.373 177.249 146.323 178.329C148.393 180.686 150.077 183.34 151.138 186.295L151.234 186.562C152.145 189.179 152.81 192.384 151.579 194.952C151.227 195.688 150.088 195.449 149.891 194.732C149.443 193.109 149.466 191.408 149.092 189.759C148.702 188.048 148.053 186.421 147.205 184.883C145.564 181.906 143.343 179.365 140.719 177.216L139.932 176.58C137.885 174.906 136.005 173.129 135.589 170.361C135.145 167.396 136.336 164.575 137.102 161.77C137.637 159.814 137.811 157.942 137.234 156.174C136.529 157.322 135.566 158.41 134.805 159.381C133.29 161.314 131.759 163.236 130.234 165.161C128.669 167.136 127.143 169.142 125.69 171.199C125.04 172.119 124.397 173.046 123.756 173.974C123.274 174.669 122.602 175.365 122.076 176.076C122.204 176.457 122.194 176.894 121.963 177.205C119.177 180.954 115.214 173.131 114.18 171.156C112.075 167.131 110.508 162.854 108.396 158.829C106.208 154.658 103.716 150.598 100.938 146.79C99.2581 144.486 97.3752 142.322 95.8381 139.945C92.2175 143.215 87.4528 145.407 83.0766 147.396C78.2683 149.579 73.2728 151.363 68.3429 153.259L66.8867 153.821C58.3922 157.123 49.6903 160.751 42.6298 166.616C34.3331 173.507 29.4249 183.114 25.7709 193.062C21.5643 204.512 18.0843 216.272 14.8404 228.026C13.1803 234.039 11.6051 240.08 10.1243 246.14C8.81953 251.479 7.7378 256.87 6.22734 262.155C9.29072 262.047 12.7848 263.229 15.4003 263.569C27.3204 265.123 39.0801 267.601 50.3343 271.89C51.7243 272.42 52.1265 273.802 51.8237 274.923C52.6255 274.697 53.4266 274.469 54.2281 274.245C53.3499 272.904 53.7691 270.509 53.8381 269.023L53.8424 268.92C53.9133 266.941 54.1291 264.959 54.2688 262.983C54.535 259.216 54.8817 255.477 55.3426 251.732L55.4603 250.794C55.9826 246.72 56.3687 242.621 56.9387 238.552L57.006 238.088C56.7327 237.047 56.4146 236.018 56.0806 234.995C55.1906 232.268 53.9346 229.701 52.8339 227.061C52.704 226.75 53.1488 226.573 53.3564 226.759C55.2206 228.429 56.7014 230.547 57.891 232.765C57.9116 232.66 57.9299 232.555 57.9514 232.45L58.0871 231.785C58.4219 230.162 58.8291 228.454 59.8288 227.138C59.9352 226.998 60.1456 226.969 60.2465 227.138C61.2031 228.751 61.3101 230.793 61.4572 232.628C61.6237 234.703 61.6447 236.805 61.6152 238.885C61.5579 242.953 61.27 247.031 61.0408 251.092C60.8158 255.083 60.3741 259.021 59.8047 262.974L59.6965 263.715C59.4181 265.595 59.1902 267.5 58.8231 269.367L58.7194 269.875C58.5233 270.802 58.4025 272.107 58.0118 273.193C68.0631 270.401 78.13 267.671 88.2161 264.991C95.5057 263.054 102.803 261.145 110.097 259.224C110.482 258.533 110.961 257.888 111.56 257.31C113.53 255.41 116.142 254.562 118.537 256.025C118.732 256.144 118.748 256.447 118.537 256.563C118.078 256.813 117.618 257.069 117.167 257.337L121.547 256.155C124.82 255.271 128.133 254.167 131.485 253.55C137.655 250.517 144.294 248.321 150.795 246.151L151.561 245.894C154.891 244.763 158.334 243.497 161.773 242.87C164.291 242.413 167.246 242.966 168.258 245.534C169.54 246.377 170.745 247.365 171.909 248.338C172.751 249.041 173.557 249.787 174.378 250.516L174.53 250.647C175.2 251.226 175.73 251.614 175.896 252.536C175.981 253.013 175.676 253.657 175.087 253.594C173.281 253.402 171.813 251.318 170.59 250.073C169.644 249.111 168.69 248.117 167.828 247.06C167.324 247.333 166.635 247.284 166.313 246.68C164.652 243.546 160.103 245.717 157.585 246.46L153.98 247.524C152.176 248.056 150.374 248.591 148.574 249.135C143.629 250.631 138.707 252.305 133.717 253.678C134.163 254.168 134.102 255.038 133.254 255.368C129.348 256.894 125.063 257.684 121.005 258.732C118.442 259.394 115.882 260.059 113.322 260.729C112.883 261.438 112.568 262.238 112.435 263.171C111.946 266.6 112.888 270.556 113.806 273.873L113.944 274.368C114.699 277.034 115.808 280.303 118.118 281.986C118.682 282.396 119.4 282.684 120.124 282.747C124.645 280.43 129.167 278.111 133.691 275.798C134.528 275.369 135.304 275.949 135.492 276.64C137.086 276.38 138.678 275.969 140.128 275.478C142.562 274.655 144.465 273.083 146.748 271.997C151.167 269.895 155.679 272.477 159.633 274.44L160.546 274.887C162.319 275.743 166.01 277.39 166.861 275.046C167.685 272.777 165.083 270.354 163.402 269.332C161.397 268.114 159.064 267.464 156.799 266.921C155.507 266.611 154.198 266.357 152.881 266.173C151.388 265.963 149.844 265.996 148.407 265.513C147.692 265.275 147.581 264.143 148.407 263.957C150.62 263.455 153.262 264.002 155.572 264.561L156.779 264.857C159.107 265.427 161.457 266.141 163.577 267.276C165.119 268.102 166.745 269.354 167.808 270.889C168.732 270.036 169.879 270.064 171.076 270.381L171.727 270.562C172.798 270.856 173.668 271.06 174.711 270.856C174.852 270.099 174.993 269.343 175.144 268.586C176.63 261.15 178.262 253.742 180.061 246.375C183.166 233.665 186.757 221.096 190.807 208.654L191.212 207.411C192.147 204.566 192.899 201.466 194.404 198.851C195.828 196.38 198.109 194.956 200.82 194.202C203.897 193.345 207.13 192.899 210.268 192.321C210.967 192.192 211.67 192.069 212.37 191.943C211.779 190.878 211.336 189.669 210.938 188.742L210.868 188.581C210.013 186.638 209.245 184.661 208.502 182.674L207.947 181.18C206.608 177.581 205.225 174.042 203.342 170.677C201.359 167.134 198.729 164.239 195.451 161.842C188.767 156.955 180.709 154.463 174.226 149.239C173.96 149.026 174.3 148.661 174.57 148.796C178.949 150.987 183.673 152.476 188.228 154.26L189.126 154.613C192.725 156.033 196.38 157.58 199.496 159.881C202.968 162.448 205.704 165.632 207.759 169.423C209.785 173.157 211.081 177.337 212.511 181.326L212.894 182.389C213.47 183.983 214.065 185.572 214.748 187.122C215.291 188.353 216.301 189.759 216.76 191.166C218.018 190.949 219.274 190.732 220.532 190.522C247.791 185.989 275.354 183.325 302.979 182.546C304.06 182.515 304.618 183.544 304.459 184.482C301.808 200.096 299.453 215.763 296.868 231.388C295.738 238.207 294.589 245.021 293.41 251.833C292.814 255.283 292.123 258.721 291.56 262.177C291.102 264.968 290.772 267.78 289.989 270.505C289.286 272.951 288.209 275.308 286.437 277.173C284.529 279.183 281.865 280.155 279.184 280.616C272.378 281.782 265.396 282.259 258.533 283.036L222 287.175C222.533 292.008 222.573 296.767 222.329 301.656L222.188 304.326C222.074 306.473 221.938 308.624 221.627 310.747C221.24 313.413 220.015 315.671 218.213 317.661C216.558 319.49 214.546 321.05 212.588 322.544C210.557 324.097 208.459 325.595 206.071 326.555L205.76 326.678C203.665 327.493 199.736 328.755 196.873 328.292C197.247 330.161 197.97 332.169 197.328 334.018C197.03 334.876 195.904 335.303 195.214 334.573C193.846 333.127 193.739 331.215 193.415 329.326C193.077 327.361 192.788 325.389 192.53 323.412C192.031 319.591 191.642 315.734 191.523 311.879C191.402 307.921 191.449 303.957 191.662 300.004C191.773 297.973 191.908 295.943 192.168 293.926C192.279 293.066 192.391 292.205 192.519 291.347C192.566 291.034 192.618 290.721 192.674 290.41L189.396 290.779C184.368 291.339 179.338 291.844 174.273 291.921C173.675 291.93 173.212 291.659 172.912 291.264C172.59 291.784 172.03 292.156 171.23 292.155C164.159 292.128 157.573 289.825 151.142 287.11C147.899 285.742 144.708 284.26 141.461 282.904C138.43 281.637 135.192 280.734 132.235 279.308L124.463 283.367C124.406 283.568 124.333 283.756 124.255 283.913C123.749 284.943 122.752 285.5 121.733 285.921C120.755 286.324 119.742 286.45 118.756 286.347C112.862 289.424 106.967 292.498 101.068 295.563L95.1678 298.627C83.4124 304.723 71.7034 310.919 59.8739 316.873L59.003 317.308C54.9171 319.349 50.5296 321.418 45.9952 322.962C45.9146 324.104 45.9654 325.218 46.0616 326.427L46.0849 326.691C46.2199 328.12 46.5098 329.911 45.3583 330.929C44.7591 331.459 43.6891 331.46 43.2818 330.663C42.5425 329.216 43.2062 326.933 43.4403 325.36C43.5234 324.802 43.6248 324.227 43.7746 323.669C38.5763 325.21 33.2206 325.959 27.9307 325.093C22.7803 324.251 18.7914 321.019 15.5756 317.066C12.1817 312.895 9.77005 308.035 8.47612 302.822C7.00345 296.894 6.90729 290.768 6.94181 284.695C6.97868 278.227 7.21888 271.727 8.00872 265.304C7.14333 265.1 6.1836 264.924 5.30918 264.986C4.87594 265.676 4.03586 265.967 3.27657 265.877C1.62568 267.69 5.81326 269.544 7.15147 270.008C7.61616 270.169 7.56645 270.921 7.03055 270.898L6.69293 270.881C4.62507 270.773 2.48872 270.421 1.27287 268.506C0.298679 266.972 0.5913 265.156 1.75274 263.905C2.51981 256.681 4.3536 249.646 6.06052 242.599C7.73545 235.682 9.59798 228.81 11.5724 221.971L12.4575 218.911C15.566 208.19 18.8152 197.381 23.1031 187.086C25.2442 181.946 27.7107 176.9 31.0543 172.417C34.171 168.239 37.8505 164.664 42.08 161.609C49.9648 155.916 59.2168 152.476 68.3071 149.199L68.7142 149.051C73.425 147.354 78.1243 145.637 82.7814 143.799C86.9003 142.172 90.8461 140.11 94.9455 138.46C94.8124 138.219 94.6837 137.975 94.5599 137.73L94.4842 137.793C94.4712 137.804 94.458 137.813 94.4441 137.822C94.032 138.107 93.4251 137.966 93.0853 137.648C92.1261 136.746 92.4509 135.745 93.0911 134.811L93.1744 134.691C93.9575 133.598 94.6561 132.443 95.3791 131.311L95.8316 130.603C97.0449 128.711 98.3199 126.807 99.9375 125.244C100.687 124.519 101.507 123.977 102.376 123.574C102.302 123.417 102.953 123.097 103.138 123.258C105.891 122.255 109.059 122.464 112.06 122.741M220.232 287.376L216.404 287.81C212.193 288.287 207.98 288.748 203.766 289.205L194.614 290.195C194.59 290.716 194.527 291.224 194.516 291.616C194.457 293.638 194.411 295.663 194.37 297.687C194.285 301.743 194.377 305.804 194.644 309.853C194.905 313.777 195.248 317.701 195.78 321.597L195.888 322.376L195.951 322.785C196.385 322.828 196.812 323.032 197.166 323.455C197.941 324.375 200.743 323.481 201.838 323.092C203.638 322.454 205.333 321.377 206.899 320.296C208.426 319.24 209.801 318.01 211.123 316.714L212.203 315.647C213.281 314.583 214.358 313.448 215.016 312.108C215.91 310.292 216.026 308.063 216.288 306.084C216.61 303.652 216.995 301.219 217.402 298.799M109.109 261.835L108.712 261.938C94.2888 265.756 79.8872 269.685 65.4198 273.334C58.2601 275.14 51.0666 276.815 43.8983 278.586L42.7377 278.876C37.0827 280.298 31.3597 282.011 27.0292 286.098C26.8694 286.248 26.6373 286.017 26.7877 285.858C31.455 280.909 38.0927 278.814 44.4661 276.998C45.6442 276.661 46.8237 276.334 48.0022 276C39.3346 272.922 30.5301 270.245 21.5224 268.335C19.2029 267.843 16.8565 267.482 14.5387 266.988C12.9224 266.645 11.3439 266.146 9.74456 265.734L8.4866 265.418L8.46998 269.378C8.44901 274.986 8.45895 280.591 8.74633 286.199L8.80073 287.238C9.13583 293.478 9.65907 299.849 11.8825 305.734C13.6894 310.514 16.5695 315.02 20.3358 318.503C22.2415 320.265 24.2906 321.637 26.8233 322.315C29.1749 322.942 31.6388 323.016 34.0562 322.848C45.6518 322.044 55.9737 315.768 66.0464 310.574C82.5219 302.079 98.9991 293.586 115.491 285.124C115.045 284.82 114.625 284.47 114.244 284.077C112.032 281.802 110.865 278.688 110.099 275.671C109.284 272.461 108.796 269.02 108.739 265.707M130.093 288.402C130.239 288.325 130.407 288.422 130.415 288.587C130.465 289.841 129.769 291.077 129.249 292.209L129.194 292.33C128.562 293.729 127.87 295.11 127.155 296.469C125.725 299.185 124.238 301.873 122.687 304.523C119.568 309.853 116.102 314.957 112.004 319.596C111.079 320.647 109.557 319.302 110.151 318.172C113.014 312.732 116.352 307.595 119.788 302.502C121.508 299.952 123.227 297.4 124.964 294.862C125.689 293.803 126.423 292.747 127.177 291.708L127.631 291.086M301.153 185.664C286.68 186.098 272.222 187.039 257.817 188.512C244.422 189.882 231.075 191.706 217.803 193.98C215.03 194.455 212.261 194.949 209.496 195.462L207.837 195.773C205.071 196.295 201.693 196.51 199.232 197.981C196.634 199.534 195.933 202.776 195.069 205.45C194.053 208.594 193.065 211.747 192.101 214.908C188.277 227.458 184.783 240.118 181.667 252.862C180.12 259.186 178.748 265.546 177.301 271.895C176.017 277.534 174.599 283.112 173.118 288.695C173.301 288.554 173.525 288.448 173.794 288.39C181.149 286.832 188.657 286.154 196.121 285.292L196.844 285.209C204.565 284.303 212.288 283.407 220.015 282.541L271.172 276.812C274.19 276.474 277.422 276.427 280.359 275.62C285.349 274.249 286.521 268.691 287.357 264.264L287.383 264.131C289.908 250.754 291.917 237.264 294.272 223.854M174.308 273.148C172.321 273.016 169.603 271.205 168.097 271.335C168.887 272.656 169.245 274.165 168.788 275.776C167.521 280.256 161.782 277.938 159.019 276.569C156.752 275.445 154.563 274.072 152.055 273.546C149.213 272.951 147.287 274.077 144.887 275.375C142.915 276.439 140.766 277.204 138.557 277.601C137.384 277.811 136.267 277.835 135.154 277.751C135.087 277.806 135.011 277.856 134.926 277.901L134.337 278.209C136.999 278.332 139.712 279.15 142.192 279.899C144.76 280.676 147.281 281.612 149.79 282.568L152.257 283.513C158.343 285.834 164.643 288.039 171.23 288.019C171.703 288.017 172.092 288.149 172.397 288.363M163.196 259.108C165.157 258.868 166.968 259.124 168.536 260.397C170.427 261.931 171.698 264.476 174.416 264.642C175.208 264.691 175.392 265.801 174.604 266.032C172.581 266.629 170.944 265.539 169.565 264.124L168.638 263.158C167.275 261.754 166.019 260.668 163.707 260.751C161.231 260.841 158.751 261.411 156.291 261.702C153.506 262.029 150.719 262.309 147.925 262.551C147.795 262.562 147.773 262.358 147.894 262.329L151.024 261.552M161.301 251.117L161.625 251.085C164.473 250.81 167.08 250.799 169.625 252.327L170.113 252.619C172.406 254.009 174.904 255.645 176.339 257.893C176.574 258.262 176.185 258.694 175.793 258.602C173.035 257.942 171.02 255.927 168.701 254.42C166.098 252.726 163.409 253.006 160.443 253.268C157.569 253.523 154.697 253.874 151.852 254.349C149.179 254.797 146.499 255.504 143.798 255.73V255.725C143.489 255.725 143.314 255.262 143.629 255.106C146.369 253.744 149.542 253.098 152.523 252.475M63.7351 173.948C63.7315 173.724 64.0485 173.641 64.1593 173.834C66.0132 177.082 66.9823 181.066 67.9699 184.645C69.0041 188.393 69.8391 192.181 70.5894 195.995C72.1087 203.722 72.9182 211.401 72.9732 219.274C72.9807 220.399 71.1419 220.699 70.962 219.547C69.7679 211.888 68.6238 204.221 67.4206 196.564C66.8151 192.713 66.1104 188.877 65.4362 185.039M82.0885 179.607C81.952 179.159 82.6065 179.009 82.774 179.419C86.4944 188.516 87.7545 198.824 85.3658 208.421C85.0004 209.889 82.8416 209.252 83.1172 207.803M130.078 171.525C130.059 171.19 130.496 171.136 130.66 171.367C132.424 173.842 133.155 177.155 136.249 178.432C137.792 179.072 139.531 178.96 140.894 180.039C141.807 180.76 142.506 181.897 141.821 182.991C141.601 183.343 140.983 183.52 140.682 183.137C140.245 182.577 140.014 181.908 139.419 181.491C138.582 180.9 137.451 180.863 136.491 180.585C135.248 180.227 134.152 179.598 133.256 178.666M159.53 130.261C159.713 130.169 159.886 130.229 160.002 130.384C160.168 130.607 160.148 130.823 159.944 130.977C160.217 131.53 160.537 132.915 160.582 133.115C160.768 133.932 160.965 134.744 161.173 135.555C161.589 137.193 161.954 138.841 162.371 140.479C162.814 142.214 163.34 143.931 163.928 145.623C163.966 145.733 164.007 145.845 164.05 145.959L164.117 146.129L164.134 146.103C164.253 145.915 164.501 146.047 164.472 146.244C164.444 146.425 164.407 146.606 164.376 146.787L164.437 146.947C164.82 147.976 165.084 149.058 164.379 149.966C164.117 150.306 163.826 150.506 163.467 150.566C162.887 152.467 162.162 154.331 161.385 156.122L161.157 156.646C160.013 159.259 158.793 161.837 156.973 164.062C154.985 166.491 152.25 168.15 150.518 170.811C149.712 172.049 149.152 173.352 148.697 174.749L148.525 175.28C148.203 176.269 147.831 177.227 146.898 177.807C146.602 177.993 146.157 177.934 145.917 177.681C144.006 175.669 146.005 171.911 147.158 169.963C148.758 167.254 151.075 165.52 153.396 163.476C155.897 161.273 157.491 158.327 159.035 155.422C159.98 153.644 160.893 151.826 161.853 150.04C160.85 149.156 160.528 147.401 160.188 146.181L160.157 146.073C159.595 144.119 159.149 142.114 158.867 140.101C158.596 138.165 158.482 136.258 158.554 134.312L158.574 133.817M163.262 139.474C163.04 139.17 163.407 138.827 163.711 138.89C165.561 139.271 167.369 140.386 169.03 141.288L169.207 141.384C170.532 142.096 171.866 142.967 172.562 144.35C173.319 145.854 173.256 147.584 173.153 149.217L173.144 149.371C173.017 151.329 172.995 153.364 172.58 155.287C172.366 156.272 171.472 156.548 170.707 156.317C169.796 159.18 167.239 161.289 165.37 163.55C162.988 166.431 163.436 170.321 163.685 173.789C163.785 175.195 162.032 175.595 161.128 174.845L159.046 173.122C158.699 172.835 158.352 172.546 158.007 172.257C157.71 172.009 157.417 171.759 157.126 171.506L156.693 171.125C156.499 170.953 155.65 170.008 155.402 169.968C154.8 169.873 153.37 171.452 152.881 171.947L152.819 172.009C151.899 172.909 151.066 173.876 150.291 174.903C150.15 175.092 149.87 174.935 149.973 174.716C150.667 173.236 151.475 171.819 152.432 170.492L152.626 170.229C153.264 169.374 154.121 167.861 155.247 167.608C156.622 167.301 157.994 168.672 158.995 169.435L159.058 169.484C159.534 169.838 160.004 170.202 160.474 170.565C160.425 167.982 160.752 165.372 162.091 163.145C163.035 161.575 164.45 160.413 165.661 159.062C167.009 157.56 167.712 155.713 168.932 154.15C169.09 153.947 169.306 153.839 169.54 153.805C169.587 152.547 169.773 151.278 169.917 150.033L169.959 149.66C170.103 148.308 170.447 146.656 169.782 145.391C169.155 144.195 167.714 143.351 166.648 142.539L165.777 141.867M103.23 125.177C102.673 125.499 102.153 125.898 101.681 126.397C100.194 127.968 99.1311 129.922 98.0969 131.801C97.5398 132.815 97.003 133.838 96.4416 134.849C96.1974 135.288 95.9462 135.723 95.6923 136.157C95.575 136.358 95.2262 136.755 95.0532 136.999C95.2453 137.269 95.4439 137.533 95.6465 137.793C95.7239 137.892 101.056 143.678 102.915 145.942C105.762 149.411 108.306 153.074 110.481 156.997C112.611 160.837 114.232 164.902 116.206 168.817C117.193 170.776 118.296 172.723 119.702 174.418C119.756 174.485 119.814 174.546 119.869 174.613C120.406 173.169 121.78 171.622 122.456 170.735L122.519 170.652C124.05 168.595 125.668 166.601 127.32 164.64C128.829 162.851 130.377 161.099 131.962 159.377L132.558 158.732C133.663 157.544 135.065 155.766 136.683 154.916C136.509 154.609 136.309 154.305 136.079 154.005C134.563 152.033 132.423 150.602 130.31 149.311L128.939 148.482C123.774 145.346 118.69 142.067 114.206 137.993C111.834 135.837 109.494 133.58 107.5 131.066L106.795 130.178M111.848 123.626C109.429 123.829 106.818 123.78 104.583 124.564C106.569 126.437 108.458 128.456 110.399 130.359C110.571 129.072 110.924 127.801 111.223 126.547" fill="black"/>
<path fill-rule="evenodd" clip-rule="evenodd" d="M182.47 45.0882C182.799 42.0294 179.213 33.8689 179.298 35.5243C173.547 26.6727 162.323 23.1918 152.639 20.2698C132.081 13.496 116.027 21.6769 101.582 36.1759C93.0546 44.1265 84.9404 53.0076 80.6595 64.0138C72.2381 85.0098 84.8614 108.95 104.058 118.981C105.607 119.818 107.295 120.612 108.771 121.622C116.706 126.198 126.025 127.782 134.868 129.773C151.411 133.547 172.187 131.749 181.937 116.028C188.55 104.872 186.793 91.3467 186.276 78.9651C185.497 68.1166 184.133 55.8571 182.47 45.0882Z" fill="#EDB98A"/>
<path fill-rule="evenodd" clip-rule="evenodd" d="M94.0426 14.1277C104.761 4.12731 120.602 -0.719611 135.085 0.128063C142.931 0.587326 150.491 2.54909 157.58 5.91972C159.798 6.9738 161.957 8.20772 163.949 9.66051C165.294 10.2864 166.608 10.9638 167.88 11.7004C174.255 15.386 179.182 20.9688 182.336 27.5909C183.842 30.7517 185.031 34.0848 185.703 37.519L185.812 38.0842C186.155 39.8076 186.833 42.078 185.974 43.6906C185.405 44.7598 184.214 45.4338 183.084 45.3431C183.33 46.3341 183.623 47.3247 183.811 48.3221L184.322 51.041C184.407 51.4941 184.49 51.9474 184.574 52.4005C185.067 55.1013 185.521 57.7989 185.884 60.5208C186.643 66.1887 187.33 71.8683 187.935 77.5571C188.369 81.6254 188.776 85.698 189.172 89.7696L189.407 92.2123C189.813 96.4174 190.131 100.659 189.855 104.883C189.439 111.219 187.487 116.999 183.699 121.7C184.058 122.568 184.181 123.544 184.452 124.621C184.828 126.112 185.318 127.573 185.841 129.02C186.085 129.588 186.329 130.157 186.571 130.728L187.207 132.239L187.704 133.23C188.241 134.307 188.761 135.4 189.09 136.516C191.232 137.658 192.982 139.52 193.067 142.07C193.142 144.374 191.944 146.816 189.918 147.991C187.921 149.151 185.864 148.694 183.95 147.808C182.282 148.293 180.496 148.354 178.844 147.835C177.572 148.985 175.932 149.778 174.112 149.994C171.37 150.319 168.768 149.553 166.252 148.544L166.077 148.473C165.997 148.443 165.919 148.41 165.843 148.378C162.95 148.239 160.069 147.096 158.015 145.072C157.347 144.418 156.768 143.668 156.304 142.827C154.61 139.773 154.348 136.024 156.013 132.995C155.655 133.009 155.295 133.024 154.937 133.033C150.175 133.168 145.405 132.926 140.653 132.613L139.535 132.538C136.46 132.317 131.927 131.797 131.841 127.994C131.828 127.508 132.33 127.142 132.791 127.273C134.537 127.764 136.254 128.538 138.063 128.816C140.431 129.181 142.882 129.221 145.273 129.353L145.962 129.393C150.784 129.655 155.778 129.816 160.522 128.861C164.063 128.151 167.754 126.859 170.998 125.257C174.112 123.716 176.943 121.7 179.225 119.071C184.252 113.281 184.919 105.115 184.673 97.7923C184.377 89.0459 183.346 80.3123 182.766 71.5784L182.504 67.6547C182.287 64.3825 182.088 61.1059 182.007 57.8323C181.946 55.4427 181.985 53.047 181.998 50.6572C182.003 49.464 181.989 48.2646 182.016 47.0712C182.031 46.4006 182.11 45.7451 182.166 45.0892C181.9 44.9505 181.653 44.7568 181.429 44.5003C181.253 44.2979 181.116 44.0833 181.022 43.8659C179.894 43.5362 179.37 43.0983 178.638 42.1046C178.02 41.2678 177.32 40.4944 176.574 39.7692C174.982 38.2286 173.162 36.9687 171.24 35.8717C167.266 33.6033 162.914 32.0867 158.525 30.8419C151.805 28.9387 144.825 27.9598 138.006 26.4309C136.126 29.0471 134.134 31.5851 132.052 34.0414C125.553 41.7028 118.102 48.5332 110.117 54.624C108.492 55.8657 106.845 57.0893 105.174 58.2762C102.974 61.6255 100.749 64.9587 98.4921 68.2695L97.5226 69.6871L97.5074 69.7144C97.3742 69.9168 97.2468 70.1191 97.1201 70.3215C96.8506 70.7506 96.548 71.1645 96.227 71.5663C96.0183 71.8712 95.8064 72.1763 95.5915 72.4817C96.0031 72.7019 96.3785 72.9498 96.672 73.2247C97.2714 73.7896 97.1712 74.6871 96.672 75.261C95.0618 77.1159 92.5132 74.699 90.6607 74.0556C88.654 74.6656 86.9803 77.0496 86.1478 78.8709C84.9493 81.4965 84.468 84.6624 85.0099 87.5053C85.5058 90.1034 86.844 92.3484 89.0688 93.7562C89.1474 93.8043 89.2318 93.8558 89.3139 93.9008C89.3169 93.9073 89.3169 93.9073 89.32 93.9038C89.3956 93.9523 89.4744 93.9978 89.553 94.0401C90.5973 94.6141 91.7445 94.9525 92.9338 95.0338C93.6146 95.0825 94.3264 95.0459 95.0074 95.1276C95.7065 95.209 96.2816 95.5296 96.9536 95.6988C97.6952 95.8887 98.1734 96.883 97.7069 97.5503C97.4772 97.8796 97.2592 98.1941 97.0259 98.4751C97.7919 99.3754 98.4575 100.369 99.0601 101.315C99.8832 102.611 100.613 103.986 101.279 105.387C101.893 106.194 102.48 107.016 103.049 107.856C106.273 112.624 108.74 117.934 110.256 123.484C111.758 128.973 112.696 135.138 111.307 140.743C110.026 145.898 106.288 150.165 100.755 150.44C99.6005 150.498 98.4648 150.369 97.397 150.077C95.0511 151.523 92.1443 152.249 89.5427 152.334C87.438 152.403 85.1339 151.962 83.415 150.691C81.3759 151.577 79.1638 152.079 77.2404 152.193C75.0879 152.321 72.8354 151.736 71.0807 150.577C69.4112 152.005 67.6096 153.209 65.5627 154.037C62.0424 155.456 57.8534 155.28 54.6299 153.156C51.4002 151.029 49.7567 147.212 50.7434 143.422C51.6514 139.93 54.5057 137.369 57.1875 135.164L57.7173 134.73C60.37 132.568 63.049 130.477 64.7515 127.432C66.5584 124.202 67.2183 120.45 67.3969 116.795C67.7844 108.747 66.1438 100.771 65.6444 92.7652C65.1298 84.4965 65.4174 76.2033 66.5463 67.995C68.7409 52.05 74.5159 36.4188 84.9643 23.9898C86.4761 22.1915 88.094 20.4771 89.7993 18.8525C91.1027 17.151 92.5114 15.5561 94.0426 14.1277ZM233.027 105.17C233.084 105.173 233.139 105.176 233.189 105.197C233.225 105.211 233.254 105.234 233.28 105.26L233.534 105.514C233.627 105.605 233.619 105.744 233.534 105.834C233.46 105.917 233.327 105.919 233.24 105.855L233.215 105.834L232.951 105.571C232.922 105.54 232.896 105.506 232.884 105.463C232.873 105.42 232.873 105.372 232.869 105.327C232.866 105.245 232.945 105.17 233.027 105.17ZM91.0154 80.4873C93.4429 79.7527 96.3546 81.4992 97.8015 83.3422C98.5279 84.2665 98.7337 85.5325 97.8015 86.4418C97.0084 87.2152 95.4587 87.3569 94.6929 86.4418C93.8243 85.3994 93.1159 83.9551 91.875 83.2878C90.5281 82.5627 88.7241 82.744 88.4062 84.5111C88.3518 84.8104 87.922 84.7105 87.9037 84.4419C87.7857 82.6535 89.3567 80.9854 91.0154 80.4873Z" fill="black"/>
<path fill-rule="evenodd" clip-rule="evenodd" d="M155.861 110.884C153.823 110.055 152.002 108.674 150.672 106.908C150.211 106.294 150.09 105.646 150.188 105.053C150.296 104.387 150.692 103.783 151.232 103.378C151.775 102.971 152.451 102.771 153.107 102.873C153.676 102.962 154.242 103.272 154.69 103.916L154.784 104.044C155.576 105.11 156.606 105.984 157.779 106.548C158.91 107.091 160.177 107.344 161.486 107.197C163.98 106.916 165.701 105.573 167.528 103.748C167.754 103.518 167.98 103.28 168.208 103.039C168.352 102.82 168.551 102.679 168.773 102.605C169.019 102.524 169.298 102.528 169.552 102.617C169.798 102.702 170.019 102.864 170.167 103.08C170.306 103.285 170.386 103.538 170.36 103.829C170.192 105.72 169.2 107.407 167.79 108.732C166.225 110.205 164.148 111.222 162.194 111.58C160.042 111.972 157.848 111.691 155.861 110.884ZM163.21 81.7125C165.5 83.0991 168.99 86.3326 166.527 89.7704C163.626 92.8016 159.451 89.326 157.392 87.7543C155.485 86.5361 153.342 89.669 155.111 91.0915C169.981 102.057 176.016 82.075 164.369 80.082C163.087 79.8624 162.61 81.2834 163.21 81.7125ZM136.564 68.9574C136.817 65.8286 141.601 65.1181 142.076 68.2142C142.503 70.9875 142 73.5352 140.748 76.0321C139.548 78.4176 136.536 77.3047 136.309 75.1326C136.003 72.2209 136.406 70.9036 136.564 68.9574ZM172.981 67.5718C173.648 66.7019 174.611 66.1078 175.766 66.4435C179.37 67.4929 178.307 72.5903 177.042 75.0715C176.354 76.4189 174.131 76.7605 173.126 75.5741C171.488 73.6395 170.704 69.7758 172.786 67.8701C172.842 67.7716 172.905 67.6722 172.981 67.5718ZM140.695 55.2668L141.265 55.1674C143.027 54.864 145.217 54.5724 146.463 55.9831C147.124 56.731 147.352 58.1214 146.463 58.8374C144.901 60.0971 143.173 59.6089 141.301 59.7156C139.757 59.8038 138.273 60.0583 136.788 60.4814C133.525 61.4098 130.868 63.1047 128.083 64.9656C127.718 65.2097 127.345 64.7442 127.519 64.4036C129.127 61.2669 132.244 58.6902 135.363 57.1196C137.03 56.2811 138.854 55.5858 140.695 55.2668ZM169.695 53.8617L170.131 53.9505C174.873 54.9381 181.035 56.9107 183.281 61.5508C183.368 62.2069 183.276 62.3475 183.204 62.4395L183.178 62.4701C183.119 62.5485 183.07 62.6566 182.784 62.7461C182.705 62.7271 182.625 62.7072 182.544 62.6861C181.514 62.4175 180.7 62.0471 179.911 61.6631L179.056 61.2436C178.065 60.759 177.064 60.2921 176.003 59.9475C173.74 59.2122 171.412 58.6942 169.048 58.4177C168.535 58.3577 168.041 58.1854 167.653 57.8903C167.282 57.6101 167 57.2221 166.872 56.7064C166.706 56.0391 166.753 55.5338 167.112 54.9317C167.383 54.4795 167.77 54.1661 168.213 53.9863C168.667 53.8028 169.182 53.7594 169.695 53.8617Z" fill="black"/>
</svg>
