<svg width="240" height="343" viewBox="0 0 240 343" fill="none" xmlns="http://www.w3.org/2000/svg">
<path d="M203.713 214.166H133.873V300.135H203.713V214.166Z" fill="#FF734F"/>
<path fill-rule="evenodd" clip-rule="evenodd" d="M113.502 130.08C121.03 124.349 139.93 121.772 147.966 127.289C155.901 132.83 156.768 141.791 160.465 150.033C163.954 148.387 169.717 150.744 170.727 153.979C171.982 155.506 172.039 159.796 172.905 161.847C210.551 167.837 216.267 197.175 220.799 230.484C226.794 264.283 240.402 298.008 234.494 332.788C235.264 333.901 235.871 334.982 236.431 336.268C237.777 338.555 236.044 341.793 233.332 341.667C229.821 341.358 226.345 340.939 222.818 340.808C213.042 340.467 203.255 340.509 193.474 340.633L192.139 340.649C142.845 341.264 93.553 342.471 44.2562 342.792C42.4677 342.796 41.5923 341.192 41.831 339.609C42.312 336.425 42.7581 333.241 43.2239 330.054C31.5639 333.133 19.1682 333.908 7.54129 330.379C6.72786 329.549 9.43644 330 9.86613 329.874C-0.834312 322.564 2.36123 307.167 3.30907 296.076C9.20317 258.077 11.2809 216.032 34.0535 183.606C43.9051 170.372 58.3486 159.894 74.9453 157.538L75.4058 157.474C80.2587 156.826 85.6671 156.618 89.9101 153.979C94.6821 150.171 96.7157 143.135 101.736 143.069C103.394 143.047 105.649 145.145 108.076 146.567C108.257 143.438 109.945 140.795 110.318 138.367L110.348 138.159C110.737 135.329 110.204 132.783 113.502 130.08ZM194.41 231.487C183.83 224.14 156.5 227.832 155.874 228.244C154.495 229.149 153.902 229.229 153.157 230.405C152.422 230.504 151.686 230.604 150.951 230.708C149.48 231.19 150.57 233.001 152.272 232.355C151.249 236.767 154.262 239.906 155.46 244.268C155.85 245.684 155.475 248.232 155.46 249.678C155.577 251.524 157.618 253.703 157.278 255.554C156.069 262.136 149.505 268.556 152.272 274.94C154.105 278.544 159.618 280.382 163.284 281.608C170.877 284.52 184.109 281.498 188.521 274.94C190.873 271.442 193.6 262.616 195.004 259.879L195.314 255.536C196.082 244.743 196.764 233.123 194.41 231.487Z" fill="#EDB98A"/>
<path fill-rule="evenodd" clip-rule="evenodd" d="M101.345 143.09L104.373 144.947L121.957 153.638C125.366 154.591 127.071 155.735 127.071 157.066V170.639C127.071 172.456 130.269 176.572 136.667 182.989L142.578 177.098L142.447 176.326C141.883 173.003 141.603 170.78 141.603 169.658C141.603 168.451 147.386 163.867 158.953 155.906L164.012 151.144L163.472 149.505C166.593 149.652 169.976 151.573 170.727 153.98C171.982 155.507 172.039 159.797 172.905 161.848C210.551 167.838 216.267 197.176 220.799 230.485C226.794 264.284 240.402 298.009 234.494 332.789C235.264 333.902 235.871 334.983 236.431 336.269C237.777 338.556 236.044 341.794 233.332 341.668C229.821 341.36 226.345 340.94 222.818 340.809C213.042 340.469 203.255 340.51 193.474 340.634L192.139 340.65C142.845 341.265 93.553 342.472 44.2562 342.793C42.4677 342.797 41.5923 341.194 41.831 339.61C42.312 336.426 42.7581 333.242 43.2239 330.055C31.5639 333.134 19.1682 333.909 7.54129 330.38C6.72786 329.55 9.43644 330.001 9.86613 329.875C-0.834312 322.565 2.36123 307.168 3.30907 296.077C9.20317 258.078 11.2809 216.033 34.0535 183.607C43.9051 170.373 58.3486 159.895 74.9453 157.539L75.4058 157.475L75.8697 157.415C80.6009 156.813 85.8017 156.536 89.9101 153.98C94.5561 150.274 96.6065 143.506 101.345 143.09ZM143.479 222.75C141.754 222.75 138.223 225.427 132.883 230.782L132.412 230.999C125.957 233.996 121.681 236.597 119.584 238.8L119.509 238.878C117.39 241.151 113.194 247.193 106.921 257.005L97.8365 262.375H94.3993L91.9521 280.119L97.8365 292.789L111.165 288.3L132.883 282.579L145.345 269.94L152.374 267.582C151.522 270.044 151.212 272.495 152.272 274.941C154.105 278.545 159.618 280.383 163.282 281.609C170.877 284.521 184.109 281.499 188.521 274.941C190.873 271.441 193.6 262.617 195.003 259.88L195.406 254.239C196.132 243.83 196.67 233.058 194.408 231.488C183.828 224.142 156.498 227.833 155.872 228.245C154.495 229.15 153.902 229.23 153.157 230.406L152.772 230.458L154.94 227.518L154.172 227.107C148.692 224.204 145.128 222.75 143.479 222.75ZM152.272 232.356C151.293 236.58 154.012 239.637 155.298 243.717L152.011 237.43V232.438C152.097 232.416 152.184 232.389 152.272 232.356Z" fill="white"/>
<path fill-rule="evenodd" clip-rule="evenodd" d="M99.8933 142.433C100.624 141.788 101.705 142.599 101.24 143.473C100.197 145.435 99.1274 147.296 97.7276 149.032C96.8788 150.082 95.9697 151.078 95.0484 152.061C97.4129 154.108 99.4406 156.645 101.356 159.025C103.804 162.067 106.119 165.238 108.868 168.023C111.579 170.768 114.577 172.689 118.201 173.969L118.933 174.223C122.574 175.499 126.465 177.227 128.517 180.672C128.922 181.35 128.107 182.191 127.422 181.766C123.856 179.559 119.666 179.116 115.784 177.657C112.035 176.249 108.766 174.08 105.878 171.314C102.994 168.551 100.573 165.408 98.0481 162.331C95.5509 159.289 92.8622 156.69 89.9085 154.117C85.3506 157.183 80.1475 158.516 74.8571 159.825L74.2795 159.968C68.9827 161.279 63.7142 162.802 58.7448 165.083C54.3636 167.097 50.0542 169.499 46.4853 172.775C42.6969 176.251 39.7483 180.688 37.0495 185.029C31.0128 194.741 26.7688 205.381 23.0324 216.149C19.1464 227.349 15.896 238.776 13.2718 250.337C11.9373 256.217 10.8534 262.139 9.96247 268.103C9.53369 270.975 9.15287 273.853 8.8182 276.739C8.46109 279.819 8.37901 282.989 7.43354 285.951C7.02828 287.22 6.07131 287.747 5.11325 287.702L4.91883 290.135C4.66076 293.378 4.4202 296.622 4.33904 299.885C4.20426 305.311 4.26535 310.72 4.65584 316.135L4.7111 316.874C5.01787 320.824 5.70345 325.265 8.67612 328.158C11.7546 331.155 16.4887 332.098 20.6379 332.15C30.3019 332.276 39.6044 327.713 48.156 323.708C56.9631 319.584 65.5296 315.006 73.891 310.044C78.1491 307.514 82.3613 304.902 86.5196 302.214C88.5603 300.894 90.5866 299.553 92.5976 298.189C93.7495 297.408 94.8411 296.551 96.0136 295.858C95.4391 295.324 95.1825 294.483 95.6638 293.75C92.274 290.808 90.8631 285.559 90.6982 281.313C90.5649 277.884 91.0695 274.466 91.4679 271.07C91.6689 269.358 91.9171 267.649 92.1748 265.943C92.2768 265.27 92.3544 264.55 92.4734 263.839C83.3201 268.867 73.9102 273.345 64.2513 277.322C59.3002 279.361 54.2857 281.194 49.2021 282.876L48.1716 283.213C43.3549 284.789 38.4227 286.279 33.4431 287.18C33.177 287.228 32.9607 286.835 33.245 286.71C38.0977 284.57 43.1187 282.765 48.0443 280.793L48.8538 280.463C48.7607 280.457 48.6644 280.445 48.5638 280.421C45.675 279.724 42.8088 278.65 39.9755 277.745C37.3459 276.906 34.3917 276.379 31.9339 275.114C31.7447 275.015 31.8505 274.753 32.0347 274.74C34.7973 274.548 37.7962 275.353 40.5046 275.827L41.5221 276.006C43.2267 276.305 44.969 276.627 46.6652 277.049C46.7266 276.482 47.044 275.911 47.4957 275.577C52.4659 271.898 51.9612 264.466 52.4929 258.987L52.887 254.918C53.5802 247.798 54.3138 240.68 55.4281 233.612C55.4876 233.235 56.0718 233.344 56.0741 233.7C56.1316 242.46 55.4701 251.179 55.1385 259.925L55.0871 261.36C54.9038 266.757 54.7601 272.361 51.3597 276.514C51.8352 276.235 52.4781 276.235 52.8633 276.693C53.3366 277.257 53.61 277.89 53.6014 278.51C56.674 277.222 59.7333 275.9 62.7777 274.552C72.5653 270.218 82.1477 265.367 91.4768 260.12C92.4808 259.555 93.4351 259.998 93.9315 260.744L94.0032 260.733C94.0152 260.731 94.0273 260.729 94.0399 260.729L94.1108 260.727H94.1188C95.432 260.005 97.221 260.519 98.3479 261.572C98.3811 261.603 98.4096 261.637 98.4391 261.67C99.8659 261.03 101.198 260.165 102.407 259.071C104.881 256.83 106.977 254.057 108.803 251.28C112.168 246.16 115.025 240.468 119.57 236.255C123.262 232.832 127.84 230.701 132.642 229.363C132.622 229.222 132.675 229.073 132.773 228.974C133.02 228.721 133.195 228.633 133.514 228.786C133.539 228.799 133.554 228.816 133.565 228.834L134.034 228.035C134.289 227.599 134.552 227.163 134.643 227.048C135.188 226.361 135.75 225.68 136.319 225.013C137.286 223.884 138.385 222.771 139.66 221.987C142.451 220.275 145.385 221.245 148.254 222.18C149.987 222.746 151.714 223.331 153.445 223.906L153.623 223.964C154.915 224.378 156.423 224.741 157.001 226.107C157.229 226.649 157.264 227.209 157.158 227.754C169.414 224.639 183.026 226.071 194.984 229.727C195.444 229.868 195.902 230.245 195.998 230.74C197.368 237.765 197.979 244.967 197.359 252.111C196.825 258.278 195.457 264.322 192.882 269.967L192.736 270.286C190.314 275.519 186.478 281.968 180.618 283.607C177.08 284.598 173.166 284.014 169.558 283.833C166.051 283.656 162.467 283.631 158.993 283.08C155.9 282.588 153.188 281.202 151.276 278.688C149.627 276.518 148.759 273.897 148.046 271.289C147.722 271.393 147.397 271.502 147.08 271.626C145.735 272.152 144.597 272.998 143.567 273.996C141.393 276.1 139.706 278.656 137.431 280.665C135.372 282.482 133.025 283.897 130.508 284.984C125.293 287.237 119.698 288.136 114.181 289.33L113.796 289.414C109.643 290.324 105.404 291.444 101.738 293.606C101.666 294.242 101.376 294.84 100.912 295.232C101.558 295.84 101.832 296.801 101.264 297.702C99.6768 300.219 96.943 301.652 94.4889 303.263L94.3293 303.367C91.9151 304.968 89.4797 306.535 87.0246 308.072C82.0337 311.195 76.9385 314.147 71.7712 316.969C63.4601 321.507 54.9707 325.787 46.3276 329.672C46.8465 332.222 46.6568 334.853 47.0467 337.421L47.1065 337.788C47.273 338.74 47.0482 339.539 46.3914 340.161L46.3219 340.225L46.323 340.215L46.2614 340.272L46.2409 340.29L46.2477 340.285C46.172 340.354 46.0939 340.418 46.0142 340.473L45.9128 340.538C45.2803 340.923 44.4658 340.918 43.8182 340.578L43.7441 340.538L43.6197 340.467C42.764 339.975 42.1738 338.756 42.5289 337.788C43.4014 335.408 43.731 332.867 44.5367 330.471L43.8975 330.757L43.0551 331.124C33.9428 335.061 23.8211 338.379 13.8928 335.694C9.50596 334.507 5.4058 331.997 3.21081 327.905C1.05102 323.879 0.745714 319.205 0.630995 314.727C0.489465 309.199 0.786022 303.587 1.51519 298.109C2.00471 294.43 2.59672 290.682 3.50974 287.042C3.0401 286.628 2.69485 286.033 2.60366 285.296C2.17268 281.82 2.92702 278.205 3.38863 274.747C3.83967 271.369 4.33812 267.999 4.90169 264.639C6.03958 257.853 7.36168 251.081 8.90082 244.375C11.6402 232.44 15.2576 220.716 19.6127 209.273L19.9941 208.277C24.0184 197.818 28.6779 187.582 35.1662 178.394C38.27 173.997 41.5511 170.011 45.9367 166.843C50.0453 163.876 54.6798 161.739 59.4625 160.104C64.2504 158.47 69.1715 157.376 74.1796 156.694C79.2657 156.003 84.6343 155.578 89.3789 153.493C88.7786 152.417 89.2937 150.965 90.3037 150.298C93.7032 148.052 96.8465 145.133 99.8933 142.433ZM208.712 240.054C208.855 239.839 209.192 239.976 209.13 240.231C207.478 247.001 205.926 253.786 204.912 260.685C203.082 273.138 203.418 285.754 203.567 298.3L203.575 298.949C203.653 305.707 203.759 312.464 203.983 319.219C204.096 322.632 204.319 326.079 204.197 329.495C204.131 331.348 203.637 333.101 203.462 334.932C203.308 336.533 203.445 338.158 203.522 339.761C203.573 340.826 201.999 340.781 201.893 339.761L201.756 338.441C201.578 336.77 201.359 335.111 200.81 333.513C200.151 331.589 199.836 329.701 199.608 327.682C199.258 324.589 199.103 321.465 198.968 318.349L198.875 316.194C198.311 303.175 198.331 290.096 199.243 277.091L199.311 276.162C200.213 263.87 201.782 250.587 208.712 240.054ZM173.47 162.578C173.038 162.399 173.19 161.746 173.667 161.861L174.537 162.067C180.91 163.593 187.166 165.246 193.115 168.085C199.066 170.925 204.105 175.167 208.109 180.382C215.891 190.519 219.127 202.837 221.68 215.146C224.516 228.821 227.1 242.547 229.962 256.219L230.495 258.767C233.143 271.499 235.643 284.24 237.485 297.125L237.618 298.059C239.475 311.309 240.593 325.017 238.567 338.3C238.166 340.929 233.79 340.274 233.962 337.678C234.454 330.172 234.808 322.705 234.467 315.182C234.124 307.656 233.418 300.164 232.366 292.706C231.481 286.429 230.161 280.229 228.992 274.003L228.809 273.02C227.83 267.723 226.821 262.433 225.815 257.14L224.312 249.217C222.057 237.355 219.759 225.482 217.162 213.694L217.007 212.999C214.467 201.659 210.721 189.778 203.097 180.772C195.362 171.633 184.288 167.029 173.47 162.578ZM145.36 282.872C145.546 282.458 146.197 282.502 146.397 282.872C147.182 284.317 147.267 286.162 147.417 287.795L147.432 287.963C147.621 289.954 147.787 291.953 147.889 293.95C148.083 297.744 148.176 301.53 148.165 305.327C148.152 309.218 148.074 313.104 147.864 316.991L147.807 318.032C147.616 321.408 147.293 325.174 145.688 328.125C145.104 329.199 143.518 328.884 143.18 327.799C142.073 324.244 142.642 320.031 142.927 316.393L143.146 313.553C143.364 310.713 143.572 307.872 143.738 305.028C143.964 301.138 144.15 297.244 144.331 293.352C144.389 292.088 144.451 290.824 144.519 289.56L144.621 287.663C144.709 286.079 144.701 284.339 145.36 282.872ZM20.8836 287.908L21.3737 287.435C22.8781 285.964 24.7793 283.697 27.0035 283.837C27.8904 283.894 28.4554 284.629 28.2716 285.5C27.8787 287.366 25.9759 288.333 24.6062 289.471C23.1058 290.718 21.6916 292.05 20.2803 293.396C19.028 294.589 17.8238 295.816 16.6485 297.08L16.2091 297.558C15.7878 298.016 12.7876 300.729 13.112 301.433L13.1296 301.464C13.2198 301.599 13.0696 301.784 12.9198 301.736C11.6243 301.328 11.7051 300.219 12.1948 299.093C13.1361 296.932 14.7841 294.933 16.2233 293.088C17.6587 291.247 19.2122 289.533 20.8836 287.908ZM150.054 233.718C149.053 231.353 145.363 231.402 143.268 231.544C137.991 231.9 132.283 233.235 127.588 235.699C122.721 238.254 119.443 242.35 116.509 246.877L116.372 247.09C113.513 251.533 110.759 256.791 106.282 259.846C104.002 261.402 101.339 262.823 98.5721 263.439C98.382 263.773 98.0744 264.037 97.6709 264.132L97.4833 264.176C96.6954 264.349 95.4712 264.543 94.4137 264.428C94.4207 264.944 94.4152 265.456 94.4283 265.947C94.4655 267.351 94.4814 268.761 94.4814 270.166C94.4821 273.109 94.3238 276.058 94.4468 279.002C94.5556 281.605 94.9233 284.324 96.1737 286.651C97.0908 288.358 98.3012 289.489 99.7625 290.567C103.357 288.377 107.421 287.043 111.546 286.038C116.535 284.826 121.643 284.016 126.519 282.369C128.865 281.577 131.121 280.541 133.166 279.133C135.334 277.638 136.992 275.613 138.697 273.635L138.963 273.328C140.703 271.333 142.602 269.425 145.061 268.344C147.178 267.412 149.969 267.246 151.82 265.805C152.788 265.05 152.868 263.955 152.971 262.836C151.785 263.005 150.53 262.733 149.348 262.595L148.736 262.524C147.618 262.391 146.527 262.245 145.427 261.96C145.223 261.907 145.223 261.599 145.427 261.546C146.726 261.211 148.015 261.068 149.348 260.911L149.662 260.873C150.868 260.714 152.135 260.476 153.317 260.742C153.53 259.934 153.837 259.164 154.267 258.391C154.871 257.308 156.013 256.078 156.166 254.811C156.213 254.433 156.124 253.986 155.945 253.653L155.885 253.538C155.81 253.405 155.721 253.268 155.591 253.184C155.577 253.202 155.546 253.22 155.48 253.24C154.57 253.529 153.775 253.082 153.354 252.396C151.564 252.618 149.611 252.544 147.933 252.617L146.237 252.699C144.424 252.783 142.529 252.819 140.826 252.452C140.587 252.401 140.516 252.006 140.754 251.903C142.848 251.008 145.389 250.723 147.63 250.379C148.883 250.187 150.144 250.041 151.4 249.872C152.237 249.759 153.124 249.573 153.99 249.527C156.162 246.824 154.993 242.56 151.969 241.396C150.868 241.88 149.877 241.599 148.674 241.495C147.473 241.393 146.27 241.322 145.064 241.327C142.648 241.338 140.087 241.973 137.694 241.699C137.304 241.655 136.943 241.137 137.329 240.822C139.162 239.328 141.787 238.841 144.112 238.522L144.594 238.458C145.372 238.356 146.321 238.207 147.304 238.117C147.526 237.685 147.926 237.357 148.524 237.275C148.703 237.251 148.882 237.236 149.06 237.222L149.058 237.203C150.519 237.134 150.455 234.666 150.054 233.718ZM50.001 279.881C49.9751 279.921 49.9468 279.96 49.9167 279.996L49.8704 280.049L50.1108 279.952L50.001 279.881ZM175.559 228.431C169.407 227.769 163.248 227.909 157.078 228.086C156.584 229.7 154.866 231.073 153.202 231.126C154.506 233.109 154.639 235.794 153.726 237.896C155.666 238.668 157.339 240.056 158.353 242.031C159.761 244.769 159.576 247.816 158.185 250.348C159.372 251.422 160.074 253.167 160.003 254.811C159.925 256.645 158.832 258.21 157.922 259.73C156.941 261.371 156.908 262.817 156.607 264.656C156.166 267.348 154.349 268.98 152.013 269.998L152.137 270.487C152.739 272.83 153.489 275.303 155.21 277.018C157.426 279.223 160.862 279.203 163.788 279.341L163.928 279.349C166.607 279.482 169.287 279.639 171.966 279.792L173.974 279.903C177.058 280.073 180.02 280.093 182.537 278.055C186.648 274.729 189.465 269.223 191.249 264.349C194.992 254.119 195.037 242.894 193.319 232.239C187.556 230.382 181.577 229.076 175.559 228.431ZM124.402 245.402L124.447 245.405C125.714 245.549 126.584 246.574 126.894 247.791C127.344 249.558 127.123 251.156 128.206 252.752C129.32 254.393 130.005 255.706 130.167 257.732C130.233 258.568 130.204 259.399 130.39 260.215L130.523 260.787C130.667 261.397 130.784 261.986 130.712 262.64C130.647 263.237 130.357 263.702 129.757 263.893C127.804 264.517 126.297 263.08 125.792 261.26C125.356 259.689 125.938 257.816 125.323 256.341C124.983 255.524 124.354 254.84 123.999 254.016C123.648 253.2 123.471 252.347 123.415 251.46C123.308 249.782 124.792 247.767 123.964 246.246C123.788 245.921 123.987 245.392 124.402 245.402ZM98.4627 228.086C99.7849 227.818 101.285 227.203 102.589 227.714C103.26 227.977 103.591 228.794 103.024 229.363C102.041 230.348 100.612 230.402 99.2878 230.636L99.171 230.656C97.6051 230.946 96.0362 231.219 94.4654 231.48C91.5097 231.971 88.5472 232.403 85.5742 232.77C82.5207 233.147 79.4588 233.485 76.3924 233.736L75.2055 233.835C72.6152 234.041 69.9202 234.198 67.3788 233.802C67.0095 233.744 67.069 233.206 67.3788 233.113C70.1629 232.27 73.2171 232.044 76.0955 231.688C79.1555 231.307 82.2106 230.908 85.2577 230.431C88.2999 229.955 91.338 229.447 94.3649 228.883C95.7331 228.63 97.0992 228.363 98.4627 228.086ZM146.179 225.383C145.017 224.971 143.74 224.364 142.483 224.566C140.315 224.918 138.385 227.03 136.669 228.42L137.53 228.254C141.94 227.406 147.78 226.494 151.482 229.295C151.491 229.279 151.499 229.264 151.51 229.248C151.809 228.794 152.155 228.44 152.533 228.051C152.569 228.017 152.604 227.982 152.639 227.947L152.841 227.73L152.376 227.568C151.376 227.216 150.193 226.76 150.007 226.693L149.994 226.689C148.719 226.257 147.446 225.832 146.179 225.383ZM109.946 132.988C109.764 130.655 113.397 130.675 113.577 132.988C113.969 138.04 112.832 143.044 110.384 147.473C110.366 147.504 110.346 147.533 110.328 147.564C111.859 148.361 113.407 149.123 114.99 149.807C117.015 150.681 119.077 151.476 121.177 152.151C123.077 152.762 125.417 153.002 127.014 154.274C130.381 156.955 129.116 162.517 128.468 166.123L128.367 166.692C128.044 168.547 127.811 170.451 128.594 172.231C129.429 174.133 131.119 175.543 132.627 176.906L132.932 177.181C134.267 178.397 135.792 179.875 136.773 181.524C137.667 179.676 138.885 178.166 140.174 176.464C141.094 175.251 140.439 174.852 139.779 173.666C139.142 172.527 138.832 171.31 139.031 170.008C139.398 167.604 141.32 165.868 143.233 164.564C145.491 163.024 148.013 161.883 150.348 160.451C155.146 157.507 159.819 154.142 164.03 150.405C164.147 150.303 164.348 150.438 164.255 150.579C160.928 155.636 157.029 160.004 152.236 163.714C150.293 165.218 148.252 166.466 146.197 167.777L145.606 168.155C144.78 168.689 143.751 169.404 143.377 170.314C143.003 171.228 143.802 171.919 144.234 172.678C145.602 175.084 144.942 177.329 143.321 179.37L143.244 179.464C141.632 181.451 140.41 183.296 139.826 185.833C138.571 191.285 140.319 196.96 142.15 202.076L142.223 202.279C143.213 205.036 144.265 207.774 145.126 210.575L145.361 211.351C146.142 213.928 146.78 216.472 145.905 219.122C145.608 220.023 144.378 220.236 143.868 219.388C142.066 216.395 141.615 212.795 140.486 209.507C139.385 206.3 138.121 203.152 137.058 199.933C135.688 195.79 134.772 191.328 135.27 186.98C135.256 186.955 135.239 186.931 135.226 186.904L134.878 186.141C133.928 184.079 133.009 182.277 131.28 180.632C129.478 178.915 127.52 177.396 126.102 175.319C123.02 170.807 124.926 165.787 125.298 160.854L125.341 160.248C125.408 159.223 125.445 157.832 124.776 157.122C124.023 156.325 122.257 156.121 121.258 155.767C118.676 154.854 116.132 153.79 113.708 152.512C111.401 151.295 109.167 149.953 107.086 148.377L106.032 147.586C104.368 146.331 102.643 144.959 101.527 143.252C101.399 143.055 101.617 142.738 101.85 142.831C103.712 143.586 105.413 144.788 107.155 145.833C107.182 145.769 107.213 145.705 107.249 145.64C109.404 141.742 110.29 137.423 109.946 132.988ZM169.411 159.698C170.153 157.666 173.532 157.823 173.399 160.238C173.295 162.094 172.507 163.768 171.787 165.454L171.709 165.634C170.965 167.391 170.105 169.039 169.077 170.648C167.113 173.723 164.811 176.577 162.352 179.273C160.124 181.715 157.198 183.209 153.828 182.961C152.407 182.855 150.973 182.494 149.728 181.784C148.25 180.942 146.645 178.412 144.76 179.025C144.577 179.085 144.406 178.817 144.564 178.691C146.74 176.938 149.212 179.656 151.296 180.311C154.439 181.297 157.661 180.207 159.682 177.668C161.794 175.018 163.737 172.051 165.511 169.165C166.412 167.701 167.233 166.18 167.944 164.613C168.659 163.03 168.823 161.312 169.411 159.698ZM164.348 147.186C164.256 146.905 164.605 146.639 164.853 146.8C166.283 147.73 167.523 148.961 168.842 150.039C170.306 151.235 171.782 152.406 173.279 153.56C175.462 155.244 172.931 158.341 171.008 156.502C168.378 153.989 165.498 150.701 164.348 147.186ZM156.492 137.347C157.074 135.105 160.512 136.03 160.011 138.244L159.994 138.311C159.046 141.968 160.397 145.691 163.283 148.062L163.388 148.149C165.212 149.608 162.628 152.162 160.82 150.715C156.875 147.558 155.234 142.198 156.492 137.347Z" fill="black"/>
<path fill-rule="evenodd" clip-rule="evenodd" d="M141.112 21.2452C186.917 22.6979 189.681 44.4925 189.681 81.0431C189.681 117.593 165.918 140.626 157.169 144.648C148.42 148.67 125.38 165.943 104.589 157.984C83.7971 150.023 89.8181 116.39 89.8181 101.939C89.8181 87.4882 95.3053 19.7925 141.112 21.2452Z" fill="#EDB98A"/>
<path fill-rule="evenodd" clip-rule="evenodd" d="M96.8379 79.2513C106.309 40.5657 123.599 21.6912 148.708 22.6279C186.37 24.0328 185.973 62.4861 183.611 58.9799C182.066 56.6892 171.258 48.6871 151.185 34.9735L149.945 34.1269L96.8379 79.2513Z" fill="#DBC69D"/>
<path fill-rule="evenodd" clip-rule="evenodd" d="M159.693 132.645C151.282 137.348 141.65 137.531 132.602 134.57C127.175 132.8 122.199 130.062 117.543 126.788C113.492 123.938 109.877 120.775 106.295 117.419C103.345 110.905 100.719 104.402 99.4896 97.3143C98.3878 90.952 98.2417 84.3457 99.5199 77.9957C108.973 70.2066 118.368 62.3535 127.75 54.4764C132.529 50.4643 137.318 46.4739 142.166 42.5472C144.628 40.5534 147.067 38.5291 149.52 36.5262C149.925 36.197 150.326 35.8678 150.731 35.5386C155.794 39.2517 161.223 42.4347 166.252 46.2084C168.883 48.1869 171.444 50.2934 173.881 52.5096C175.159 53.6713 176.407 54.8694 177.625 56.098C178.739 57.2202 179.814 58.8295 181.393 59.2536C181.608 59.3112 181.813 59.3232 182.004 59.2959C184.116 77.8187 185.617 97.8204 176.569 114.642C172.622 121.981 167.025 128.541 159.693 132.645ZM104.971 139.453C103.813 138.39 105.539 136.668 106.692 137.728C113.937 144.375 123.409 147.899 132.976 149.53C134.519 149.794 133.862 152.143 132.328 151.881C122.34 150.179 112.523 146.382 104.971 139.453ZM96.2773 149.652C94.8944 148.908 96.1253 146.803 97.506 147.545C103.15 150.578 109.342 152.152 115.621 153.217C117.166 153.478 116.507 155.827 114.974 155.568C108.481 154.469 102.11 152.785 96.2773 149.652ZM119.25 46.9071C123.933 42.6968 128.967 38.6907 134.283 35.3102C139.664 31.8896 145.542 29.844 151.893 29.7953C151.448 30.1521 151.026 30.5484 150.596 30.9168C149.398 31.9445 148.201 32.9781 147.005 34.0084C144.614 36.0722 142.215 38.1328 139.853 40.2306C135.203 44.3643 130.537 48.4769 125.896 52.6197C116.976 60.5826 108.248 68.7189 99.7083 77.0905C99.7542 76.8862 99.8029 76.682 99.8513 76.478C102.679 64.6494 110.369 54.8909 119.25 46.9071ZM155.965 30.3107C155.996 30.2192 156.016 30.1305 156.029 30.0454C168.218 31.6369 178.398 40.6205 181.763 52.4492C181.472 52.8577 181.309 53.3425 181.371 53.8574C181.402 54.1167 181.431 54.379 181.462 54.638C181.045 54.2238 180.616 53.8362 180.251 53.4674C179.037 52.2358 177.793 51.0374 176.514 49.8699C173.899 47.4831 171.185 45.2516 168.324 43.1695C163.348 39.5477 157.962 36.2187 152.029 34.4811C152.42 34.161 152.81 33.841 153.202 33.5238C154.373 32.5694 155.46 31.7831 155.965 30.3107ZM177.817 17.6621C170.333 9.47049 159.97 3.47099 149.057 1.38579C138.635 -0.608023 127.847 0.706053 118.002 4.58061C97.4015 12.6897 81.1469 30.521 73.5355 51.1838C69.0983 63.2226 67.6436 76.4197 68.9768 89.1626C70.3035 101.847 74.1168 114.947 81.0555 125.739C81.6917 126.728 82.3886 127.675 83.119 128.592C82.7933 132.318 81.5516 135.969 79.5979 139.146C79.4929 139.316 79.382 139.484 79.2726 139.652C77.2718 141.153 75.1965 142.561 73.1705 144.014C71.4149 145.275 69.6772 146.566 68.0261 147.961C66.4676 149.278 64.6576 150.746 63.6025 152.524C62.738 153.98 62.3849 155.96 63.5651 157.348C64.9874 159.023 67.397 158.432 69.3235 158.432C69.4884 158.432 69.6531 158.435 69.8178 158.437C70.3963 158.802 70.9922 159.13 71.5694 159.437C77.4037 162.535 83.2591 165.599 89.1205 168.647C100.795 174.724 112.421 181.044 124.335 186.637C129.856 189.231 135.766 191.5 141.951 191.491C147.751 191.481 152.994 189.173 157.523 185.665C162.684 181.667 167.001 176.592 171.187 171.616C172.861 169.626 174.503 167.611 176.111 165.568C179.205 164.534 182.272 164.233 185.028 166.227C187.242 167.828 190.157 165.65 190.21 163.248C190.228 162.395 190.191 161.554 190.098 160.724C189.546 155.603 187.043 150.969 184.226 146.67C182.686 144.321 181.063 142.012 179.433 139.725C179.049 139.187 178.672 138.647 178.305 138.098C184.858 128.433 190.056 117.718 193.252 106.521C196.609 94.7385 197.751 82.5199 197.002 70.3104C195.851 51.5984 190.726 31.795 177.817 17.6621Z" fill="black"/>
<path fill-rule="evenodd" clip-rule="evenodd" d="M155.095 119.334C153.045 118.497 151.216 117.104 149.879 115.322C149.414 114.702 149.294 114.048 149.39 113.45C149.501 112.778 149.899 112.168 150.441 111.759C150.986 111.349 151.668 111.147 152.327 111.25C152.897 111.34 153.468 111.653 153.919 112.302L154.012 112.432C154.807 113.507 155.843 114.39 157.025 114.958C158.163 115.506 159.434 115.762 160.751 115.613C163.26 115.33 164.988 113.974 166.826 112.133C167.054 111.901 167.282 111.661 167.51 111.417C167.656 111.196 167.857 111.054 168.079 110.98C168.325 110.897 168.606 110.902 168.861 110.992C169.11 111.078 169.33 111.241 169.478 111.459C169.62 111.665 169.7 111.921 169.673 112.215C169.505 114.123 168.508 115.826 167.091 117.162C165.515 118.649 163.428 119.675 161.464 120.036C159.299 120.432 157.092 120.148 155.095 119.334ZM162.485 89.8972C164.789 91.2965 168.298 94.5593 165.819 98.0284C162.903 101.087 158.705 97.58 156.634 95.9939C154.718 94.7647 152.562 97.9261 154.342 99.3615C169.292 110.426 175.36 90.2631 163.649 88.252C162.361 88.0304 161.882 89.4643 162.485 89.8972ZM135.691 77.0262C135.947 73.869 140.756 73.1521 141.236 76.2763C141.663 79.0748 141.159 81.6457 139.897 84.1653C138.693 86.5724 135.664 85.4494 135.436 83.2576C135.128 80.3194 135.533 78.9902 135.691 77.0262ZM172.309 75.6281C172.98 74.7503 173.948 74.1508 175.108 74.4895C178.732 75.5484 177.665 80.6922 176.392 83.1959C175.699 84.5556 173.465 84.9003 172.454 83.7031C170.808 81.7509 170.018 77.8521 172.112 75.929C172.168 75.8296 172.232 75.7293 172.309 75.6281ZM139.846 63.2112L140.419 63.1109C142.192 62.8047 144.393 62.5105 145.646 63.934C146.31 64.6887 146.54 66.0918 145.646 66.8142C144.076 68.0854 142.337 67.5928 140.455 67.7004C138.903 67.7894 137.411 68.0462 135.918 68.4732C132.638 69.4101 129.966 71.1203 127.165 72.9981C126.798 73.2445 126.423 72.7747 126.598 72.4311C128.215 69.2658 131.347 66.6658 134.486 65.0809C136.16 64.2348 137.993 63.5331 139.846 63.2112ZM169.004 61.7934L169.441 61.8829C174.211 62.8795 180.406 64.87 182.666 69.5524C182.752 70.2144 182.661 70.3563 182.586 70.4491L182.562 70.48C182.502 70.5591 182.453 70.6682 182.166 70.7585C182.086 70.7393 182.006 70.7192 181.924 70.6979C180.89 70.4269 180.069 70.0532 179.277 69.6656L178.417 69.2423C177.419 68.7533 176.414 68.2822 175.347 67.9344C173.071 67.1925 170.731 66.6698 168.353 66.3907C167.838 66.3302 167.342 66.1564 166.95 65.8585C166.58 65.5758 166.295 65.1843 166.166 64.6639C165.998 63.9906 166.045 63.4806 166.408 62.8731C166.68 62.4168 167.069 62.1005 167.515 61.919C167.97 61.7339 168.489 61.6902 169.004 61.7934Z" fill="black"/>
<path fill-rule="evenodd" clip-rule="evenodd" d="M189.781 91.7539C186.078 95.5783 179.898 96.6759 174.971 94.6248C162.321 89.3419 168.513 72.8646 178.269 68.4396C179.487 68.1359 181.114 67.4155 182.599 67.2521C182.734 67.1863 183.025 67.3769 183.379 67.1967C194.136 68.3971 196.586 85.0887 189.781 91.7539ZM148.982 92.7326C144.829 98.2385 137.107 99.9371 130.8 97.3775C118.337 92.4717 122.757 77.8605 131.283 72.1322C149.295 65.3672 156.733 82.5805 148.982 92.7326ZM121.967 80.5329C121.955 80.5274 121.943 80.5245 121.932 80.5191C121.997 80.4902 122.063 80.4612 122.129 80.4317C122.108 80.4875 122.084 80.5426 122.064 80.5984C122.031 80.5761 122.003 80.5502 121.967 80.5329ZM198.355 74.5814C197.337 74.5834 195.869 74.7504 195.028 75.4555C192.951 68.4582 185.291 61.9823 178.626 66.7044C173.379 68.3913 169.485 72.1322 167.273 77.1056C163.282 74.7331 157.008 75.7461 153.549 78.8834C151.283 71.399 145.706 68.7781 139.067 68.3913C131.823 67.2051 124.602 74.2383 122.349 79.8805C120.475 79.6675 117.676 79.0715 115.913 80.2272C104.474 77.2287 84.4753 75.5754 82.1498 77.2414C80.4926 77.8771 79.5831 81.7872 81.8979 81.9982C83.9151 81.7119 81.6624 79.1331 83.6958 78.8517C94.5296 78.1804 105.047 80.3613 115.766 81.2765C116.723 82.5634 119.815 82.9938 121.465 82.4768C118.866 92.0479 124.475 98.5597 132.879 100.51C145.892 103.498 157.213 91.8622 153.809 79.7596C157.753 77.7994 162.287 77.8834 166.58 78.9161C159.405 105.313 201.937 104.129 195.293 76.3602C199.713 78.5581 200.675 75.0249 198.355 74.5814Z" fill="black"/>
</svg>
