<svg id="Capa_1" data-name="Capa 1" xmlns="http://www.w3.org/2000/svg" viewBox="0 0 225 45.46"><defs><style>.cls-1{fill:#fff;}.cls-2{fill:#292526;}</style></defs><title>combinator-logo</title><path class="cls-1" d="M12,1H57.12V46.46H12Z" transform="translate(-12 -1)"/><path class="cls-2" d="M25.39,12.33a3.19,3.19,0,0,1,.6-.12c1,0,2,0,2.93.08.15,0,.22.11.26.22,1.46,3,2.92,6.12,4.42,9.16.34.63.6,1.27,1,1.87.3-.49.56-1,.82-1.54,1.69-3.26,3.27-6.52,4.92-9.79a23.75,23.75,0,0,1,3.26.12,16.52,16.52,0,0,1-.82,1.76c-2.18,4.16-4.39,8.33-6.57,12.49a1.27,1.27,0,0,0-.11.52V36H32.93v-8.7a1.64,1.64,0,0,0-.15-.94c-2-3.79-4-7.57-6-11.4C26.29,14.09,25.8,13.23,25.39,12.33Z" transform="translate(-12 -1)"/><path class="cls-1" d="M138.36,10c.41,0,.49.53.52.83.12,1.53.15,3,.15,4.57s.08,2.89.08,4.35a10.47,10.47,0,0,1,2.59-1.68,5.74,5.74,0,0,1,4.91.11,7,7,0,0,1,3.3,4.09,13.11,13.11,0,0,1,.56,5,10.82,10.82,0,0,1-1.84,5.59,5.92,5.92,0,0,1-2.7,2.18,6.27,6.27,0,0,1-5.4-.6,13.12,13.12,0,0,1-1.38-1.13c-.19.6-.34,1.16-.53,1.76a14.49,14.49,0,0,1-2.55-.07,19.38,19.38,0,0,0,.38-4.17c.07-4.91,0-9.82,0-14.7a47,47,0,0,0-.3-5.7A8.48,8.48,0,0,1,138.36,10Zm6.3,10.13a7.73,7.73,0,0,0-2.25-.08,5.71,5.71,0,0,0-3.3,2.1c0,.34,0,.64,0,1v7.8c0,.26.19.45.38.6A5.46,5.46,0,0,0,144.51,33a3.23,3.23,0,0,0,2-1.58,8.66,8.66,0,0,0,1-3.6,14.3,14.3,0,0,0,.08-2.85,6.8,6.8,0,0,0-.83-3.19A3.25,3.25,0,0,0,144.66,20.13Zm11.18-9.45a2.3,2.3,0,0,1,1.65.07,2.76,2.76,0,0,1,1,1.28,2.11,2.11,0,0,1-1.73,2.55,2,2,0,0,1-2.14-1.32A2.1,2.1,0,0,1,155.84,10.68Zm-80,2.06a7.94,7.94,0,0,1,4.35-1.54,10.13,10.13,0,0,1,4.72.79,6.75,6.75,0,0,1,1.73,1,15.53,15.53,0,0,1-1.32,1.76,11.81,11.81,0,0,0-1.8-.93,7,7,0,0,0-5,0,6.12,6.12,0,0,0-3.07,2.78,10.42,10.42,0,0,0-1,2.77,22.82,22.82,0,0,0-.26,2.89c0,1.27-.12,2.59,0,3.86A8.81,8.81,0,0,0,76.21,31a6.32,6.32,0,0,0,4.24,2.1A9.22,9.22,0,0,0,83,33a15,15,0,0,0,2.81-1.16,14,14,0,0,1,1.47,1.76,18.47,18.47,0,0,1-2.14,1,12.91,12.91,0,0,1-6.23.6,9.25,9.25,0,0,1-4.05-2.06,9.94,9.94,0,0,1-2.89-4.39,14,14,0,0,1-.71-3.49,15.76,15.76,0,0,1,0-2.66,13,13,0,0,1,1-4.91A10.62,10.62,0,0,1,75.84,12.74Z" transform="translate(-12 -1)"/><path class="cls-1" d="M199.87,13.64a21.47,21.47,0,0,1,2.66-.64c-.15,1.65-.26,3.3-.3,5,1.39,0,2.81,0,4.2.08a16,16,0,0,1-.78,1.87h-3.57v4.61c0,1.2.08,2.44,0,3.64,0,1.39,0,2.78.11,4.13a1.4,1.4,0,0,0,1.05,1.12,6,6,0,0,0,2.59-.07,3.19,3.19,0,0,1,.3,1.57,6.27,6.27,0,0,1-2.51.57,4.38,4.38,0,0,1-3.42-1.09c-.71-.68-.63-1.73-.75-2.63-.07-1.95,0-3.94-.07-5.89v-6h-2.25a15.86,15.86,0,0,1,0-1.95h2.21C199.64,16.53,199.64,15.06,199.87,13.64ZM97.33,17.58a8.19,8.19,0,0,1,2.1.22,6.81,6.81,0,0,1,3.71,3,8.75,8.75,0,0,1,1.24,4.05,16.53,16.53,0,0,1-.45,5.74,7.2,7.2,0,0,1-3.42,4.13,7.38,7.38,0,0,1-5.28.52,6.7,6.7,0,0,1-3.83-2.81,9,9,0,0,1-1.39-5,14.44,14.44,0,0,1,.49-5,7.45,7.45,0,0,1,3-3.93,5.84,5.84,0,0,1,2.1-.9A13.19,13.19,0,0,1,97.33,17.58ZM96,19.75a3.67,3.67,0,0,0-2.25,1.54,8,8,0,0,0-.9,3.86,19.12,19.12,0,0,0,.07,2.93,10.12,10.12,0,0,0,.94,3.45A3.69,3.69,0,0,0,97,33.29a4,4,0,0,0,3.26-1.12,5.13,5.13,0,0,0,1.21-2.7,21,21,0,0,0,.11-3.72,10.24,10.24,0,0,0-.68-3.82,3.42,3.42,0,0,0-1.57-1.76A4.42,4.42,0,0,0,96,19.75Zm13.09-1.61a17.19,17.19,0,0,1,2.4-.6,7.91,7.91,0,0,1,.6,2.4c.56-.3,1-.75,1.5-1.09a6.29,6.29,0,0,1,4.05-1.31,2.8,2.8,0,0,1,.94.26,7.25,7.25,0,0,1,1.42.9,7,7,0,0,1,1,1.47,11.47,11.47,0,0,0,1.77-1.24,7.14,7.14,0,0,1,3.45-1.39,4.15,4.15,0,0,1,3.19,1.05,4,4,0,0,1,1,1.24,5.33,5.33,0,0,1,.3,1.54c.19,2.73.07,5.51.19,8.25v5.47c-.9,0-1.8,0-2.74,0V26.88c0-1.76,0-3.53-.11-5.29a2.15,2.15,0,0,0-.83-1.42,3,3,0,0,0-1.8-.27,5.64,5.64,0,0,0-2.77,1.43c-.38.34-.79.64-1.17,1-.11.08-.07.27-.07.38V35.06h-2.7V25.42c0-.79,0-1.58,0-2.33a5.51,5.51,0,0,0-.34-2.36,2.33,2.33,0,0,0-2.51-.71,8.29,8.29,0,0,0-3.56,2.1c-.15.11-.15.3-.15.48V35.09a23.42,23.42,0,0,1-2.37,0c-.07-4.24,0-8.51-.15-12.79,0-1,0-1.95-.15-2.88C109.29,19,109.14,18.55,109.07,18.14ZM155.2,18c.86-.11,1.72-.26,2.59-.45.11,2.4.07,4.8.07,7.2V35.09q-1.35.06-2.7,0c0-5,0-9.86,0-14.81C155.2,19.53,155.16,18.74,155.2,18ZM190,17.65a4.29,4.29,0,0,1,3.45,3.94c.11,2.85,0,5.7,0,8.55V31a6.89,6.89,0,0,0,.18,1.69c.12.57.64.87,1.05,1.2a9.62,9.62,0,0,1-1.19,1.58c-.31.26-.68,0-.91-.19a5.86,5.86,0,0,1-1.46-1.91c-.6.34-1,.82-1.61,1.16a5.86,5.86,0,0,1-3.34,1,6.24,6.24,0,0,1-3.07-.64,4.86,4.86,0,0,1-2.37-4.32,5.35,5.35,0,0,1,2.14-4.23,10.31,10.31,0,0,1,5.51-1.73c.87-.07,1.77-.07,2.67-.11a16.08,16.08,0,0,0-.15-2.59,2.48,2.48,0,0,0-1.13-1.84,4.18,4.18,0,0,0-2.62-.3,9.69,9.69,0,0,0-4.54,1.88,13.53,13.53,0,0,1-1.05-1.58c-.15-.26.07-.48.3-.6a11.82,11.82,0,0,1,5.89-1.83h.9A5.55,5.55,0,0,1,190,17.65Zm-1.13,8.59a13.48,13.48,0,0,0-2.47.34,4,4,0,0,0-2.4,1.76,3.57,3.57,0,0,0-.34,1.65,4.93,4.93,0,0,0,.15,1.84A2.28,2.28,0,0,0,185,33.22a4.34,4.34,0,0,0,2.21.26,4.86,4.86,0,0,0,2.36-1.13,2.79,2.79,0,0,0,1.17-1.87c.11-1.39.07-2.78.11-4.16A19.68,19.68,0,0,0,188.84,26.24Zm29.41-8.55a6.64,6.64,0,0,1,3.82,2.59,8.7,8.7,0,0,1,1.47,3.52,17.1,17.1,0,0,1,.18,3.64A9.4,9.4,0,0,1,221.88,33a6.54,6.54,0,0,1-4,2.33,7.21,7.21,0,0,1-5.47-1.13,7.75,7.75,0,0,1-2.74-4.12,11.8,11.8,0,0,1-.38-2.52,19.25,19.25,0,0,1,.23-4.23,8.45,8.45,0,0,1,2.36-4.24,5.83,5.83,0,0,1,3.23-1.5A10.75,10.75,0,0,1,218.25,17.69Zm-3,2a3.45,3.45,0,0,0-2.7,2.32,10.49,10.49,0,0,0-.48,3.9,23.07,23.07,0,0,0,.26,3.71,4.65,4.65,0,0,0,1,2.29,3.65,3.65,0,0,0,2.1,1.2,3.79,3.79,0,0,0,.94.12h.3l.3,0a4.93,4.93,0,0,0,1.8-.57,3.37,3.37,0,0,0,1.43-1.8,9.54,9.54,0,0,0,.45-2.7c0-1.08.07-2.17,0-3.26a8.5,8.5,0,0,0-.75-3.3,4.77,4.77,0,0,0-2-1.76A6.58,6.58,0,0,0,215.28,19.72Zm13.06-1.54c.82-.23,1.61-.49,2.43-.68a6.19,6.19,0,0,1,.57,2.7,10.34,10.34,0,0,0,1.12-1.08A5.26,5.26,0,0,1,237,17.54v.22c-.37.79-.6,1.66-.94,2.48,0,.15-.26.11-.37.11a4.15,4.15,0,0,0-2.14.38,5.48,5.48,0,0,0-1.65,1.46,3.15,3.15,0,0,0-.38,2c0,1-.07,2,0,2.92v7.92q-1.35,0-2.7,0V26.24c0-2,0-4-.08-6C228.64,19.57,228.41,18.89,228.34,18.18Zm-65.15,0a7.74,7.74,0,0,1,2.44-.57,11.6,11.6,0,0,1,.6,2.44c.71-.45,1.31-1.05,2.06-1.46a5.67,5.67,0,0,1,4.76-.83,4.75,4.75,0,0,1,2.44,1.73,4.37,4.37,0,0,1,.64,2.17c.15,2.67.11,5.33.11,8,0,1.8,0,3.56,0,5.36q-1.35.06-2.7,0c0-2.92-.08-5.89-.08-8.81,0-1.65,0-3.26-.15-4.91a2.14,2.14,0,0,0-1.84-1.47,4.58,4.58,0,0,0-1.83.19,12.91,12.91,0,0,0-3.49,2.14c0,4.27,0,8.59,0,12.86-.79,0-1.58,0-2.37,0,0-2.44-.07-4.87-.07-7.31s0-5-.15-7.5A12.73,12.73,0,0,0,163.19,18.22Z" transform="translate(-12 -1)"/></svg>