<svg width="41" height="34" viewBox="0 0 41 34" fill="none" xmlns="http://www.w3.org/2000/svg">
<path fill-rule="evenodd" clip-rule="evenodd" d="M0.250008 21.2179C0.249511 21.1078 0.271036 20.9987 0.313318 20.897C0.355599 20.7953 0.417784 20.7031 0.496217 20.6257C0.574651 20.5484 0.667749 20.4876 0.770039 20.4468C0.87233 20.406 0.981748 20.386 1.09186 20.3881L6.2187 20.4674C6.6836 20.4746 7.05823 20.858 7.05548 21.3259L7.00507 29.6544C7.00407 29.765 7.025 29.8748 7.06665 29.9773C7.1083 30.0799 7.16986 30.1732 7.24776 30.2518C7.32565 30.3304 7.41835 30.3928 7.52051 30.4354C7.62266 30.478 7.73223 30.5 7.84291 30.5H9.5321C9.7558 30.4998 9.97026 30.4107 10.1283 30.2524C10.2864 30.0941 10.3751 29.8795 10.375 29.6558V0.969174C10.3751 0.858197 10.397 0.748325 10.4396 0.645833C10.4822 0.54334 10.5445 0.450238 10.623 0.371843C10.7016 0.293449 10.7948 0.2313 10.8974 0.188946C11 0.146592 11.1099 0.124864 11.2209 0.125003H19.6541C19.7652 0.124725 19.8752 0.146365 19.9778 0.188683C20.0805 0.231001 20.1738 0.293163 20.2524 0.371608C20.3309 0.450052 20.3933 0.543235 20.4358 0.645814C20.4783 0.748393 20.5001 0.858351 20.5 0.969385V22.9056C20.4998 23.1294 20.5885 23.344 20.7466 23.5024C20.9047 23.6607 21.1192 23.7498 21.3429 23.75H23.0321C23.143 23.7498 23.2528 23.7278 23.3552 23.6852C23.4575 23.6426 23.5505 23.5803 23.6288 23.5017C23.7071 23.4232 23.7691 23.33 23.8114 23.2274C23.8536 23.1249 23.8752 23.015 23.875 22.9041V14.4709C23.8745 14.3604 23.8961 14.2509 23.9385 14.1489C23.9809 14.0468 24.0433 13.9543 24.122 13.8768C24.2007 13.7992 24.2941 13.7381 24.3967 13.6972C24.4994 13.6562 24.6091 13.6362 24.7196 13.6383L29.7804 13.7172C29.8907 13.7193 30.0003 13.6993 30.1028 13.6585C30.2053 13.6177 30.2986 13.5568 30.3772 13.4795C30.4559 13.4021 30.5183 13.3098 30.5609 13.2081C30.6034 13.1063 30.6252 12.997 30.625 12.8867V7.71875C30.6251 7.60781 30.6471 7.49798 30.6897 7.39554C30.7323 7.2931 30.7946 7.20004 30.8732 7.12169C30.9517 7.04334 31.0449 6.98123 31.1475 6.93891C31.25 6.89658 31.3599 6.87486 31.4709 6.875H39.9041C40.1281 6.87478 40.343 6.96348 40.5016 7.12161C40.6602 7.27974 40.7496 7.49436 40.75 7.71833V19.6371C40.75 19.8606 40.6613 20.0749 40.5034 20.233C40.3455 20.3911 40.1314 20.4801 39.9079 20.4805H38.3225C38.2117 20.4803 38.102 20.4582 37.9997 20.4156C37.8974 20.3729 37.8045 20.3106 37.7263 20.232C37.6481 20.1535 37.5861 20.0603 37.5439 19.9578C37.5018 19.8553 37.4802 19.7455 37.4805 19.6346V11.2013C37.4807 11.0904 37.459 10.9806 37.4168 10.8781C37.3745 10.7756 37.3125 10.6824 37.2342 10.6038C37.1559 10.5253 37.063 10.4629 36.9606 10.4203C36.8582 10.3777 36.7485 10.3557 36.6376 10.3555H34.9484C34.7234 10.3561 34.5077 10.4449 34.3476 10.6029C34.1875 10.7609 34.0957 10.9754 34.092 11.2003L34.0135 16.1552C34.0094 16.3803 33.9172 16.5947 33.7568 16.7527C33.5964 16.9106 33.3805 16.9994 33.1554 17H28.0946C27.9836 17.0001 27.8737 17.022 27.7712 17.0645C27.6686 17.1071 27.5755 17.1694 27.4971 17.2479C27.4186 17.3265 27.3564 17.4197 27.314 17.5223C27.2717 17.6249 27.2499 17.7349 27.25 17.8459V26.2791C27.25 26.5035 27.1609 26.7186 27.0023 26.8773C26.8436 27.0359 26.6285 27.125 26.4041 27.125H17.9709C17.8598 27.1253 17.7498 27.1036 17.6472 27.0613C17.5445 27.019 17.4512 26.9568 17.3727 26.8784C17.2941 26.8 17.2318 26.7068 17.1893 26.6042C17.1468 26.5016 17.1249 26.3917 17.125 26.2806V4.34439C17.1252 4.12065 17.0365 3.906 16.8784 3.74765C16.7203 3.58931 16.5058 3.50023 16.2821 3.5H14.5929C14.3692 3.50023 14.1548 3.58928 13.9967 3.74758C13.8386 3.90588 13.7499 4.12047 13.75 4.34417V33.0308C13.7499 33.1418 13.728 33.2517 13.6854 33.3542C13.6429 33.4567 13.5805 33.5498 13.502 33.6282C13.4234 33.7066 13.3302 33.7687 13.2276 33.8111C13.125 33.8534 13.0151 33.8751 12.9041 33.875H4.47087C4.24653 33.875 4.03138 33.7859 3.87276 33.6273C3.71413 33.4686 3.62501 33.2535 3.62501 33.0291V24.5959C3.6252 24.485 3.60355 24.3751 3.5613 24.2726C3.51904 24.1701 3.45701 24.0769 3.37874 23.9984C3.30047 23.9198 3.20749 23.8575 3.10512 23.8148C3.00275 23.7722 2.89299 23.7502 2.7821 23.75H1.09291C0.982222 23.75 0.872614 23.7282 0.770348 23.6858C0.668082 23.6435 0.575161 23.5814 0.49689 23.5031C0.418619 23.4249 0.356531 23.3319 0.314171 23.2297C0.271811 23.1274 0.250008 23.0178 0.250008 22.9071V21.2179Z" fill="#F24E1E"/>
</svg>
