<svg width="129" height="126" viewBox="0 0 129 126" fill="none" xmlns="http://www.w3.org/2000/svg">
<path d="M51.0972 17.1174C51.1959 16.21 52.359 15.8984 52.8982 16.6349L58.5808 24.3962C59.0417 25.0257 60.0138 24.9085 60.3118 24.1874L63.9701 15.3364C64.3185 14.4935 65.5209 14.5188 65.8336 15.3755L69.1448 24.4477C69.4117 25.179 70.3751 25.3383 70.8633 24.7318L76.8474 17.296C77.4179 16.5871 78.562 16.9468 78.6241 17.8547L79.2849 27.5121C79.3379 28.286 80.2136 28.7075 80.8516 28.2661L88.6899 22.8428C89.4361 22.3265 90.4289 22.991 90.2361 23.8777L88.179 33.3358C88.0147 34.0908 88.7324 34.7389 89.4668 34.4988L98.5371 31.5337C99.3973 31.2526 100.159 32.1675 99.7262 32.9623L95.11 41.4429C94.7417 42.1196 95.2446 42.941 96.0147 42.9207L105.586 42.6682C106.489 42.6444 106.958 43.7356 106.319 44.3747L99.522 51.177C98.9781 51.7213 99.227 52.6502 99.9702 52.8496L109.258 55.3419C110.131 55.5761 110.27 56.7557 109.476 57.1866L101.061 61.7534C100.384 62.1209 100.359 63.0837 101.016 63.4855L109.254 68.5219C110.026 68.9939 109.824 70.167 108.939 70.3536L99.6013 72.3209C98.8452 72.4802 98.5477 73.4003 99.0674 73.9721L105.578 81.1345C106.188 81.806 105.661 82.8778 104.756 82.8038L95.2565 82.0262C94.4834 81.9629 93.9357 82.7659 94.2768 83.4626L98.5332 92.1565C98.9333 92.9738 98.1224 93.8574 97.2738 93.5287L88.3736 90.0812C87.6476 89.8 86.8929 90.4197 87.0274 91.1865L88.6959 100.699C88.8535 101.597 87.8247 102.22 87.1016 101.664L79.5079 95.8283C78.8893 95.3529 77.9888 95.7375 77.9044 96.5131L76.8638 106.076C76.7651 106.983 75.6021 107.295 75.0628 106.558L69.3802 98.7971C68.9193 98.1676 67.9472 98.2849 67.6492 99.0059L63.9909 107.857C63.6426 108.7 62.4401 108.675 62.1274 107.818L58.8162 98.7457C58.5493 98.0143 57.5859 97.855 57.0978 98.4616L51.1137 105.897C50.5431 106.606 49.3991 106.246 49.3369 105.339L48.6761 95.6813C48.6232 94.9073 47.7474 94.4858 47.1095 94.9272L39.2711 100.351C38.5249 100.867 37.5321 100.202 37.725 99.3157L39.7821 89.8576C39.9463 89.1025 39.2286 88.4544 38.4942 88.6945L29.4239 91.6596C28.5637 91.9408 27.8022 91.0258 28.2348 90.231L32.851 81.7504C33.2193 81.0738 32.7164 80.2523 31.9463 80.2726L22.3754 80.5251C21.4722 80.5489 21.0031 79.4577 21.6417 78.8186L28.439 72.0164C28.9829 71.4721 28.734 70.5431 27.9908 70.3437L18.703 67.8514C17.8304 67.6173 17.6911 66.4376 18.4852 66.0067L26.9001 61.4399C27.5772 61.0724 27.602 60.1096 26.9447 59.7078L18.7067 54.6714C17.9346 54.1994 18.1366 53.0263 19.0221 52.8397L28.3598 50.8724C29.1159 50.7131 29.4133 49.793 28.8936 49.2212L22.383 42.0588C21.7727 41.3874 22.3002 40.3155 23.2046 40.3895L32.7045 41.1671C33.4777 41.2304 34.0253 40.4275 33.6842 39.7307L29.4278 31.0368C29.0277 30.2195 29.8386 29.3359 30.6872 29.6646L39.5874 33.1121C40.3134 33.3933 41.0681 32.7737 40.9336 32.0068L39.2651 22.4945C39.1075 21.5962 40.1363 20.9731 40.8594 21.5289L48.4531 27.365C49.0717 27.8404 49.9722 27.4559 50.0566 26.6803L51.0972 17.1174Z" fill="#7B61FF"/>
<path d="M55.621 72.2852L49.373 66.8407C49.1602 66.6493 48.9327 66.4494 48.6905 66.2409C48.4568 66.0178 48.2777 65.836 48.153 65.6955C48.1841 65.8114 48.2307 65.9853 48.2928 66.2171C48.3634 66.4342 48.4344 66.6761 48.5059 66.9427C48.5742 67.1977 48.6425 67.4527 48.7108 67.7077C48.7908 67.9596 48.854 68.1724 48.9006 68.3463L50.3355 73.7014L47.9361 74.3443L44.675 62.1736L47.0048 61.5494L53.0404 66.8271C53.2533 67.0185 53.4765 67.2258 53.7102 67.4489C53.9524 67.6573 54.1358 67.8318 54.2604 67.9723C54.2294 67.8564 54.1785 67.6899 54.1079 67.4728C54.0458 67.241 53.9806 66.9976 53.9123 66.7425C53.8408 66.476 53.7652 66.2167 53.6853 65.9648C53.6169 65.7098 53.5595 65.4954 53.5129 65.3215L52.1339 60.175L54.5332 59.5321L57.7944 71.7028L55.621 72.2852ZM60.9252 70.8639L57.6641 58.6932L66.114 56.4291L66.7522 58.8111L60.7365 60.423L61.3002 62.5268L64.7949 61.5904L65.4285 63.955L61.9337 64.8914L62.7211 67.8297L68.9977 66.1479L69.6359 68.5299L60.9252 70.8639ZM82.4086 65.1074L80.0266 65.7457L76.8542 59.8871C76.6621 59.5411 76.4727 59.1819 76.2859 58.8095C76.1108 58.434 75.9748 58.1351 75.8779 57.9126C75.9168 58.1506 75.9501 58.4833 75.9776 58.9108C76.0137 59.3235 76.0335 59.7219 76.037 60.1061L76.1842 66.7753L73.9065 67.3856L68.1069 55.8951L70.6454 55.2149L73.2946 60.8596C73.4333 61.1454 73.5844 61.4776 73.748 61.8562C73.9084 62.2232 74.0344 62.5311 74.1259 62.7798C74.104 62.5124 74.0823 62.1766 74.061 61.7723C74.0365 61.3565 74.0187 60.9886 74.0075 60.6686L73.8445 54.3577L75.9657 53.7893L78.9974 59.3315C79.1477 59.6142 79.3162 59.9418 79.503 60.3141C79.6866 60.6749 79.8358 60.9766 79.9505 61.2192C79.9053 60.958 79.8589 60.6225 79.8113 60.2129C79.7636 59.8033 79.73 59.4458 79.7103 59.1405L79.1822 52.9275L81.6859 52.2566L82.4086 65.1074Z" fill="white"/>
</svg>
