<svg width="59" height="59" viewBox="0 0 59 59" fill="none" xmlns="http://www.w3.org/2000/svg">
<circle cx="29.5" cy="29.5" r="29.5" fill="url(#paint0_linear_254_63)"/>
<path d="M18.527 42.408C16.5776 42.408 14.8323 41.932 13.291 40.98C11.7496 40.0053 10.537 38.6 9.65298 36.764C8.76898 34.928 8.32698 32.7067 8.32698 30.1C8.32698 27.4933 8.76898 25.272 9.65298 23.436C10.537 21.6 11.7496 20.206 13.291 19.254C14.8323 18.2793 16.5776 17.792 18.527 17.792C20.499 17.792 22.2443 18.2793 23.763 19.254C25.3043 20.206 26.517 21.6 27.401 23.436C28.285 25.272 28.727 27.4933 28.727 30.1C28.727 32.7067 28.285 34.928 27.401 36.764C26.517 38.6 25.3043 40.0053 23.763 40.98C22.2443 41.932 20.499 42.408 18.527 42.408ZM18.527 37.75C19.4563 37.75 20.261 37.4893 20.941 36.968C21.6436 36.4467 22.1876 35.6193 22.573 34.486C22.981 33.3527 23.185 31.8907 23.185 30.1C23.185 28.3093 22.981 26.8473 22.573 25.714C22.1876 24.5807 21.6436 23.7533 20.941 23.232C20.261 22.7107 19.4563 22.45 18.527 22.45C17.6203 22.45 16.8156 22.7107 16.113 23.232C15.433 23.7533 14.889 24.5807 14.481 25.714C14.0956 26.8473 13.903 28.3093 13.903 30.1C13.903 31.8907 14.0956 33.3527 14.481 34.486C14.889 35.6193 15.433 36.4467 16.113 36.968C16.8156 37.4893 17.6203 37.75 18.527 37.75ZM31.0663 42V38.43L40.2463 29.76C40.9717 29.1027 41.5043 28.5133 41.8443 27.992C42.1843 27.4707 42.411 26.9947 42.5243 26.564C42.6603 26.1333 42.7283 25.7367 42.7283 25.374C42.7283 24.422 42.3997 23.6967 41.7423 23.198C41.1077 22.6767 40.167 22.416 38.9203 22.416C37.923 22.416 36.9937 22.6087 36.1323 22.994C35.2937 23.3793 34.5797 23.98 33.9903 24.796L29.9783 22.212C30.885 20.852 32.1543 19.7753 33.7863 18.982C35.4183 18.1887 37.2997 17.792 39.4303 17.792C41.1983 17.792 42.7397 18.0867 44.0543 18.676C45.3917 19.2427 46.423 20.0473 47.1483 21.09C47.8963 22.1327 48.2703 23.3793 48.2703 24.83C48.2703 25.6007 48.1683 26.3713 47.9643 27.142C47.783 27.89 47.3977 28.6833 46.8083 29.522C46.2417 30.3607 45.403 31.3013 44.2923 32.344L36.6763 39.518L35.6223 37.512H49.0523V42H31.0663Z" fill="#F6F6F6"/>
<defs>
<linearGradient id="paint0_linear_254_63" x1="29.5" y1="10.7273" x2="29.5" y2="59" gradientUnits="userSpaceOnUse">
<stop stop-color="#FF734F"/>
<stop offset="1" stop-color="#E83C11"/>
</linearGradient>
</defs>
</svg>
