<svg id="Capa_1" data-name="Capa 1" xmlns="http://www.w3.org/2000/svg" viewBox="0 0 438 88.48"><defs><style>.cls-1{fill:#fff;}.cls-2{fill:#ccc;}.cls-3{fill:#e8e8e8;}</style></defs><title>redpoint-logo</title><path class="cls-1" d="M98.3,10.23A26.35,26.35,0,0,1,101.37,8c3.76,23.22,7.1,46.53,10.65,69.75a18.19,18.19,0,0,1,.26,3.83c-10.27,0-20.56-.16-30.76-.33-2.17-5.51-3.76-11.39-5.77-17-3.15-9.63-6.41-19.31-9.46-28.88,10.62-8.49,21.29-16.74,32.08-25.1Z" transform="translate(-7 -8)"/><path class="cls-2" d="M59.76,17.4h.68c1.71,6,3.86,11.81,5.75,17.74-16.13,13.1-32.67,25.57-49,38.39-2.74,1.87-5,4.69-8.16,5.71C25.33,59.13,41.94,39.39,58.27,19.36c.49-.63,1-1.27,1.44-1.93Z" transform="translate(-7 -8)"/><path class="cls-1" d="M232.58,27.06h13.58V68a20.66,20.66,0,0,0,.4,6,32.92,32.92,0,0,0,4.09.17v7.47c-3.1,0-6.22.2-9.46,0A4.81,4.81,0,0,1,238,76.4c-3.36,6.06-10.45,7.44-16,5.15-5.41-3-9-9.21-9.17-16.18a29,29,0,0,1,2.65-15.89c3.57-6.67,10.55-9.68,17-7.31a9.78,9.78,0,0,1,5.16,4.55v-12h-5c-.16-2.51-.21-5.05-.14-7.58m-8.73,26a15.5,15.5,0,0,0-2.37,5.8A18.15,18.15,0,0,0,223.8,71.1a7.09,7.09,0,0,0,11.12.55s0,0,.05,0a15.29,15.29,0,0,0,2.93-10.7,15.39,15.39,0,0,0-3.24-8.8A7.05,7.05,0,0,0,223.8,53.09Zm128.58-26v8.61h-8.66V27.11ZM131,27.11c7.62-.14,15.24,0,22.86,0a15,15,0,0,1,12,4.66,17.3,17.3,0,0,1,3.41,12.47c-.14,6-3.39,11.36-8.21,13.51,2.81,5,5.42,10.07,7.78,15.34a7.84,7.84,0,0,0,4.09.69v7.77c-2.74,0-5.51,0-8.25-.16a7.74,7.74,0,0,1-4.28-4.94c-2.13-4.46-4.19-9-6.39-13.43-1.63-3.56-5.54-1.93-8.28-2.29v13h5.44v7.67H131.58c-1-2.32-.16-5.16-.47-7.7h5.75V34.84h-5.44a42.56,42.56,0,0,1-.29-7.73m14.62,8.28V52.51a61.89,61.89,0,0,0,10.18-.33c4.35-1.4,5.7-7.69,4.28-12.19a6.92,6.92,0,0,0-4.33-4.3,57.74,57.74,0,0,0-10.17-.39m264.87-3.47c2.6-.36,5.23-.17,7.85-.3.95,3.42.14,7.28.43,10.86h7.52v7.28h-7.52V67.38a6.49,6.49,0,0,0,2.6,5.13,8.36,8.36,0,0,0,5.32,1v8.28c-4.73.41-10-.25-13.55-4.39-2.89-3.64-3.2-8.88-3-13.6V49.7h-5V42.42h5.42ZM181.64,45.92A15.71,15.71,0,0,1,197.8,42.2,14.82,14.82,0,0,1,206.62,52a28.11,28.11,0,0,1,1,11.44H184.55a11.36,11.36,0,0,0,3.83,8.47,10.68,10.68,0,0,0,12.07.5,27,27,0,0,1,3.9-2.23c1,2.34,2.13,4.57,3.17,6.86a20.05,20.05,0,0,1-14.59,5.55c-6.65,0-12.71-4.5-15.52-11.53-3.34-8.52-1.61-18.59,4.25-25m3,11.53h14.46a10.44,10.44,0,0,0-2.77-6.87,6.25,6.25,0,0,0-5.82-1.24,9.36,9.36,0,0,0-5.87,8m82.45-9.6c4.47-8.28,15.66-8.5,21.1-1.49,4.47,5.51,5.21,13.79,4.24,21C291.56,73.67,288,79,283,81.53c-5.14,2.07-11.6,1.16-15-4.25V89.47h4.74v7H254.48v-7h5V52.1a2.54,2.54,0,0,0-1.23-2.32h-4.14V42.5a83,83,0,0,1,10.79.22c2.06.64,2.37,3.12,2.15,5.24m6.89,2.4a8.37,8.37,0,0,0-5.49,6,17.29,17.29,0,0,0,1.89,14.94,6.82,6.82,0,0,0,10.1,1.11,12.69,12.69,0,0,0,3.67-9.93,14.4,14.4,0,0,0-3-10.07,7.08,7.08,0,0,0-7.1-2.07m27.56-1.6c7.41-9.24,19.85-9.73,27.8-1.1a1.45,1.45,0,0,1,.17.19c6,7.28,6.6,18.62,1.35,26.67a17.86,17.86,0,0,1-28.68,1.63C296,68.62,295.7,56.68,301.63,48.76Zm12,1.58a9.55,9.55,0,0,0-5.13,3.72,14.32,14.32,0,0,0,1,17.24,8.82,8.82,0,0,0,12.37.49c4.61-4.47,5.25-12.41,1.42-17.79a11.44,11.44,0,0,0-1.66-1.87A8.87,8.87,0,0,0,313.65,50.34Zm61.65-.5c3.06-7.7,11.95-10.43,18.24-6.81a14.34,14.34,0,0,1,5.19,11.83v19.3h4.73v7.48H390.28V57.56a7,7,0,0,0-3.17-6.7A7.47,7.47,0,0,0,380.6,52a14.48,14.48,0,0,0-5,10.51c-.11,3.89,0,7.75,0,11.64h4.74v7.5H362.08V74.14h4.85V50.39a9.26,9.26,0,0,0-5.18-.69V42.42c3.57,0,7.1-.17,10.71,0,2.8.69,3,4.5,2.8,7.2m-36.51-7.34h13.72V73.94h4.74v7.48H339V73.94h4.9v-20a16.14,16.14,0,0,0-.31-4.44h-4.94V42.39Z" transform="translate(-7 -8)"/><path class="cls-3" d="M66.24,35.11v.22C69.29,45,72.56,54.64,75.7,64.21c2,5.51,3.6,11.47,5.77,17,10.27.17,20.56.36,30.76.33h.38q-52.8.17-105.61,0a8.48,8.48,0,0,1,2-2.4c3.13-1,5.42-3.83,8.17-5.71C33.43,60.65,50,48.18,66.1,35.08Z" transform="translate(-7 -8)"/><path class="cls-1" d="M440,70.74c2.44-.3,4.61,1.74,4.88,4.55,0,.34,0,.64,0,1,.43,2.7-1.11,5.32-3.43,5.82a3.22,3.22,0,0,1-1.16,0c-2.44.42-4.69-1.54-5-4.35a6.48,6.48,0,0,1-.05-1.16c-.28-2.9,1.52-5.52,4-5.85A4.07,4.07,0,0,1,440,70.74Z" transform="translate(-7 -8)"/></svg>