<svg id="Capa_1" data-name="Capa 1" xmlns="http://www.w3.org/2000/svg" viewBox="0 0 190 25.08"><defs><style>.cls-1{fill:#fff;}</style></defs><title>sequioia-logo</title><path class="cls-1" d="M64.81,8a9,9,0,0,0-6.65,2.69c-2.43,2.43-2.44,5.5-2.44,9.85s-.12,7.3,2.44,9.85a8.74,8.74,0,0,0,6.65,2.69,9.81,9.81,0,0,0,2-.26h8.31L72.74,28.6c1.15-2.18,1.15-4.73,1.15-8.06,0-4.22,0-7.29-2.43-9.85A8.57,8.57,0,0,0,64.81,8Zm50.41,0a8.58,8.58,0,0,0-6.65,2.69c-2.56,2.56-2.44,5.63-2.44,9.85s0,7.42,2.44,9.85a9,9,0,0,0,6.65,2.69,8.54,8.54,0,0,0,6.65-2.69c2.43-2.55,2.43-5.63,2.43-9.85s0-7.42-2.43-9.85A9.22,9.22,0,0,0,115.22,8Zm-97.75.13c-5.38,0-8.57,3.07-8.57,7.42a6.67,6.67,0,0,0,1.79,4.86,8.08,8.08,0,0,0,4.73,2.05l2.94.38a3.86,3.86,0,0,1,2.18.9,2.71,2.71,0,0,1,.77,2.05c0,2-1.54,3.07-4.35,3.07a8.14,8.14,0,0,1-5.89-2.05L8,29.88c2.43,2.43,5.25,3.2,9,3.2,5.12,0,9.21-2.69,9.21-7.42a7.16,7.16,0,0,0-1.92-5.25,7.43,7.43,0,0,0-4.73-1.92l-2.95-.38a4.87,4.87,0,0,1-2.3-1,2.53,2.53,0,0,1-.77-1.79c0-1.67,1.28-3.08,3.84-3.08a6.57,6.57,0,0,1,5,1.67l3.07-3C23.35,8.9,20.79,8.13,17.47,8.13Zm15.61.13V32.82H49.33V28.6H37.94v-6h9.72V18.24H37.94V12.48H49.33V8.26Zm48,0V24.38c0,5.25,4.09,8.7,9.08,8.7s9-3.45,9-8.7V8.26H94.36v16c0,2.81-1.66,4.48-4.22,4.48s-4.22-1.67-4.22-4.48v-16Zm50.28,0V32.82h4.74V8.26Zm19.7,0-8.95,24.56h5l1.54-4.35h8.69l1.41,4.35h5l-9-24.56ZM64.68,12.35a4,4,0,0,1,3.07,1.28c.9,1,1.15,2.18,1.15,6.91s-.25,5.89-1.15,6.91a4.32,4.32,0,0,1-6.14,0c-.9-1-1.15-2.18-1.15-6.91s.25-5.89,1.15-6.91a4,4,0,0,1,3.07-1.28Zm50.54,0a4,4,0,0,1,3.07,1.28c.9,1,1.15,2.18,1.15,6.91s-.25,5.89-1.15,6.91a4.32,4.32,0,0,1-6.14,0c-.9-1-1.15-2.18-1.15-6.91s.25-5.89,1.15-6.91A4,4,0,0,1,115.22,12.35ZM153,15.42l3.08,9h-6.15Z" transform="translate(-8 -8)"/><path class="cls-1" d="M173.43,8.26V30.65l3.08-3.07V8.26Zm6.15,0V24.51l3.07-3.07V8.26Zm6.14,0v10.1l3.07-3.06v-7Zm6.14,0V14.4H198V8.26ZM191,17.47l-3.08,3.07H198V17.47Zm-6.15,6.14-3.07,3.07H198V23.61Zm-6.14,6.14-3.07,3.07H198V29.75Z" transform="translate(-8 -8)"/></svg>