<svg width="43" height="45" viewBox="0 0 43 45" fill="none" xmlns="http://www.w3.org/2000/svg">
<path d="M20.5987 1.78742C20.7566 0.635038 22.4224 0.635038 22.5802 1.78742L22.8699 3.90241C23.0095 4.92113 24.4109 5.09129 24.7902 4.13557L25.5776 2.15136C26.0067 1.07024 27.6241 1.46889 27.5015 2.62556L27.2767 4.74844C27.1684 5.77095 28.4883 6.27155 29.0853 5.43436L30.3247 3.69627C31 2.74924 32.475 3.52337 32.0793 4.61712L31.3529 6.62448C31.003 7.59136 32.1648 8.3933 32.9448 7.72331L34.5642 6.33233C35.4465 5.57443 36.6934 6.67905 36.0474 7.6463L34.8617 9.42152C34.2906 10.2766 35.2267 11.3332 36.1444 10.8694L38.0496 9.90636C39.0876 9.38165 40.0339 10.7526 39.1752 11.5371L37.5992 12.977C36.84 13.6705 37.4961 14.9205 38.4981 14.6898L40.5784 14.2107C41.7119 13.9496 42.3026 15.5071 41.281 16.0634L39.4062 17.0843C38.5032 17.576 38.841 18.9466 39.8691 18.9624L42.0036 18.9951C43.1666 19.0128 43.3674 20.6665 42.2425 20.9621L40.1778 21.5046C39.1833 21.766 39.1833 23.1776 40.1778 23.439L42.2425 23.9815C43.3674 24.2771 43.1666 25.9308 42.0036 25.9486L39.8691 25.9812C38.841 25.997 38.5032 27.3676 39.4062 27.8593L41.281 28.8802C42.3026 29.4365 41.7119 30.994 40.5784 30.733L38.4981 30.2538C37.4961 30.0231 36.84 31.2731 37.5992 31.9666L39.1752 33.4065C40.0339 34.191 39.0876 35.562 38.0496 35.0372L36.1444 34.0742C35.2267 33.6104 34.2906 34.667 34.8617 35.5221L36.0474 37.2973C36.6934 38.2645 35.4465 39.3692 34.5642 38.6113L32.9448 37.2203C32.1648 36.5503 31.003 37.3522 31.3529 38.3191L32.0793 40.3265C32.475 41.4202 31 42.1944 30.3247 41.2473L29.0853 39.5092C28.4883 38.6721 27.1684 39.1726 27.2767 40.1952L27.5015 42.318C27.6241 43.4747 26.0067 43.8734 25.5776 42.7922L24.7902 40.808C24.4109 39.8523 23.0095 40.0225 22.8699 41.0412L22.5802 43.1562C22.4224 44.3086 20.7566 44.3086 20.5987 43.1562L20.309 41.0412C20.1695 40.0225 18.7681 39.8523 18.3888 40.808L17.6013 42.7922C17.1723 43.8734 15.5549 43.4747 15.6774 42.318L15.9023 40.1952C16.0106 39.1726 14.6906 38.6721 14.0936 39.5092L12.8542 41.2473C12.1789 42.1944 10.7039 41.4202 11.0997 40.3265L11.8261 38.3191C12.1759 37.3522 11.0141 36.5503 10.2341 37.2203L8.61477 38.6113C7.73245 39.3692 6.48559 38.2645 7.1316 37.2973L8.31725 35.5221C8.88834 34.667 7.95222 33.6104 7.03455 34.0742L5.12937 35.0372C4.09131 35.562 3.14503 34.191 4.00375 33.4065L5.57978 31.9666C6.3389 31.2731 5.68286 30.0231 4.68085 30.2538L2.60057 30.7329C1.4671 30.994 0.8764 29.4365 1.89792 28.8802L3.77274 27.8593C4.67577 27.3676 4.33793 25.997 3.30982 25.9812L1.17533 25.9486C0.0123191 25.9308 -0.18847 24.2771 0.936482 23.9815L3.00114 23.439C3.99561 23.1776 3.99561 21.766 3.00114 21.5046L0.936482 20.9621C-0.18847 20.6665 0.0123191 19.0128 1.17533 18.9951L3.30982 18.9624C4.33793 18.9466 4.67577 17.576 3.77274 17.0843L1.89792 16.0634C0.8764 15.5071 1.4671 13.9496 2.60057 14.2107L4.68086 14.6898C5.68286 14.9205 6.3389 13.6705 5.57978 12.977L4.00375 11.5371C3.14503 10.7526 4.09131 9.38165 5.12937 9.90636L7.03455 10.8694C7.95222 11.3332 8.88834 10.2766 8.31725 9.42152L7.1316 7.6463C6.48559 6.67905 7.73245 5.57443 8.61477 6.33233L10.2341 7.72331C11.0141 8.3933 12.1759 7.59137 11.8261 6.62448L11.0997 4.61712C10.7039 3.52337 12.1789 2.74924 12.8542 3.69627L14.0936 5.43436C14.6906 6.27154 16.0106 5.77095 15.9023 4.74844L15.6774 2.62556C15.5549 1.46889 17.1723 1.07024 17.6013 2.15136L18.3888 4.13557C18.7681 5.09129 20.1695 4.92113 20.309 3.90241L20.5987 1.78742Z" fill="#E0EAF3"/>
</svg>
