<svg width="31" height="34" viewBox="0 0 31 34" fill="none" xmlns="http://www.w3.org/2000/svg">
<path fill-rule="evenodd" clip-rule="evenodd" d="M12.7577 7.09805C12.6693 6.57359 12.6027 6.05507 12.5597 5.5365C12.4949 4.75864 12.5349 3.97484 12.512 3.19698C12.5019 2.86698 12.4625 2.00664 12.4784 1.88289C12.6227 0.804495 13.4931 0.639475 13.7477 0.61001C13.8709 0.592332 15.1355 0.450966 15.4083 1.85347C15.743 3.56829 15.8503 5.29487 15.7318 6.98612C16.0082 8.42398 16.4808 9.85591 17.1049 11.1523C19.5881 16.3086 24.3201 16.8095 29.4468 16.7624C30.2353 16.7506 30.89 17.3693 30.9313 18.1531C30.9725 18.9427 30.3856 19.6263 29.6007 19.697C26.735 19.9739 21.6506 22.2722 19.8927 24.6647C19.525 25.1656 19.3111 26.3736 19.0283 27.5581C18.6335 29.2022 18.1638 30.8286 17.6376 31.5122C17.5586 31.6183 16.5986 32.7026 16.3123 32.8617C15.624 33.2388 15.073 33.0207 14.7601 32.8204C14.4472 32.62 14.093 32.2252 13.9516 31.5711C13.8037 30.8875 13.9286 29.485 13.9056 29.1845C13.8219 28.0943 13.6039 25.9552 13.159 24.1166C12.9192 23.1266 12.6634 22.2132 12.2403 21.7595C10.674 20.08 8.16952 20.3275 6.06047 20.6045C5.81827 20.634 5.57608 20.6693 5.33447 20.6988C4.47588 20.9522 3.56423 21.1407 2.60075 21.2527C1.14581 21.4236 0.906572 20.0859 0.893608 19.9975C0.866501 19.8031 0.765722 18.8013 1.86238 18.4006C1.98201 18.3593 2.86477 18.1649 3.20478 18.0882C3.67857 17.9822 4.15765 17.8997 4.63851 17.8231C9.6056 16.2792 12.3034 11.942 12.7577 7.09805ZM14.4625 12.4547C16.3376 16.3322 19.1833 18.2061 22.5563 19.0547H22.5558C20.4496 20.1566 18.5339 21.5356 17.5185 22.9204C17.1331 23.4449 16.7796 24.4997 16.4608 25.6841C16.2881 24.5822 16.0548 23.4095 15.7466 22.4077C15.3959 21.2645 14.9239 20.3158 14.3971 19.7501C13.38 18.6599 12.1036 18.0529 10.7311 17.7524C12.3741 16.2968 13.6198 14.4819 14.4625 12.4547Z" fill="#E0EAF3"/>
</svg>
