<svg width="76" height="77" viewBox="0 0 76 77" fill="none" xmlns="http://www.w3.org/2000/svg">
<ellipse cx="37.9316" cy="38.6308" rx="27.6161" ry="28.0222" transform="rotate(-30 37.9316 38.6308)" fill="#E0EAF3"/>
<path d="M52.9378 37.7271C55.8555 42.7807 54.1834 49.2083 49.2031 52.0837C46.4854 53.6527 43.3442 53.8398 40.5768 52.8647" stroke="white" stroke-width="3"/>
<path fill-rule="evenodd" clip-rule="evenodd" d="M26.8516 43.49C24.9992 40.2173 26.0904 36.0789 29.3064 34.2221C31.4412 32.9896 33.9784 33.0705 36.0013 34.2121C36.0241 31.8895 37.2227 29.6516 39.3574 28.4191C42.5734 26.5624 46.703 27.6866 48.6111 30.9272L46.9531 31.8844C45.5815 29.5729 42.6291 28.7733 40.3287 30.1014C38.0283 31.4296 37.2445 34.3862 38.5606 36.7298L36.9021 37.6874C35.5305 35.3758 32.5781 34.5762 30.2777 35.9044C27.9773 37.2325 27.1935 40.1892 28.5096 42.5328L26.8516 43.49Z" fill="white"/>
</svg>
