<svg width="146" height="73" viewBox="0 0 146 73" fill="none" xmlns="http://www.w3.org/2000/svg">
<path fill-rule="evenodd" clip-rule="evenodd" d="M72.9334 50.4368C45.5438 50.4368 23.3402 28.1524 23.3402 0.663274L36.0071 0.663275C36.0071 21.1313 52.5396 37.7238 72.9334 37.7238C93.3273 37.7238 109.86 21.1313 109.86 0.663289L122.527 0.66329C122.527 28.1524 100.323 50.4368 72.9334 50.4368Z" fill="#E0EAF3"/>
<path fill-rule="evenodd" clip-rule="evenodd" d="M72.9334 73C33.1277 73 0.858767 40.6137 0.858771 0.663272L13.5257 0.663273C13.5257 33.5926 40.1234 60.287 72.9334 60.287C105.743 60.287 132.341 33.5926 132.341 0.663298L145.008 0.6633C145.008 40.6138 112.739 73 72.9334 73Z" fill="#E0EAF3"/>
<path fill-rule="evenodd" clip-rule="evenodd" d="M72.9334 28.8992C57.3956 28.8992 44.7998 16.2576 44.7998 0.663276L57.4667 0.663277C57.4667 9.23638 64.3914 16.1863 72.9334 16.1863C81.4754 16.1863 88.4001 9.23639 88.4001 0.663287L101.067 0.663288C101.067 16.2576 88.4712 28.8992 72.9334 28.8992Z" fill="#E0EAF3"/>
</svg>
